<svg width="477" height="256" viewBox="0 0 477 256" fill="none" xmlns="http://www.w3.org/2000/svg">
<path d="M205.38 37.69C205.45 43.44 204.4 52.36 199.15 62.38C194 72.2 188.76 77.77 185.2 80.76H171.45C175.36 78.53 180.63 75.11 185.39 70.64C188.48 67.77 191.35 64.45 193.53 60.73C198.86 51.68 200.21 42.91 200.44 37.54C202.09 37.62 203.74 37.68 205.38 37.7V37.69Z" fill="white"/>
<path d="M245.23 80.7499H231.48C227.91 77.7699 222.68 72.1999 217.53 62.3699C212.28 52.3499 211.23 43.4499 211.31 37.6999C212.99 37.6899 214.65 37.6399 216.24 37.5699C216.48 42.9499 217.82 51.6699 223.15 60.7099C225.3 64.3799 228.12 67.6499 231.15 70.5099C235.96 75.0299 241.28 78.4899 245.23 80.7499Z" fill="white"/>
<path d="M277.22 80.75H272.51C272.67 76.56 272.35 65.55 265.57 54.02C263.39 50.3 260.52 46.99 257.43 44.13C253.22 40.16 248.6 37.03 244.89 34.82C245.4 34.76 245.93 34.7 246.44 34.65C249.78 34.28 253.21 33.9 256.66 33.52C260.24 36.38 265.74 42.01 271.18 52.37C277.75 64.9 277.73 75.71 277.21 80.76L277.22 80.75Z" fill="white"/>
<path d="M323.99 29.9499C321.76 31.0299 312.22 35.9399 304.06 43.4199C300.66 46.5299 297.5 50.0899 295.18 54.0099C288.4 65.5499 288.08 76.5499 288.24 80.7399H283.54C283.01 75.6699 282.99 64.8699 289.56 52.3499C296.81 38.5299 306.36 31.1999 309.97 28.7699H310.2C315.06 28.7399 318.9 29.0499 321.94 29.5499C322.65 29.6599 323.33 29.7999 323.98 29.9399L323.99 29.9499Z" fill="white"/>
<path d="M223.58 0L226.99 10.36C226.99 10.36 239.15 9.41 248.1 8.58C262.55 7.25 273.02 6.12 274.8 6.25C254.87 5.18 250.84 4.24 241.47 3.26C227.26 1.79 223.58 0 223.58 0Z" fill="white"/>
<path d="M332.8 26.1701C332.61 26.9101 332.14 27.6301 331.15 28.1301C331.48 27.8401 333.33 26.0901 331.29 24.6901C330.12 23.8301 328.2 22.8201 325.09 22.0301C324.74 21.9501 324.39 21.8701 324 21.7801C323.36 21.6401 322.68 21.5101 321.96 21.3901C318.93 20.8801 315.08 20.5701 310.22 20.6101H309.99C299.8 20.7501 277.76 23.0401 256.69 25.3301C253.23 25.7201 249.81 26.0901 246.47 26.4601C245.95 26.5201 245.42 26.5801 244.91 26.6301C244.37 26.6901 243.84 26.7501 243.32 26.8101C236.46 27.5501 230.04 28.2501 224.58 28.8101C224.39 28.8301 224.19 28.8501 224 28.8701C223.55 28.9101 223.11 28.9701 222.64 29.0101C212.95 29.8201 203.16 29.7601 193.48 28.9101C173.24 27.1601 156.49 21.8001 170.95 11.4301C169.82 12.3801 164.5 17.6501 179.35 20.0801C195.76 22.7601 247.08 15.8401 267.12 13.8801C285.59 12.0901 325.88 9.12005 332.24 22.7401C332.49 23.3001 332.71 23.8901 332.84 24.5101C332.84 24.5301 332.86 24.5501 332.84 24.5701C332.94 25.0601 332.96 25.6201 332.82 26.1601L332.8 26.1701Z" fill="white"/>
<path d="M185.39 70.6301C182.32 74.2101 178.38 77.6501 173.33 80.7501H169.44C193.48 67.6801 194.57 47.1001 193.46 37.0801C194.09 37.1301 194.76 37.1801 195.42 37.2201C196.24 45.1001 195.67 58.6601 185.39 70.6301Z" fill="white"/>
<path d="M247.21 80.7501H243.32C238.16 77.5801 234.19 74.1101 231.15 70.5101C220.66 58.0901 221.32 44.2501 222.62 37.1801C223.09 37.1301 223.54 37.0801 223.98 37.0401C224.18 37.0201 224.37 37.0101 224.57 36.9801C222.73 45.5901 221.34 66.8001 247.22 80.7401L247.21 80.7501Z" fill="white"/>
<path d="M264.56 80.75H262.51C263.82 77.17 271.92 51.61 243.31 34.98C243.83 34.92 244.36 34.86 244.9 34.81C245.41 34.75 245.94 34.69 246.45 34.64C251.08 37.59 254.67 40.82 257.43 44.13C270.11 59.19 265.95 76.29 264.56 80.75Z" fill="white"/>
<path d="M298.23 80.7501H296.22C295.08 76.3501 291.65 58.8101 304.07 43.4201C308.13 38.3801 313.89 33.5801 321.96 29.5601C322.67 29.6701 323.35 29.8101 324 29.9501C324.39 30.0401 324.74 30.1201 325.08 30.2001C289.77 46.3301 297.1 76.8101 298.23 80.7401V80.7501Z" fill="white"/>
<path d="M334.01 63.55V88.2901H142.87C142.87 88.2901 153.01 87.06 153.28 80.75H309.99C326.4 80.75 331.16 73.77 334.01 63.55Z" fill="white"/>
<path d="M43.59 183.59C41.49 181.49 38.64 179.88 34.99 178.77V183.72C35.3 184.21 35.67 184.77 36.04 185.39C37.4 187.62 38.39 189.72 39.07 191.82C39.63 193.49 40.55 194.54 41.91 194.97C43.15 195.34 44.26 195.16 45.25 194.35C46.3 193.42 46.86 192.06 46.86 190.27C46.8 187.92 45.68 185.69 43.58 183.59H43.59ZM48.17 168.44C45.82 166.03 44.27 164.73 43.47 164.48C42.67 164.29 41.68 165.04 40.62 166.71C39.32 168.5 38.39 169.62 37.71 170.11C37.15 170.48 36.23 170.67 34.99 170.73V173.76C36.17 173.7 38.08 173.7 40.8 173.7C44.88 173.7 47.54 173.58 48.78 173.39C50.26 173.14 50.94 172.65 50.82 171.91C50.7 171.35 49.83 170.24 48.16 168.45L48.17 168.44ZM43.84 125.7L43.78 125.58C42.6 124.78 41.8 124.47 41.37 124.65C40.94 124.9 39.95 126.07 38.4 128.3C38.28 128.55 38.15 128.67 38.09 128.86C37.35 129.79 36.48 130.47 35.49 130.84C34.56 131.15 33.63 131.09 32.71 130.59C31.84 130.16 31.41 128.73 31.47 126.45C31.47 124.16 31.96 122.74 32.95 122.18C35.24 120.94 32.39 119.34 24.54 117.48C23.18 117.11 22.44 117.05 22.19 117.17C22 117.29 21.94 118.04 22.13 119.33V119.45C22.56 124.09 22.69 127 22.44 128.23C21.95 129.9 20.52 130.83 18.17 131.01C16.5 131.13 12.42 130.95 6.05001 130.39H5.56001C4.88001 130.39 5.00001 131.32 6.05001 133.23C6.54001 134.16 6.92001 134.78 7.16001 134.9C7.35001 135.09 7.84001 135.15 8.64001 135.09C9.88001 135.03 10.74 135.15 11.36 135.46C11.92 135.77 12.41 136.33 12.78 137.19C13.46 138.74 14.14 140.84 14.76 143.37C15.38 145.91 15.81 148.13 15.94 149.99C15.94 150.24 16 150.48 16.06 150.73H22.93C24.48 146.96 22.99 142.81 18.35 138.3C16.93 136.94 16.19 135.95 16.06 135.52C15.87 134.96 16.49 134.53 17.73 134.34C18.78 134.22 21.01 134.15 24.53 134.15H24.65C28.05 134.15 30.15 134.27 31.02 134.52C32.2 134.95 32.75 136 32.69 137.67C32.69 138.91 32.26 141.81 31.39 146.33C31.02 148.25 30.77 149.73 30.46 150.72H34.67C35.04 150.1 35.6 149.3 36.28 148.43C36.65 147.81 37.39 146.76 38.51 145.28C39.31 144.1 39.81 143.3 40.12 142.87C41.42 140.89 42.53 139.65 43.46 139.16C44.02 138.79 44.33 138.48 44.26 138.17C44.2 137.92 43.7 137.55 42.84 137.06C40.86 136.01 40.06 135.27 40.43 134.83C40.74 134.34 42.29 134.09 44.95 134.03C48.29 133.97 49.84 133.29 49.65 131.99C49.46 130.69 47.55 128.59 43.84 125.68V125.7Z" fill="white"/>
<path d="M83.79 203.38C83.91 206.84 83.98 208.95 83.98 209.63C83.98 210.25 83.79 210.74 83.49 210.99C82.56 211.98 81.08 212.72 79.1 213.28C77.12 213.84 75.64 213.9 74.59 213.4C73.91 213.15 73.54 212.72 73.41 212.16C73.35 211.6 73.41 209.81 73.6 206.72C73.97 199.98 74.22 190.33 74.34 177.78C74.4 168.94 74.4 163.06 74.22 160.09H83.68C83.68 160.28 83.62 160.52 83.62 160.77C83.56 162.19 83.5 165.59 83.5 170.98V177.23C83.5 189.91 83.62 198.63 83.81 203.39L83.79 203.38Z" fill="white"/>
<path d="M94.86 154.95C94.8 155.94 92.94 156.5 89.17 156.56H87.44C86.57 156.5 70.18 156.56 68.51 156.56H67.58C67.27 156.56 67.02 156.56 66.78 156.62V153.65H72.78C76.12 153.59 78.16 153.4 78.9 153.16C79.64 152.85 80.63 151.92 81.74 150.31C81.93 150.06 82.11 149.82 82.17 149.69C82.23 149.57 82.36 149.38 82.54 149.13C83.9 147.15 84.83 146.1 85.39 146.04C85.95 145.98 87.12 146.72 89.04 148.33C89.23 148.52 89.35 148.7 89.41 148.76C93.06 151.85 94.85 153.96 94.85 154.94L94.86 154.95Z" fill="white"/>
<path d="M28.68 160.52C30.97 161.45 32.33 162.07 32.76 162.44C33.19 162.87 33.13 163.31 32.51 163.8C31.71 164.54 31.15 165.28 31.03 166.09C30.78 166.77 30.78 167.51 31.03 168.25V187.79C30.97 191.32 31.15 196.88 31.4 204.55C31.52 207.58 31.59 209.37 31.59 209.93C31.59 210.42 31.47 210.8 31.22 211.11C30.35 212.1 28.87 212.84 26.89 213.27C24.85 213.76 23.43 213.76 22.62 213.27C22.13 213.02 21.88 212.59 21.82 212.03C21.76 211.47 21.76 210.24 21.88 208.26C22.19 205.17 22.31 201.52 22.25 197.37C22.25 193.23 22.06 191.06 21.82 190.75C21.45 190.44 21.02 190.38 20.52 190.69C19.96 191 18.91 191.99 17.43 193.66C15.14 196.2 12.54 198.73 9.64001 201.27C6.67001 203.87 4.94001 205.17 4.44001 205.17C3.76001 205.17 3.51001 204.92 3.64001 204.37C3.83001 203.88 4.38001 203.01 5.31001 201.83C8.96001 197.44 12.3 192 15.39 185.44C18.48 178.95 19.47 175.17 18.36 174.18C17.99 173.87 16.81 173.69 14.83 173.69C12.85 173.75 11 173.94 9.26001 174.31C9.14001 174.31 8.95001 174.31 8.64001 174.43C7.53001 174.68 6.78001 174.74 6.54001 174.68C6.29001 174.56 5.92001 174.06 5.43001 173.26C5.37001 173.07 5.31001 172.89 5.24001 172.83C4.62001 171.65 4.25001 170.91 4.19001 170.54C4.13001 170.23 4.31001 170.05 4.81001 170.05C5.00001 170.11 6.11001 170.24 8.15001 170.36C13.41 170.73 16.87 170.85 18.48 170.67C20.52 170.36 21.7 169.49 22.13 168.07C22.44 166.89 22.38 164.42 21.88 160.65C21.69 159.17 21.88 158.55 22.44 158.79C22.69 158.85 26.03 159.47 28.69 160.52H28.68Z" fill="white"/>
<path d="M26.95 157.61C28.68 157.55 48.78 157.3 49.9 157.24C51.07 157.24 51.76 157.12 52.06 156.87C52.8 156.31 53.24 156.44 53.48 157.12C53.73 157.86 53.85 159.66 53.85 162.5C53.85 173.38 52.74 182.6 50.51 190.33C48.28 198 44.76 204.68 40 210.37C39.2 211.36 38.7 211.98 38.58 212.29C38.46 212.54 38.52 212.85 38.7 213.09C39.32 213.71 41.24 212.66 44.45 209.94C47.67 207.16 50.39 204.31 52.55 201.4C55.89 196.76 58.3 191.69 59.79 186.25C61.27 180.81 62.2 173.7 62.57 165.04C62.57 165.04 62.76 146.73 62.76 145.43V140.61C62.76 137.27 62.76 135.23 62.88 134.36C63 133.06 63.37 132.2 63.99 131.89C64.3 131.58 65.23 131.33 66.71 131.02C67.02 130.96 67.27 130.9 67.39 130.9C73.27 129.91 78.83 128.55 84.09 126.94C85.95 126.32 87.55 126.01 88.91 126.01C90.77 125.95 91.45 125.52 91.07 124.71C90.64 123.91 88.78 122.11 85.5 119.33L85.38 119.27C84.02 118.22 83.15 117.6 82.78 117.54C82.41 117.42 81.79 117.73 80.92 118.41C78.63 120.14 75.54 122.18 71.58 124.59C67.62 126.94 65.21 128.18 64.34 128.3C63.35 128.61 61.06 128.05 57.6 126.63C57.41 126.57 57.23 126.51 56.98 126.44C54.94 125.7 53.76 125.33 53.46 125.39C53.15 125.45 53.03 126.07 53.15 127.18C53.21 127.37 53.21 127.55 53.21 127.67C53.64 131.57 53.83 137.44 53.83 145.3C53.77 149.2 53.71 151.61 53.64 152.6C53.52 153.9 53.21 154.58 52.84 154.46C52.47 154.4 51.73 153.78 50.49 152.6C48.33 150.44 46.9 149.14 46.22 148.64C45.29 147.96 44.55 147.71 43.93 148.02C43.44 148.27 42.69 149.13 41.7 150.49C40.52 152.28 39.66 153.33 39.04 153.83C38.48 154.26 37.56 154.45 36.32 154.45C35.89 154.45 31.06 154.42 25.91 154.39C19.97 154.35 13.6 154.3 13.07 154.27C8.56001 154.27 5.46001 154.08 3.79001 153.78C3.30001 153.72 3.11001 153.84 3.17001 154.15C3.23001 154.46 3.54001 155.2 4.10001 156.38C4.16001 156.44 4.22001 156.57 4.29001 156.69C4.78001 157.74 5.16001 158.3 5.47001 158.48C5.78001 158.6 6.58001 158.54 7.94001 158.36C8.31001 158.3 8.62001 158.24 8.81001 158.24C16.23 157.25 26.37 157.65 26.93 157.62L26.95 157.61Z" fill="white"/>
<path d="M215.04 168.44C212.26 164.42 208.36 160.77 203.47 157.49C196.05 152.73 193.88 152.36 196.98 156.44C200.26 160.83 203.41 165.96 206.32 171.84C209.29 177.72 210.71 181.86 210.71 184.21C210.71 184.58 211.02 185.01 211.64 185.51C212.26 186 212.82 186.38 213.37 186.5C215.1 187.06 216.52 186.75 217.64 185.57C218.75 184.4 219.31 182.6 219.25 180.13C219.25 176.42 217.83 172.52 215.04 168.44ZM153.32 156.07C152.83 155.95 151.59 155.45 149.55 154.59C148.87 154.4 148.37 154.22 148.07 154.1C146.21 153.3 145.1 152.92 144.67 152.86C144.24 152.74 143.99 152.92 143.99 153.35C143.99 154.71 143.5 157.43 142.51 161.45C141.52 165.41 140.47 168.87 139.36 171.72C137.26 176.91 134.41 182.17 130.7 187.43C130.14 188.23 129.83 188.73 129.77 188.98C129.71 189.23 129.77 189.41 130.08 189.66C130.33 189.85 130.7 189.78 131.19 189.54C131.62 189.29 132.61 188.55 134.1 187.38C140.9 181.81 146.65 174.08 151.42 164.19C152.97 161.04 154.14 159.24 154.95 158.87C156 158.38 156.43 157.94 156.19 157.51C156 157.14 155.01 156.64 153.34 156.09L153.32 156.07ZM219.87 138.44C219.5 137.76 217.89 136.15 215.11 133.74C214.92 133.68 214.8 133.55 214.62 133.31C212.02 131.15 210.41 130.09 209.73 130.09C209.05 130.09 207.94 131.14 206.39 133.31C206.27 133.56 206.14 133.68 206.08 133.74C205.89 133.99 205.65 134.36 205.4 134.79C204.29 136.34 203.3 137.2 202.43 137.45C201.5 137.7 198.9 137.82 194.64 137.82H188.52C185.12 137.82 183.02 137.76 182.15 137.57C180.85 137.45 180.05 136.95 179.8 136.15C179.55 135.59 179.43 134.23 179.49 132.07V130.09C179.49 126.81 179.61 124.77 179.74 123.91C179.93 123.11 180.36 122.43 181.1 121.93C182.09 121.31 181.9 120.69 180.61 119.95C179.31 119.27 176.65 118.47 172.63 117.48C172.44 117.42 172.14 117.36 171.83 117.29C170.41 116.92 169.6 116.86 169.42 116.98C169.17 117.17 169.17 117.91 169.3 119.27C169.36 119.46 169.42 119.64 169.42 119.76C169.79 123.66 170.1 127.92 170.22 132.5C170.22 134.29 170.16 135.47 170.03 135.96C169.84 136.52 169.54 136.95 168.98 137.26C168.42 137.63 162.24 137.75 150.36 137.69C138.55 137.63 131.87 137.44 130.38 137.07C129.89 137.01 129.7 137.13 129.7 137.5C129.76 137.81 130.01 138.55 130.57 139.54C131.19 140.72 131.62 141.4 131.87 141.58C132.18 141.77 132.8 141.77 133.91 141.64H134.22C137.81 141.02 143.19 140.65 150.49 140.59C151.17 140.59 152.1 140.59 153.21 140.53C156.3 140.41 199.47 140.59 205.29 140.53H206.03C212.15 140.41 215.99 140.34 217.53 140.16C219.57 139.91 220.31 139.29 219.88 138.43L219.87 138.44ZM182.58 171.65C182.58 190.7 182.39 200.53 182.15 200.97C181.66 201.77 180.98 202.21 179.99 202.33C179.12 202.39 176.84 202.33 173.06 202.14C168.98 201.89 166.94 201.83 166.88 202.02C166.63 202.39 166.63 202.64 167 202.89C167.31 203.08 168.05 203.32 169.16 203.63C175.34 204.99 178.38 207.96 178.38 212.47C178.38 213.15 178.69 213.52 179.31 213.58C179.93 213.7 181.17 213.46 183.02 212.96C185.74 212.28 187.72 211.23 188.96 209.74C190.2 208.26 191 206.15 191.37 203.31C191.49 201.45 191.56 191.06 191.56 172.01V165.21C191.56 153.4 191.56 146.47 191.62 144.49V144.3H182.4C182.59 148.32 182.65 157.41 182.59 171.64L182.58 171.65ZM170.52 148.33C170.58 146.6 170.64 145.3 170.77 144.31H161.31C161.43 145.61 161.37 147.59 161.31 150.43C161.25 151.73 161.19 152.78 161.19 153.52C160.82 168.61 158.84 180.36 155.31 188.84C151.85 197.31 145.85 204.67 137.44 210.98C136.57 211.6 136.08 212.03 136.02 212.28C135.96 212.47 136.08 212.77 136.45 213.21C136.76 213.52 137.13 213.64 137.5 213.52C137.87 213.33 138.98 212.72 140.9 211.6C151.54 205.48 158.96 197.99 163.23 189.03C167.5 180.12 169.91 166.95 170.53 149.51V148.33H170.52Z" fill="white"/>
<path d="M329.78 202.45C319.14 202.45 313.02 202.39 311.41 202.26C309.55 202.01 307.82 201.95 306.15 201.95C299.72 201.76 293.97 200.77 288.77 198.8C286.67 198 284.56 196.88 282.52 195.58C280.48 194.22 279.12 193.11 278.44 192.24C277.94 191.56 277.76 190.88 277.88 190.2C278 189.52 278.44 188.04 279.36 185.75C281.46 180.25 283.19 173.75 284.37 166.14C284.74 163.79 285.05 162.24 285.42 161.56C285.67 161 287.78 157.74 287.78 157.74C287.78 157.74 284.99 154.32 283.38 152.9C281.9 151.66 280.91 151.04 280.47 151.11C279.98 151.11 278.99 151.91 277.5 153.52C276.45 154.7 275.58 155.44 275.03 155.81C274.47 156.12 273.73 156.18 272.74 156.06C271.5 156 270.88 155.44 271.01 154.45C271.07 153.4 272 150.99 273.67 147.09C275.09 143.94 276.58 140.47 278.25 136.64C279.3 134.1 280.11 132.43 280.54 131.82C281.03 131.14 281.78 130.58 282.89 130.21C284.31 129.65 284.99 129.1 284.93 128.6C284.93 128.04 284.13 126.99 282.58 125.51C279.92 122.91 278.19 121.49 277.32 121.24C276.45 121.05 275.34 121.67 274.1 123.22C272.93 124.58 271.5 125.45 269.83 125.69C268.16 126 264.76 125.88 259.63 125.5H259.01C257.4 125.38 256.47 125.38 256.29 125.5C256.1 125.62 256.17 126.12 256.6 127.05C256.66 127.24 256.72 127.42 256.79 127.54C256.85 127.6 256.98 127.79 257.1 128.1C257.66 129.15 258.03 129.71 258.28 129.89C258.47 130.01 259.15 129.95 260.14 129.64C260.45 129.64 260.7 129.64 260.82 129.58C264.1 128.84 266.63 128.65 268.49 128.9C270.35 129.09 271.21 129.77 271.03 130.88C270.97 131.62 269.61 135.33 266.89 142.07C264.23 148.75 261.76 154.69 259.41 159.88C258.79 161.55 258.42 162.54 258.42 162.85C258.42 163.16 258.79 163.47 259.41 163.78C261.51 164.46 263.12 164.65 264.23 164.4C265.34 164.21 266.27 163.47 266.89 162.3C267.63 160.82 268.31 159.95 268.87 159.58C269.49 159.21 270.54 159.09 272.09 159.09C274.19 159.09 275.37 159.46 275.74 160.27C276.05 161.07 275.99 163.36 275.49 167.2C274.62 174.19 273.76 178.58 272.83 180.5C271.9 182.42 270.85 182.05 269.68 179.39C268.13 176.05 267.21 173.7 266.96 172.28C266.71 170.86 267.02 169.62 267.76 168.57C268.56 167.39 268.69 166.71 268.25 166.47C266.89 165.91 266.09 165.73 265.78 165.79C265.53 165.91 265.29 166.59 264.98 167.77C264.55 169.81 261.7 173.27 256.51 178.1L256.39 178.16C255.77 178.78 255.46 179.27 255.59 179.58C255.65 179.89 256.27 180.76 257.45 182.12L257.64 182.37C258.94 183.85 259.74 184.72 260.05 184.84C260.42 184.96 260.54 184.59 260.54 183.73C260.54 182.99 261.1 181.63 262.09 179.52C263.08 177.42 263.88 176.12 264.44 175.56C265.06 174.94 265.55 174.76 265.8 175C266.11 175.25 266.48 176.18 266.91 177.72C267.28 178.71 267.9 180.57 268.77 183.29C269.57 185.39 270.01 186.57 270.07 186.82C270.75 188.8 269.82 192.2 267.22 197.15C264.62 202.1 261.47 206.43 257.82 210.08C256.34 211.63 255.66 212.62 255.72 212.99C255.97 214.04 258.07 212.99 262.03 209.84C265.99 206.69 269.08 203.53 271.31 200.5C272.98 198.21 274.15 197.04 274.84 197.04C275.46 196.98 276.82 198.09 278.98 200.32C283.49 204.96 289 207.99 295.49 209.47C301.92 210.95 313.12 211.63 329.01 211.63H331.36C336.37 211.63 339.28 211.63 340.08 211.51C340.95 211.39 341.38 211.02 341.44 210.4V210.21C341.63 209.03 342.06 207.8 342.86 206.62C343.66 205.38 344.53 204.52 345.52 204.02C346.51 203.53 346.88 203.09 346.63 202.66C346.57 202.54 340.94 202.47 329.81 202.47L329.78 202.45ZM343.63 137.7C342.08 136.03 341.09 135.23 340.6 135.23C340.17 135.11 339.42 135.85 338.5 137.39C336.09 141.16 334.85 140.91 334.85 136.65C334.85 134.49 335.34 133.12 336.27 132.57C337.82 131.7 338.37 130.78 338 129.79C337.57 128.8 335.96 127.19 333.05 124.9C331.44 123.54 330.39 122.92 329.9 122.92C329.47 122.98 328.72 123.72 327.67 125.08C326.49 126.69 324.76 127.8 322.47 128.42C320.12 129.04 318.14 128.91 316.47 128.11C315.48 127.62 315.05 126.69 315.05 125.26C315.11 123.9 315.61 122.85 316.53 122.23C317.46 121.55 317.33 120.87 316.04 120.13C314.74 119.39 312.14 118.46 308.25 117.35C306.89 117.04 306.15 116.92 305.96 116.98C305.71 117.1 305.65 117.66 305.71 118.71C306.45 124.34 306.08 127.49 304.6 128.11C304.11 128.36 302.13 128.48 298.72 128.42C295.32 128.36 292.35 128.11 289.94 127.8C288.89 127.68 288.27 127.68 288.21 127.92C288.15 128.11 288.46 128.85 289.14 130.21C289.2 130.33 289.33 130.52 289.45 130.7C289.88 131.69 290.19 132.25 290.44 132.37C290.75 132.49 291.49 132.43 292.67 132.18C293.04 132.18 293.29 132.12 293.47 132.06C295.45 131.69 297.74 131.5 300.27 131.38C302.81 131.26 304.35 131.38 304.85 131.63C305.84 132.19 306.33 133.86 306.27 136.64C306.27 139.42 305.71 141.09 304.72 141.65C304.29 141.84 301.75 141.96 297.05 141.84C292.29 141.84 288.58 141.78 285.92 141.53C285.43 141.47 284.81 141.47 284 141.47C282.89 141.28 282.27 141.28 282.08 141.35C281.83 141.35 281.77 141.47 281.77 141.66C281.65 141.85 281.96 142.65 282.76 144.07C282.82 144.13 282.88 144.26 282.95 144.5C283.44 145.3 283.88 145.8 284.31 145.86C284.68 145.98 285.92 145.92 288.02 145.61C288.45 145.55 288.76 145.49 288.95 145.49C291.3 145.18 294.39 145 298.29 144.87C302.19 144.81 304.35 144.93 304.85 145.18C305.84 145.74 306.33 147.47 306.27 150.31C306.27 153.16 305.71 154.89 304.72 155.44C304.23 155.69 301.87 155.81 297.61 155.69C293.4 155.57 290.37 155.38 288.64 155.01C288.21 154.89 288.02 154.95 288.02 155.32C288.23 156.03 289.5 159.03 289.94 159.46C290.13 159.71 290.37 159.77 290.68 159.77C290.93 159.77 291.79 159.65 293.22 159.4C295.2 159.03 297.55 158.78 300.15 158.72C302.81 158.6 304.36 158.66 304.85 158.97C305.84 159.53 306.33 161.26 306.27 164.1C306.27 166.95 305.71 168.62 304.72 169.17C304.23 169.48 301.75 169.54 297.3 169.42C292.79 169.36 289.63 169.11 287.71 168.74C286.84 168.55 286.84 169.42 287.71 171.28C287.77 171.4 287.83 171.53 287.96 171.71C288.33 172.76 288.7 173.32 289.01 173.44C289.32 173.5 290.19 173.44 291.67 173.25C291.86 173.19 292.04 173.13 292.16 173.13C294.32 172.82 296.86 172.57 299.77 172.45C302.68 172.39 304.35 172.45 304.84 172.76C305.83 173.32 306.32 174.99 306.26 177.89C306.26 180.8 305.7 182.47 304.71 183.02C304.15 183.39 301.56 183.51 296.92 183.45C292.28 183.39 288.32 183.2 285.11 182.83C283.93 182.71 283.32 182.71 283.25 182.77C283.13 182.89 283.37 183.64 283.99 185C284.61 186.36 285.04 187.17 285.29 187.54C285.41 187.66 286.47 187.6 288.44 187.23C291.66 186.74 295.06 186.43 298.65 186.36C302.24 186.24 304.34 186.36 304.96 186.73C305.58 187.1 306.01 187.97 306.14 189.2C306.26 190.44 306.2 192.66 305.95 195.88C305.7 198.11 306.01 199.47 306.75 200.02C307.49 200.58 308.91 200.51 311.08 199.71C313.12 198.97 314.3 198.29 314.67 197.61C315.04 196.99 315.16 195.51 315.04 193.16C315.04 192.73 314.98 192.17 314.92 191.49C314.8 189.82 314.73 137.93 314.73 136.88C314.67 134.16 315.1 132.49 316.03 131.87C316.46 131.5 317.95 131.31 320.61 131.19C323.08 131.19 324.57 131.38 325.12 131.62C326.05 132.24 326.48 133.97 326.42 136.69C326.36 139.41 325.86 141.08 324.94 141.51C324.38 141.82 322.96 141.94 320.61 141.94H319V144.85C319.49 144.85 319.99 144.79 320.61 144.79C323.08 144.79 324.57 144.91 325.12 145.16C326.05 145.84 326.48 147.51 326.42 150.36C326.36 153.14 325.86 154.81 324.94 155.31C324.38 155.56 322.96 155.74 320.61 155.74H319V158.46C320.55 158.27 322.09 158.34 323.64 158.65C325.43 159.14 326.36 159.89 326.36 160.81C326.36 161.37 326.42 161.74 326.67 161.86C326.86 161.98 327.41 162.11 328.28 162.11C329.95 162.11 330.82 162.36 330.82 162.79C330.82 163.16 330.2 164.15 329.09 165.82C327.91 167.49 327.17 168.54 326.74 168.85C326.25 169.22 324.51 169.41 321.61 169.47H319.01V172.56C320.37 172.44 322.54 172.37 325.44 172.37H327.85C332.43 172.31 335.4 172.31 336.69 172.31C338.36 172.25 339.41 172.06 339.91 171.88C340.22 171.76 340.47 171.39 340.53 170.83C340.59 170.27 339.85 169.22 338.37 167.68C336.89 166.07 335.28 164.71 333.55 163.54C332.38 162.86 331.82 162.43 331.82 162.18C331.82 162.06 332.13 161.69 332.81 161.13C333.43 160.57 333.92 160.2 334.23 160.02C334.72 159.71 335.03 159.4 335.1 158.97C335.22 158.54 335.22 157.42 335.04 155.51C334.79 151.61 334.73 149.14 334.85 148.15C334.97 146.67 335.47 145.74 336.4 145.3C337.02 145.11 338.63 144.99 341.1 144.87H341.35C345.31 144.75 347.41 144.25 347.72 143.45C347.97 142.58 346.61 140.67 343.64 137.7H343.63ZM337.51 178.09C335.84 176.79 334.85 176.23 334.42 176.3C333.99 176.36 333.12 177.23 331.82 178.9L331.7 179.09C331.64 179.28 331.58 179.4 331.45 179.65C330.03 181.57 328.91 182.74 328.23 183.05C327.55 183.36 325.76 183.48 322.91 183.48H322.11C320.93 183.48 319.88 183.48 319.02 183.42V186.57C320.44 186.45 322.73 186.38 325.95 186.38H329.48C336.53 186.32 340.61 186.26 341.85 186.13C343.09 186.01 343.71 185.7 343.89 185.02C344.2 183.97 342.1 181.62 337.52 178.09H337.51Z" fill="white"/>
<path d="M422.25 136.21C421.14 134.91 419.65 133.61 417.8 132.25C416.56 131.32 415.7 130.89 415.33 130.95C414.9 131.07 414.09 131.94 412.98 133.61C412.86 133.86 412.67 134.1 412.49 134.48C411.5 135.84 410.57 136.64 409.58 136.89C408.59 137.14 405.75 137.2 400.92 137.08H398.01C390.34 137.08 385.7 136.96 384.16 136.77H383.54C382.24 136.65 381.56 136.58 381.5 136.71C381.38 136.83 381.62 137.51 382.18 138.75C382.74 139.99 383.17 140.79 383.48 141.16C383.6 141.28 383.85 141.35 384.16 141.28C384.47 141.28 385.71 141.09 387.69 140.72C388.93 140.41 390.41 140.29 392.14 140.29C393.69 140.23 398.26 140.17 405.87 140.1H406.3C414.65 140.04 419.54 139.98 421.02 139.85C422.44 139.79 423.31 139.48 423.62 138.86C423.87 138.37 423.43 137.44 422.26 136.2L422.25 136.21ZM395.16 182.84C395.28 181.73 395.78 181.05 396.58 180.86C397.14 180.67 398.44 180.55 400.41 180.55H403.32V177.58C402.7 177.64 402.02 177.64 401.22 177.64H400.11C397.7 177.64 396.09 177.52 395.29 177.39C394.49 177.2 392.82 176.52 390.34 175.41C389.91 175.22 389.6 175.04 389.29 174.92C387.25 173.93 386.01 173.44 385.76 173.44C385.51 173.44 385.51 174.86 385.88 177.71C386.19 181.92 386.37 186.86 386.5 192.68C386.56 198.68 386.44 203.81 386.19 207.96C386 209.94 386 211.18 386.13 211.67C386.25 212.23 386.56 212.6 387.18 212.78C388.05 213.03 389.34 212.97 391.01 212.47C392.68 211.98 393.85 211.36 394.53 210.61C394.9 210.18 395.09 209.13 395.09 207.46C395.15 205.42 395.46 204.24 396.02 203.87C396.58 203.5 398.43 203.31 401.52 203.31C402.2 203.31 402.76 203.31 403.31 203.37V200.34H400.34C398.3 200.34 397 200.28 396.44 200.03C395.7 199.78 395.26 199.1 395.08 197.99C394.89 197.12 394.83 195.21 394.83 192.11V188.46C394.83 185.55 394.95 183.7 395.14 182.83L395.16 182.84ZM417.61 176.59C415.14 174.18 413.47 172.76 412.54 172.45C411.67 172.14 410.75 172.64 409.76 173.87L409.64 173.99C408.71 175.23 407.91 176.15 407.29 176.65C407.29 176.65 407.72 182.34 407.85 182.96C407.97 183.76 408.04 185.74 408.04 188.9V190.57C408.04 194.9 407.92 205.54 407.85 206.84C407.85 209.75 410.08 210.12 414.47 207.89C415.77 207.33 416.51 206.78 416.7 206.28C416.82 205.72 416.89 204.18 416.7 201.52C416.33 193.97 416.27 188.9 416.45 186.18C416.7 183.46 417.38 181.85 418.55 181.29C419.66 180.73 420.22 180.18 420.1 179.68C420.04 179.12 419.17 178.13 417.63 176.59H417.61ZM418.1 151.23C417.79 150.49 416.43 149.07 414.08 147.09C412.35 145.54 411.17 144.8 410.62 144.8C410.13 144.8 409.32 145.48 408.33 146.84C407.03 148.76 406.04 149.87 405.36 150.18C404.68 150.55 403.26 150.74 401.03 150.74C395.96 150.74 391.63 150.49 387.98 150.12C386.87 149.93 386.19 149.93 386.06 150.12C385.94 150.24 386.18 150.99 386.8 152.41C387.48 153.77 387.91 154.57 388.16 154.7C388.35 154.82 389.27 154.76 390.94 154.45C394.22 153.89 399.72 153.58 407.52 153.52C412.03 153.46 415 153.27 416.36 153.03C418.03 152.72 418.59 152.16 418.09 151.24L418.1 151.23ZM416.55 162.92C415.37 161.56 413.95 160.26 412.22 159.09C411.17 158.29 410.43 157.98 410.06 158.1C409.69 158.16 409.01 159.03 407.9 160.51C406.54 162.49 405.43 163.6 404.5 163.85C403.88 164.1 401.16 164.1 396.34 163.97C391.52 163.85 388.36 163.6 386.82 163.35C386.26 163.23 386.14 163.66 386.39 164.77C386.64 165.82 387.26 166.93 388.12 168.05C388.31 168.24 389.05 168.24 390.35 168.05C394.25 167.43 399.75 167.06 406.8 167C412.06 166.94 415.15 166.81 416.08 166.75C417.01 166.63 417.63 166.32 417.94 165.76C418.19 165.27 417.75 164.34 416.58 162.92H416.55ZM412.84 119.25C411.6 118.26 410.74 117.83 410.3 117.95C409.87 118.01 409.19 118.75 408.32 120.05C406.9 122.09 405.85 123.27 405.23 123.64C404.61 124.01 403.19 124.26 401.02 124.26C396.38 124.26 392.18 124.01 388.4 123.58C387.22 123.46 386.61 123.46 386.48 123.58C386.29 123.77 386.54 124.51 387.22 125.87C387.84 127.29 388.33 128.03 388.58 128.22C388.7 128.28 389.01 128.28 389.51 128.28C393.78 127.54 400.02 127.1 408.06 126.92C414.49 126.86 417.96 126.43 418.51 125.56C419.07 124.69 417.15 122.59 412.82 119.25H412.84ZM470.98 203.3C464.11 201.26 458.24 198.79 453.41 195.88C453.22 195.76 453.04 195.63 452.85 195.51L446.11 201.63C449.88 205.22 454.83 208.56 460.89 211.59C461.01 211.71 461.26 211.78 461.57 211.9C463.36 212.83 464.42 213.32 464.79 213.32C465.16 213.38 465.47 213.01 465.72 212.33C467.27 208.74 469.55 206.39 472.52 205.34C473.45 205.09 473.82 204.78 473.63 204.47C473.44 204.16 472.52 203.73 470.97 203.29L470.98 203.3ZM451.87 189.08C454.16 186.05 456.08 183.14 457.56 180.42C458.18 179.31 459.35 176.96 461.09 173.37C461.52 172.5 461.83 171.82 462.02 171.39C462.89 169.29 463.81 168.24 464.86 168.24C467.64 168.24 467.15 166.38 463.31 162.61C460.96 160.26 459.41 159.02 458.73 158.84C457.99 158.72 456.94 159.4 455.45 160.94C454.83 161.62 454.27 162.18 453.78 162.55L451.86 168.61V169.48C451.74 170.96 450.68 173.81 448.64 178.08C446.6 182.29 445.11 184.88 444.19 185.87C443.08 186.98 441.28 186.3 438.99 183.77C436.64 181.3 434.41 177.65 432.25 172.95C432.19 172.89 432.13 172.76 432.06 172.64C431.13 170.54 430.64 169.24 430.64 168.68C430.7 167.88 431.44 167.44 432.87 167.2C433.92 167.08 436.58 167.01 440.79 167.01H441.35C444.69 167.01 446.92 167.01 448.22 167.07L449.21 163.98C447.05 164.1 443.71 164.17 439.25 164.1C431.33 164.1 425.46 163.91 421.44 163.54C420.51 163.48 420.02 163.54 419.96 163.79C419.9 163.98 420.21 164.72 420.95 166.08C421.57 167.19 421.94 167.81 422.13 168C422.32 168.19 422.62 168.12 423.18 167.81C424.6 167.07 425.84 166.88 426.89 167.32C427.94 167.75 428.62 168.68 428.93 170.1C430.72 177.52 433.2 183.95 436.54 189.4C437.65 191.38 438.15 192.68 438.02 193.42C437.83 194.16 436.78 195.52 434.8 197.56C429.67 202.82 423.42 207.27 416.12 210.8C414.7 211.54 413.77 212.1 413.4 212.35C413.03 212.66 412.97 212.91 413.28 213.22C413.96 214.02 417.42 213.03 423.79 210.19C430.1 207.35 435.29 204.44 439.38 201.41C440.07 200.93 443 198.71 445.71 196.05C448.59 193.23 451.27 189.96 451.87 189.1V189.08ZM471.72 147.27C471.1 146.71 470.67 145.79 470.42 144.42C470.23 143.06 470.11 140.71 470.11 137.49C470.11 135.51 469.99 134.46 469.8 134.21C469.49 133.96 469.24 134.09 469 134.58C468.81 135.14 468.38 136.5 467.89 138.85C466.96 142.81 466.16 145.22 465.42 146.09C464.62 146.96 462.95 147.33 460.41 147.14C459.05 147.08 458.18 146.95 457.87 146.65C457.31 146.28 457 145.41 456.82 143.93C456.76 142.94 456.76 140.59 456.76 136.88C456.76 132.24 456.82 129.52 457.01 128.59C457.2 127.72 457.69 126.98 458.56 126.55C460.48 125.5 458.99 122.96 454.23 119C452.99 118.01 452.19 117.58 451.88 117.64C451.51 117.7 450.77 118.44 449.65 119.87C449.03 120.74 448.47 121.42 447.98 121.91C447.98 121.91 448.29 132.36 448.29 136.14V141.52C448.35 146.72 448.48 149.93 448.78 151.35C449.09 153.21 449.89 154.38 451.07 154.88C452 155.25 454.16 155.44 457.56 155.44H458.86C462.69 155.44 465.54 155.25 467.33 154.95C469.19 154.64 470.55 154.02 471.41 153.16C472.28 152.36 472.77 151.37 472.83 150.19C472.89 148.95 472.52 147.96 471.72 147.28V147.27ZM442.09 123.4C439.93 123.4 438.44 123.28 437.7 123.09C436.9 122.9 435.23 122.22 432.57 121.11C432.38 121.05 432.26 120.99 432.2 120.92C429.42 119.62 427.93 119 427.81 119C427.75 119.06 427.69 122.46 427.5 129.14C427.5 134.46 427.44 137.98 427.31 139.65C427.19 141.32 426.82 143.36 426.32 145.71C425.08 150.78 423.04 155.11 420.14 158.64C419.52 159.38 419.21 159.88 419.15 160.06C419.09 160.25 419.09 160.43 419.27 160.74C419.46 160.99 419.64 161.11 419.89 161.05C420.14 160.99 420.76 160.68 421.75 160.12C426.57 157.09 430.04 153.38 432.33 148.99C434.62 144.6 435.79 138.97 436.04 132.17C436.16 129.08 436.47 127.35 436.97 126.85C437.46 126.36 439.2 126.11 442.17 126.11H444.03V123.33C443.47 123.39 442.85 123.39 442.11 123.39L442.09 123.4Z" fill="white"/>
<path d="M1.34001 249.88C1.75001 250.96 2.22001 251.82 2.77001 252.46C3.72001 253.58 4.90001 254.14 6.32001 254.14C7.09001 254.14 7.75001 253.9 8.30001 253.41C8.86001 252.93 9.14001 252.25 9.14001 251.38C9.14001 250.6 8.86001 249.92 8.30001 249.34C7.93001 248.97 7.16001 248.42 5.98001 247.69L3.93001 246.41C3.31001 246.02 2.82001 245.62 2.45001 245.23C1.77001 244.47 1.43001 243.64 1.43001 242.72C1.43001 241.51 1.83001 240.5 2.64001 239.7C3.45001 238.89 4.51001 238.49 5.84001 238.49C6.39001 238.49 7.05001 238.63 7.82001 238.89C8.59001 239.16 9.03001 239.3 9.14001 239.3C9.44001 239.3 9.64001 239.23 9.76001 239.09C9.87001 238.95 9.96001 238.75 10.02 238.49H10.51L11.04 243.6H10.47C10.08 242.06 9.45001 240.98 8.59001 240.38C7.73001 239.77 6.87001 239.47 6.03001 239.47C5.37001 239.47 4.80001 239.66 4.31001 240.05C3.82001 240.44 3.58001 240.97 3.58001 241.66C3.58001 242.28 3.77001 242.81 4.14001 243.24C4.51001 243.69 5.10001 244.15 5.88001 244.64L7.99001 245.94C9.31001 246.75 10.24 247.5 10.78 248.18C11.31 248.87 11.58 249.68 11.58 250.62C11.58 251.88 11.11 252.93 10.16 253.77C9.21001 254.61 8.00001 255.04 6.52001 255.04C5.78001 255.04 5.00001 254.9 4.19001 254.62C3.38001 254.34 2.92001 254.2 2.80001 254.2C2.52001 254.2 2.33001 254.29 2.23001 254.46C2.13001 254.63 2.07001 254.82 2.04001 255.01H1.51001L0.790009 249.9H1.34001V249.88Z" fill="white"/>
<path d="M25.53 254.27C26.51 254.2 27.14 254.05 27.43 253.83C27.72 253.61 27.86 253.03 27.86 252.11V241.43C27.86 240.55 27.72 239.98 27.43 239.72C27.14 239.47 26.51 239.32 25.53 239.27V238.82H32.63V239.27C31.65 239.32 31.02 239.47 30.73 239.72C30.44 239.97 30.3 240.54 30.3 241.43V252.11C30.3 253.03 30.44 253.61 30.73 253.83C31.02 254.05 31.65 254.2 32.63 254.27V254.72H25.53V254.27Z" fill="white"/>
<path d="M45.42 254.27C46.41 254.17 47.05 253.94 47.33 253.6C47.61 253.25 47.75 252.45 47.75 251.18V240.6L47.42 240.21C47.07 239.8 46.77 239.54 46.52 239.44C46.27 239.34 45.9 239.29 45.41 239.27V238.82H49.51L58.78 250.31V242.33C58.78 241.02 58.58 240.16 58.19 239.77C57.93 239.51 57.36 239.35 56.48 239.27V238.82H62.12V239.27C61.21 239.36 60.6 239.59 60.29 239.94C59.99 240.29 59.83 241.1 59.83 242.35V254.99H59.42L48.8 241.82V251.17C48.8 252.48 48.99 253.34 49.37 253.73C49.62 253.99 50.18 254.16 51.05 254.26V254.71H45.41V254.26L45.42 254.27Z" fill="white"/>
<path d="M98.87 238.83V239.28C98.31 239.26 97.88 239.31 97.6 239.41C97.32 239.51 97.18 239.73 97.18 240.07C97.18 240.17 97.2 240.3 97.25 240.45C97.3 240.6 97.4 240.8 97.57 241.05L101.1 246.23L104.55 240.97C104.69 240.74 104.78 240.56 104.82 240.41C104.86 240.26 104.89 240.15 104.89 240.08C104.89 239.74 104.71 239.51 104.34 239.4C104.12 239.33 103.75 239.29 103.21 239.28V238.83H108.46V239.28C107.98 239.3 107.54 239.45 107.16 239.71C106.57 240.13 105.9 240.89 105.16 242.02L101.61 247.44V252.11C101.61 253.04 101.76 253.62 102.06 253.85C102.36 254.08 103.03 254.22 104.08 254.28V254.73H96.75V254.28C97.84 254.22 98.51 254.06 98.77 253.79C99.03 253.53 99.16 252.87 99.16 251.83V247.66L96.02 243.05C94.93 241.46 94.17 240.45 93.73 240C93.29 239.55 92.76 239.31 92.14 239.28V238.83H98.86H98.87Z" fill="white"/>
<path d="M121.35 254.27C122.33 254.2 122.96 254.05 123.25 253.83C123.54 253.61 123.68 253.03 123.68 252.11V241.43C123.68 240.55 123.54 239.98 123.25 239.72C122.96 239.47 122.33 239.32 121.35 239.27V238.82H128.45V239.27C127.47 239.32 126.84 239.47 126.55 239.72C126.26 239.97 126.12 240.54 126.12 241.43V252.11C126.12 253.03 126.26 253.61 126.55 253.83C126.84 254.05 127.47 254.2 128.45 254.27V254.72H121.35V254.27Z" fill="white"/>
<path d="M170.54 238.93C171.45 239.19 171.97 239.32 172.08 239.32C172.31 239.32 172.52 239.26 172.73 239.13C172.93 239.01 173.07 238.81 173.15 238.54H173.65L173.87 243.93H173.32C173 242.86 172.58 242 172.07 241.34C171.09 240.11 169.76 239.49 168.1 239.49C166.44 239.49 165.05 240.15 163.98 241.48C162.91 242.81 162.38 244.64 162.38 246.97C162.38 249.11 162.94 250.82 164.06 252.1C165.18 253.38 166.6 254.02 168.32 254.02C169.56 254.02 170.71 253.72 171.75 253.13C172.35 252.79 173.01 252.28 173.73 251.61L174.18 252.06C173.65 252.73 172.99 253.32 172.2 253.83C170.86 254.69 169.4 255.12 167.83 255.12C165.25 255.12 163.2 254.3 161.69 252.65C160.29 251.13 159.59 249.22 159.59 246.94C159.59 244.66 160.33 242.64 161.81 241.06C163.37 239.4 165.39 238.56 167.88 238.56C168.75 238.56 169.64 238.69 170.55 238.95L170.54 238.93Z" fill="white"/>
<path d="M190.13 240.61C191.61 239.2 193.42 238.49 195.58 238.49C197.74 238.49 199.57 239.2 201.04 240.62C202.64 242.16 203.44 244.21 203.44 246.77C203.44 249.33 202.61 251.44 200.95 252.98C199.46 254.36 197.67 255.04 195.57 255.04C193.32 255.04 191.45 254.28 189.97 252.75C188.46 251.2 187.71 249.2 187.71 246.76C187.71 244.2 188.51 242.14 190.13 240.59V240.61ZM191.93 252.38C192.92 253.59 194.15 254.19 195.59 254.19C197.03 254.19 198.22 253.6 199.22 252.43C200.23 251.25 200.73 249.37 200.73 246.78C200.73 244.19 200.22 242.27 199.2 241.11C198.18 239.95 196.98 239.36 195.58 239.36C194.18 239.36 192.92 239.96 191.92 241.17C190.92 242.38 190.42 244.25 190.42 246.78C190.42 249.31 190.92 251.17 191.91 252.38H191.93Z" fill="white"/>
<path d="M216.61 254.27C217.6 254.17 218.24 253.94 218.52 253.6C218.8 253.25 218.94 252.45 218.94 251.18V240.6L218.61 240.21C218.26 239.8 217.96 239.54 217.71 239.44C217.46 239.34 217.09 239.29 216.6 239.27V238.82H220.7L229.97 250.31V242.33C229.97 241.02 229.77 240.16 229.38 239.77C229.12 239.51 228.55 239.35 227.67 239.27V238.82H233.31V239.27C232.4 239.36 231.79 239.59 231.48 239.94C231.18 240.29 231.02 241.1 231.02 242.35V254.99H230.61L219.99 241.82V251.17C219.99 252.48 220.18 253.34 220.56 253.73C220.81 253.99 221.37 254.16 222.24 254.26V254.71H216.6V254.26L216.61 254.27Z" fill="white"/>
<path d="M247.23 249.88C247.64 250.96 248.11 251.82 248.66 252.46C249.61 253.58 250.8 254.14 252.21 254.14C252.98 254.14 253.64 253.9 254.19 253.41C254.75 252.93 255.03 252.25 255.03 251.38C255.03 250.6 254.75 249.92 254.19 249.34C253.82 248.97 253.05 248.42 251.87 247.69L249.82 246.41C249.2 246.02 248.71 245.62 248.34 245.23C247.66 244.47 247.32 243.64 247.32 242.72C247.32 241.51 247.72 240.5 248.53 239.7C249.34 238.89 250.4 238.49 251.73 238.49C252.28 238.49 252.94 238.63 253.71 238.89C254.48 239.16 254.92 239.3 255.03 239.3C255.33 239.3 255.53 239.23 255.65 239.09C255.76 238.95 255.85 238.75 255.91 238.49H256.4L256.93 243.6H256.36C255.97 242.06 255.34 240.98 254.48 240.38C253.62 239.77 252.76 239.47 251.92 239.47C251.26 239.47 250.69 239.66 250.2 240.05C249.71 240.44 249.47 240.97 249.47 241.66C249.47 242.28 249.66 242.81 250.03 243.24C250.4 243.69 250.99 244.15 251.77 244.64L253.88 245.94C255.2 246.75 256.13 247.5 256.67 248.18C257.2 248.87 257.47 249.68 257.47 250.62C257.47 251.88 257 252.93 256.05 253.77C255.1 254.61 253.89 255.04 252.41 255.04C251.67 255.04 250.89 254.9 250.08 254.62C249.27 254.34 248.81 254.2 248.69 254.2C248.41 254.2 248.22 254.29 248.12 254.46C248.02 254.63 247.96 254.82 247.93 255.01H247.4L246.68 249.9H247.23V249.88Z" fill="white"/>
<path d="M271.51 238.83H285.09L285.22 242.91H284.65C284.37 241.63 284.01 240.79 283.58 240.41C283.15 240.02 282.23 239.83 280.84 239.83H279.5V252.12C279.5 253.04 279.64 253.62 279.93 253.84C280.22 254.06 280.85 254.21 281.83 254.28V254.73H274.83V254.28C275.85 254.2 276.48 254.03 276.73 253.78C276.98 253.52 277.1 252.88 277.1 251.84V239.83H275.75C274.42 239.83 273.52 240.02 273.04 240.4C272.56 240.78 272.2 241.62 271.96 242.91H271.37L271.51 238.83Z" fill="white"/>
<path d="M297.99 254.27C298.91 254.18 299.49 254.01 299.71 253.73C299.94 253.46 300.05 252.82 300.05 251.83V241.43C300.05 240.59 299.92 240.03 299.67 239.77C299.42 239.51 298.85 239.34 297.99 239.27V238.82H304.64C306.02 238.82 307.18 239 308.1 239.35C309.85 240.01 310.73 241.24 310.73 243.01C310.73 244.2 310.34 245.12 309.56 245.76C308.78 246.4 307.73 246.82 306.39 247.02L311.34 253.11C311.65 253.48 311.95 253.75 312.26 253.92C312.56 254.09 312.95 254.2 313.43 254.25V254.7H309.56L303.55 247.3L302.5 247.36V252.09C302.5 252.98 302.63 253.54 302.9 253.78C303.17 254.02 303.76 254.18 304.66 254.25V254.7H297.99V254.25V254.27ZM306.2 245.95C307.47 245.43 308.11 244.44 308.11 243C308.11 241.56 307.54 240.66 306.4 240.16C305.79 239.89 304.98 239.75 303.97 239.75C303.29 239.75 302.87 239.8 302.72 239.9C302.57 240 302.49 240.23 302.49 240.58V246.49C304.22 246.43 305.45 246.25 306.19 245.95H306.2Z" fill="white"/>
<path d="M332.88 238.83V239.28C331.96 239.34 331.36 239.5 331.09 239.74C330.82 239.99 330.68 240.55 330.68 241.43V249.11C330.68 250.37 330.85 251.35 331.2 252.05C331.84 253.33 333.06 253.97 334.85 253.97C336.81 253.97 338.13 253.31 338.8 252C339.18 251.27 339.36 250.13 339.36 248.6V242.35C339.36 241.05 339.2 240.23 338.89 239.89C338.58 239.56 337.98 239.35 337.11 239.26V238.81H342.67V239.26C341.74 239.36 341.13 239.59 340.85 239.93C340.57 240.28 340.42 241.08 340.42 242.34V248.59C340.42 250.25 340.17 251.54 339.66 252.47C338.72 254.18 336.94 255.04 334.31 255.04C331.68 255.04 329.95 254.2 329.01 252.51C328.5 251.6 328.25 250.41 328.25 248.92V241.42C328.25 240.54 328.12 239.98 327.85 239.74C327.58 239.5 326.99 239.34 326.09 239.27V238.82H332.9L332.88 238.83Z" fill="white"/>
<path d="M366.64 238.93C367.56 239.19 368.07 239.32 368.18 239.32C368.41 239.32 368.62 239.26 368.83 239.13C369.03 239.01 369.17 238.81 369.25 238.54H369.75L369.97 243.93H369.42C369.1 242.86 368.68 242 368.17 241.34C367.19 240.11 365.86 239.49 364.2 239.49C362.54 239.49 361.15 240.15 360.08 241.48C359.01 242.81 358.48 244.64 358.48 246.97C358.48 249.11 359.04 250.82 360.16 252.1C361.28 253.38 362.7 254.02 364.42 254.02C365.66 254.02 366.81 253.72 367.86 253.13C368.46 252.79 369.12 252.28 369.84 251.61L370.29 252.06C369.76 252.73 369.1 253.32 368.31 253.83C366.97 254.69 365.51 255.12 363.94 255.12C361.36 255.12 359.31 254.3 357.8 252.65C356.4 251.13 355.7 249.22 355.7 246.94C355.7 244.66 356.44 242.64 357.92 241.06C359.47 239.4 361.5 238.56 363.99 238.56C364.86 238.56 365.75 238.69 366.66 238.95L366.64 238.93Z" fill="white"/>
<path d="M383.57 238.83H397.15L397.28 242.91H396.71C396.43 241.63 396.07 240.79 395.64 240.41C395.21 240.02 394.29 239.83 392.9 239.83H391.56V252.12C391.56 253.04 391.7 253.62 391.99 253.84C392.28 254.06 392.91 254.21 393.89 254.28V254.73H386.89V254.28C387.91 254.2 388.54 254.03 388.79 253.78C389.04 253.52 389.17 252.88 389.17 251.84V239.83H387.82C386.49 239.83 385.59 240.02 385.11 240.4C384.63 240.78 384.27 241.62 384.03 242.91H383.44L383.58 238.83H383.57Z" fill="white"/>
<path d="M410.16 254.27C411.14 254.2 411.77 254.05 412.06 253.83C412.35 253.61 412.49 253.03 412.49 252.11V241.43C412.49 240.55 412.34 239.98 412.06 239.72C411.77 239.47 411.14 239.32 410.16 239.27V238.82H417.27V239.27C416.29 239.32 415.66 239.47 415.37 239.72C415.08 239.97 414.94 240.54 414.94 241.43V252.11C414.94 253.03 415.08 253.61 415.37 253.83C415.66 254.05 416.29 254.2 417.27 254.27V254.72H410.16V254.27Z" fill="white"/>
<path d="M432.91 240.61C434.39 239.2 436.2 238.49 438.36 238.49C440.52 238.49 442.35 239.2 443.82 240.62C445.42 242.16 446.22 244.21 446.22 246.77C446.22 249.33 445.39 251.44 443.74 252.98C442.26 254.36 440.46 255.04 438.36 255.04C436.11 255.04 434.24 254.28 432.76 252.75C431.25 251.2 430.5 249.2 430.5 246.76C430.5 244.2 431.31 242.14 432.92 240.59L432.91 240.61ZM434.71 252.38C435.7 253.59 436.92 254.19 438.37 254.19C439.82 254.19 441 253.6 442 252.43C443.01 251.25 443.51 249.37 443.51 246.78C443.51 244.19 443 242.27 441.98 241.11C440.96 239.95 439.76 239.36 438.36 239.36C436.96 239.36 435.7 239.96 434.7 241.17C433.7 242.38 433.2 244.25 433.2 246.78C433.2 249.31 433.7 251.17 434.69 252.38H434.71Z" fill="white"/>
<path d="M459.39 254.27C460.38 254.17 461.02 253.94 461.3 253.6C461.58 253.25 461.72 252.45 461.72 251.18V240.6L461.39 240.21C461.04 239.8 460.74 239.54 460.49 239.44C460.24 239.34 459.87 239.29 459.38 239.27V238.82H463.48L472.75 250.31V242.33C472.75 241.02 472.56 240.16 472.16 239.77C471.9 239.51 471.33 239.35 470.45 239.27V238.82H476.09V239.27C475.17 239.36 474.57 239.59 474.26 239.94C473.96 240.29 473.8 241.1 473.8 242.35V254.99H473.39L462.77 241.82V251.17C462.77 252.48 462.96 253.34 463.35 253.73C463.6 253.99 464.16 254.16 465.03 254.26V254.71H459.39V254.26V254.27Z" fill="white"/>
</svg>
