<svg width="485" height="66" viewBox="0 0 485 66" fill="none" xmlns="http://www.w3.org/2000/svg">
<path d="M33.24 48.32H57.93C58.58 48.32 59.68 48.51 59.68 49.81C59.68 51.17 58.51 51.3 57.93 51.3H33.24V59.4C33.24 60.63 33.24 63.48 29.74 63.48C26.24 63.48 26.18 60.69 26.18 59.4V51.3H1.81C1.16 51.3 0 51.11 0 49.81C0 48.51 1.23 48.32 1.81 48.32H26.18V42.42H14.39C9.85 42.42 7.97 40.67 7.97 36.65V25.31C7.97 20.84 10.3 19.54 14.39 19.54H45.37C49.91 19.54 51.79 21.29 51.79 25.31V36.65C51.79 41.06 49.46 42.42 45.37 42.42H33.25V48.32H33.24ZM16.2 7.62003C16.2 6.84003 16.2 3.54004 19.7 3.54004C22.62 3.54004 23.26 5.68003 23.26 7.62003V9.76004H37.06V7.49002C37.06 6.71002 37.06 3.54004 40.49 3.54004C43.34 3.54004 43.92 5.68002 43.92 7.49002V9.76004H57.79C58.44 9.76004 59.6 9.89003 59.6 11.25C59.6 12.61 58.37 12.74 57.79 12.74H43.92V14.49C43.92 16.05 43.53 18.44 40.49 18.44C37.45 18.44 37.06 16.11 37.06 14.49V12.74H23.26V14.36C23.26 16.05 22.74 18.44 19.76 18.44C16.78 18.44 16.2 16.11 16.2 14.36V12.74H1.94C1.29 12.74 0.12 12.55 0.12 11.25C0.12 9.89003 1.35 9.76004 1.94 9.76004H16.2V7.62003ZM44.65 29.39V25.24C44.65 23.1 44.13 22.52 41.93 22.52H17.76C15.56 22.52 15.04 23.1 15.04 25.24V29.39H44.66H44.65ZM15.03 32.31V36.65C15.03 38.79 15.55 39.44 17.75 39.44H41.92C44.19 39.44 44.64 38.79 44.64 36.65V32.31H15.03Z" fill="white"/>
<path d="M66.17 21.0399C67.14 21.0399 71.48 22.8499 75.24 25.0599C78.48 26.9399 79.13 27.7199 79.13 29.3399C79.13 31.5399 77.38 33.0999 75.57 33.0999C74.4 33.0999 73.69 32.7099 72.65 31.2899C70.51 28.4399 69.22 27.0799 65.46 23.7099C65.07 23.3199 64.81 22.9299 64.81 22.5399C64.81 21.5699 65.65 21.0499 66.17 21.0499V21.0399ZM74.27 57.0099C71.74 62.3199 71.03 63.0399 69.28 63.0399C67.4 63.0399 65.52 61.2899 65.52 59.1499C65.52 57.8499 65.97 57.3399 67.4 55.6499C67.72 55.1999 74.01 47.6799 78.94 37.9599C79.2 37.5099 79.65 36.8599 80.37 36.8599C80.89 36.8599 82.05 37.25 82.05 38.42C82.05 39.13 78.1 48.9799 74.27 57.0199V57.0099ZM69.28 4.18994C69.99 4.18994 75.44 6.06992 79.91 8.85992C81.66 9.95992 81.98 10.9299 81.98 11.9699C81.98 14.0399 80.36 15.7299 78.48 15.7299C77.25 15.7299 76.79 15.2799 73.49 11.5799C72.45 10.4099 70.06 8.27994 68.37 6.77994C68.24 6.64994 67.85 6.12993 67.85 5.73993C67.85 4.69993 68.69 4.17993 69.28 4.17993V4.18994ZM80.88 61.0899C80.88 60.5699 81.27 60.1199 81.59 59.7899C85.8 56.1599 87.03 54.0199 88.85 50.7799C89.56 49.4799 90.47 48.8399 91.77 48.8399C93.58 48.8399 95.79 50.2699 95.79 52.3999C95.79 54.0199 93.85 55.8999 89.12 59.0699C86.59 60.7599 83.29 62.6299 82.32 62.6299C81.67 62.6299 80.89 62.0499 80.89 61.0799L80.88 61.0899ZM106.54 59.5999C106.54 61.7999 105.57 63.3599 103.23 63.3599C100.89 63.3599 99.86 61.9299 99.86 59.5999V46.9599C88.32 48.3899 85.54 48.7099 84.44 48.7099C82.82 48.7099 81.59 47.4799 81.59 45.6599C81.59 44.2999 82.43 42.8699 84.44 42.7399C86.25 42.6699 94.35 42.4799 95.98 42.4799C94.81 41.3099 92.87 39.0499 91.64 37.8799C90.93 37.2299 87.69 34.6999 87.04 34.1199C86.72 33.8599 86.46 33.54 86.46 32.95C86.46 32.04 87.17 31.39 87.95 31.39C89.05 31.39 92.55 33.0099 93.52 33.4599C93.97 32.5499 95.66 28.4699 96.31 27.8199H90.41C85.81 27.8199 84.51 26.01 84.51 22.7V10.6499C84.51 7.21993 86.07 5.52994 90.41 5.52994H115.94C120.8 5.52994 121.84 7.59993 121.84 10.6499V22.7C121.84 26.46 120.09 27.8199 115.94 27.8199H100.39C101.36 28.5999 101.75 29.1199 101.75 30.1499C101.75 31.6399 101.3 32.0299 97.34 35.4599C100.64 37.3399 101.1 38.2499 101.36 38.9599C104.21 35.8499 104.6 35.3299 108.23 30.5399C108.75 29.8299 109.53 28.7899 111.21 28.7899C113.15 28.7899 114.77 30.5399 114.77 32.0899C114.77 34.0299 113.41 35.3299 104.21 42.1299C109.2 41.8699 111.92 41.6799 116 41.2899C115.74 40.6399 114.44 37.7899 114.44 37.3999C114.44 36.4299 115.22 35.9099 115.93 35.9099C116.58 35.9099 117.23 36.4299 119.11 38.3699C121.44 40.8299 124.36 44.1999 124.36 46.2799C124.36 48.3599 122.42 49.5199 120.8 49.5199C118.47 49.5199 118.14 48.3499 117.04 44.4699C112.12 45.3099 111.6 45.3799 106.54 46.0899V59.5699V59.5999ZM100.12 14.95V8.52994H93.9C91.57 8.52994 91.18 9.10994 91.18 11.2499V14.9399H100.12V14.95ZM91.18 17.9299V22.2099C91.18 24.2799 91.57 24.8699 93.9 24.8699H100.12V17.9399H91.18V17.9299ZM115.16 14.95V11.2599C115.16 9.11995 114.71 8.53995 112.5 8.53995H106.21V14.9599H115.15L115.16 14.95ZM106.22 17.9299V24.8599H112.51C114.78 24.8599 115.17 24.28 115.17 22.2V17.92H106.23L106.22 17.9299ZM111.99 49.3599C112.9 49.3599 119.12 53.4399 121.71 55.7799C123.01 57.0099 123.27 57.8499 123.27 58.8299C123.27 60.7099 121.52 62.2599 119.51 62.2599C118.02 62.2599 117.24 61.6099 116.4 59.9299C115.56 58.3099 112.97 54.2299 111.09 52.0199C110.83 51.7599 110.51 51.2399 110.51 50.8499C110.51 49.9399 111.29 49.3599 112 49.3599H111.99Z" fill="white"/>
<path d="M162.61 58.89C162.61 60.25 162.61 63.36 159.24 63.36C155.87 63.36 155.74 60.31 155.74 58.89V48.07C146.08 57.99 133.64 61.81 132.99 61.81C132.28 61.81 131.56 61.16 131.56 60.32C131.56 59.48 132.01 59.15 133.05 58.7C144.97 53.06 149.51 46.84 150.87 44.77H131.49C130.84 44.77 129.68 44.58 129.68 43.28C129.68 41.92 130.91 41.79 131.49 41.79H155.73V39.59C155.73 38.23 155.73 35.05 159.16 35.05C162.59 35.05 162.59 38.16 162.59 39.59V41.79H187.47C188.05 41.79 189.28 41.92 189.28 43.28C189.28 44.64 188.05 44.77 187.47 44.77H167.45C169.2 47.36 173.8 53.26 185.47 58.57C186.44 59.02 187.09 59.35 187.09 60.25C187.09 61.15 186.38 61.74 185.66 61.74C184.94 61.74 171.6 57.72 162.59 47.87V58.89H162.61ZM155.74 9.19V7.57001C155.74 5.37001 156.58 3.48999 159.24 3.48999C161.9 3.48999 162.74 5.50001 162.74 7.57001V9.19H181.6C185.81 9.19 187.95 10.42 187.95 14.7V17.88C187.95 18.92 187.95 22.03 184.52 22.03C181.09 22.03 181.02 18.85 181.02 17.88V15.16C181.02 12.76 180.63 12.18 178.1 12.18H140.64C138.11 12.18 137.72 12.83 137.72 15.16V17.88C137.72 18.98 137.72 22.03 134.29 22.03C130.86 22.03 130.86 19.18 130.86 17.82V14.71C130.86 10.89 132.48 9.20001 137.21 9.20001H155.74V9.19ZM140.06 21.83C139.35 21.83 138.25 21.7 138.25 20.4C138.25 19.04 139.42 18.91 140.06 18.91H149.39C150.04 18.07 152.69 14.24 153.34 13.53C153.92 12.88 154.77 12.69 155.48 12.69C157.55 12.69 159.17 14.05 159.17 15.54C159.17 16.58 158.65 17.16 157.1 18.91H178.55C179.13 18.91 180.36 19.04 180.36 20.4C180.36 21.76 179.06 21.83 178.55 21.83H172.52C171.68 23.13 169.67 26.17 166.3 28.89C170.64 29.8 177.19 31.61 178.74 32.32C179.78 32.77 180.29 33.62 180.29 34.59C180.29 36.47 178.48 37.89 176.99 37.89C176.21 37.89 175.43 37.5 174.72 37.11C169.6 34.52 167.14 33.35 161.89 31.93C153.08 36.72 139.21 38.67 138.43 38.67C137.33 38.67 136.81 37.89 136.81 37.24C136.81 36.33 137.33 35.94 138.75 35.69C141.67 35.24 148.92 34.07 155.53 30.44C153.91 30.12 146.26 28.88 145.55 28.69C144.32 28.3 143.61 27.46 143.61 26.42C143.61 25.9 143.8 25.38 144.19 24.93C144.97 24.09 146.26 22.73 147.04 21.82H140.04L140.06 21.83ZM154.51 21.83C153.99 22.35 150.95 25.72 150.95 25.98C150.95 26.3 151.21 26.69 151.6 26.76C152.9 26.95 158.34 27.54 159.57 27.73C161.45 26.18 162.94 24.36 164.43 21.83H154.51Z" fill="white"/>
<path d="M238.64 7.14001V57.76H232.83V14.23C229.64 17.49 225.67 19.76 220.92 21.18V15.37C223.19 14.73 225.6 13.74 228.01 12.32C230.42 10.76 232.41 9.06001 234.11 7.14001H238.65H238.64Z" fill="white"/>
<path d="M279.9 10.26C282.59 12.74 284.01 15.86 284.01 19.55C284.01 22.24 283.37 24.51 282.1 26.36C280.68 28.35 278.7 29.83 276.07 30.76V30.9C278.69 31.54 280.96 33.03 282.81 35.3C284.8 37.71 285.79 40.55 285.79 43.81C285.79 48.28 284.23 51.89 281.11 54.59C277.85 57.36 273.31 58.77 267.5 58.77C261.69 58.77 257.08 57.35 253.89 54.59C250.77 51.9 249.21 48.28 249.21 43.81C249.21 40.55 250.2 37.71 252.19 35.3C254.03 33.03 256.23 31.54 258.93 30.9V30.76C256.24 29.84 254.25 28.35 252.9 26.36C251.62 24.52 250.99 22.25 250.99 19.55C250.99 15.86 252.34 12.74 255.1 10.26C258.08 7.49004 262.19 6.15002 267.51 6.15002C272.83 6.15002 276.94 7.50004 279.92 10.26H279.9ZM258.06 36.42C255.93 38.26 254.94 40.74 254.94 43.79C254.94 46.84 255.93 49.25 258.06 51.09C260.19 53 263.38 54 267.49 54C271.6 54 274.72 53.01 276.99 51.02C278.98 49.18 280.04 46.77 280.04 43.79C280.04 40.81 278.98 38.26 276.99 36.42C274.72 34.36 271.53 33.37 267.49 33.37C263.45 33.37 260.26 34.36 258.06 36.42ZM259.05 13.66C257.28 15.22 256.43 17.28 256.43 19.76C256.43 22.24 257.21 24.44 258.77 26C260.61 27.84 263.52 28.84 267.49 28.84C271.46 28.84 274.3 27.85 276.21 26C277.77 24.44 278.55 22.31 278.55 19.76C278.55 17.21 277.63 15.22 275.93 13.66C273.87 11.82 271.04 10.89 267.49 10.89C263.94 10.89 261.04 11.81 259.05 13.66Z" fill="white"/>
<path d="M328.11 36.99V41.81H292.3V36.99H328.11Z" fill="white"/>
<path d="M365.19 10.19C368.17 12.88 369.73 16.5 369.73 20.9C369.73 25.3 368.03 29.27 364.77 32.81C363 34.65 359.52 37.42 354.28 40.96C347.83 45.28 344.14 49.18 343.22 52.59H369.81V57.77H336.06C336.06 53.16 337.69 48.98 341.09 45.22C343.08 42.95 346.69 39.9 352.08 36.22C356.05 33.38 358.67 31.33 360.02 29.91C362.57 27.14 363.92 24.1 363.92 20.83C363.92 17.56 363 15.37 361.15 13.67C359.31 11.97 356.68 11.12 353.42 11.12C349.95 11.12 347.25 12.26 345.41 14.67C343.42 16.94 342.36 20.34 342.29 24.81H336.48C336.48 19.14 338.11 14.6 341.23 11.27C344.35 7.87002 348.53 6.16003 353.64 6.16003C358.32 6.16003 362.15 7.51004 365.2 10.2L365.19 10.19Z" fill="white"/>
<path d="M411.07 7.14001V12.32H386.4L384.7 29.26H384.98C386.4 27.56 388.24 26.28 390.44 25.43C392.43 24.58 394.55 24.23 396.89 24.23C401.71 24.23 405.61 25.72 408.59 28.77C411.57 31.89 413.13 36.14 413.13 41.6C413.13 46.7 411.29 50.89 407.67 54.15C404.27 57.2 400.01 58.76 395.05 58.76C390.58 58.76 386.75 57.55 383.64 55.14C380.09 52.45 378.18 48.76 377.83 44.15H383.57C383.85 47.34 385.13 49.82 387.4 51.52C389.39 53.01 392.01 53.79 395.13 53.79C398.67 53.79 401.58 52.65 403.92 50.39C406.19 48.12 407.39 45.21 407.39 41.67C407.39 37.63 406.26 34.51 404.13 32.31C402.07 30.04 399.17 28.98 395.48 28.98C393.07 28.98 390.94 29.48 389.03 30.54C387.05 31.53 385.49 33.09 384.49 35.08H378.96L381.65 7.14001H411.07Z" fill="white"/>
<path d="M428.72 18.69V0.109985H433.83V18.69H442.2V23.65H433.83V47.19C436.81 46.2 439.64 45.06 442.48 43.79V48.9C435.67 51.81 428.37 54.29 420.57 56.27L419.29 51.16C422.48 50.45 425.6 49.67 428.72 48.82V23.65H419.93V18.69H428.72ZM482.75 3.23001V8.04999H465.95V34.78H484.88V39.67H465.95V65.19H460.99V39.67H442.34V34.78H460.99V8.04999H444.33V3.23001H482.76H482.75ZM455.17 30.17L450.77 31.23C449.42 25.06 447.65 19.11 445.52 13.43L449.92 12.01C451.91 17.26 453.61 23.35 455.17 30.16V30.17ZM480.91 12.8C479.42 19.68 477.51 25.7 475.24 30.88L470.91 29.32C473.04 24.64 474.88 18.75 476.44 11.59L480.91 12.79V12.8Z" fill="white"/>
</svg>
