<svg width="446" height="70" viewBox="0 0 446 70" fill="none" xmlns="http://www.w3.org/2000/svg">
<path d="M89.34 6.72L89.13 5.98001H96.15L97.53 4.17999C97.83 4.42999 98.12 4.68001 98.4 4.92001C99.07 5.49001 99.6 5.95001 99.99 6.32001C99.94 6.58001 99.71 6.72 99.3 6.72H89.34ZM90.61 10.17L90.4 9.42999H95.17L96.52 7.67999C97.31 8.36999 98.11 9.06 98.91 9.75C98.84 10.03 98.61 10.17 98.22 10.17H90.61ZM90.61 13.61L90.4 12.87H95.17L96.52 11.12C96.8 11.37 97.09 11.61 97.37 11.84C98.02 12.39 98.54 12.85 98.91 13.22C98.84 13.48 98.61 13.62 98.22 13.62H90.61V13.61ZM90.4 25.54V15.28L93.24 16.45H95.52L96.82 15.05L99.52 17.12C99.27 17.37 98.93 17.54 98.49 17.62V23.74C98.49 23.86 98.23 24.02 97.72 24.22C97.15 24.43 96.66 24.54 96.24 24.54H95.76V22.95H93.14V24.67C93.14 24.83 92.89 25 92.4 25.2C91.87 25.43 91.34 25.54 90.81 25.54H90.41H90.4ZM90.66 3.38L90.45 2.60999H94.96L96.34 0.809998C96.64 1.06 96.94 1.30999 97.24 1.54999C97.91 2.11999 98.44 2.58001 98.83 2.95001C98.76 3.23001 98.54 3.37 98.17 3.37H90.67L90.66 3.38ZM93.12 22.2H95.74V17.22H93.12V22.2ZM99.37 10.22L99.16 9.45001H104.91V7.17001H100.8L100.59 6.45001H104.91V4.25H100.09L99.88 3.51001H104.92V0.809998L108.9 1.14999C108.85 1.55999 108.52 1.8 107.92 1.87V3.51001H109.59L111.1 1.57999C111.42 1.83999 111.74 2.10001 112.05 2.35001C112.77 2.95001 113.35 3.44999 113.77 3.82999C113.7 4.10999 113.47 4.25 113.08 4.25H107.91V6.45001H109.31L110.71 4.64999C111.56 5.33999 112.4 6.03999 113.23 6.73999C113.16 7.01999 112.92 7.16 112.51 7.16H107.9V9.44H110.15L111.61 7.51001C111.93 7.77001 112.25 8.03 112.59 8.28C113.33 8.88 113.92 9.38001 114.34 9.79001C114.29 10.07 114.05 10.21 113.62 10.21H99.36L99.37 10.22ZM108.7 25.51C108.61 24.41 108.45 23.69 108.22 23.34C107.85 22.86 107.22 22.54 106.34 22.36V21.99C107.19 22.03 108.03 22.07 108.86 22.12C109.2 22.12 109.36 21.95 109.36 21.62V19.39H104.01V24.45C104.01 24.63 103.75 24.83 103.24 25.06C102.66 25.31 102.08 25.43 101.52 25.43H101.07V10.99L104.14 12.24H109.1L110.43 10.73L113.35 12.93C113.17 13.14 112.85 13.3 112.37 13.41V22C112.37 23.15 112.17 23.95 111.76 24.41C111.25 25.01 110.23 25.38 108.71 25.52L108.7 25.51ZM104.01 15.39H109.36V12.98H104.01V15.39ZM104.01 18.65H109.36V16.16H104.01V18.65Z" fill="white"/>
<path d="M140.59 25.19C139.76 24.84 139.04 24.31 138.44 23.6C137.66 22.74 136.96 21.75 136.32 20.66C134.45 22.75 132.21 24.35 129.62 25.48L129.41 25.16C130.19 24.63 130.98 23.98 131.8 23.23H123.66V24.24C123.66 24.38 123.46 24.55 123.05 24.74C122.56 24.97 121.99 25.08 121.35 25.08H120.87V15.12C120.16 15.77 119.4 16.33 118.59 16.79L118.25 16.53C119.04 15.58 119.79 14.39 120.48 12.98C121.17 11.55 121.72 10.06 122.12 8.5L125.62 9.76999C125.48 10.12 125.13 10.29 124.59 10.27C124.29 10.85 123.91 11.49 123.45 12.18L124.03 12.42H125.67C126 11.17 126.28 9.9 126.49 8.63L130.09 9.5C129.97 9.87 129.63 10.06 129.08 10.06C128.25 10.89 127.33 11.68 126.32 12.42H129.13L130.48 10.67C130.78 10.9 131.08 11.14 131.38 11.39C132.07 11.92 132.61 12.37 133 12.74C132.95 13.02 132.71 13.16 132.28 13.16H128.41V15.57H129.02L130.32 13.85C130.6 14.08 130.89 14.32 131.17 14.57C131.79 15.12 132.27 15.57 132.63 15.92C132.56 16.2 132.33 16.34 131.94 16.34H128.42V18.94H129.08L130.35 17.22C131.13 17.91 131.9 18.6 132.68 19.29C132.61 19.57 132.37 19.71 131.96 19.71H128.41V22.49H129.36L130.76 20.69C131.41 21.2 132.06 21.72 132.69 22.25C133.64 21.23 134.52 20.04 135.31 18.7C134.09 15.94 133.3 12.5 132.92 8.35999H118.58L118.37 7.62H124.36V4.64999H119.78L119.57 3.91H124.37V0.679993L128.34 1C128.3 1.41 128 1.64999 127.41 1.73999V3.91H128.55L130.01 2C130.33 2.25 130.65 2.49999 130.96 2.76999C131.67 3.34999 132.22 3.84001 132.63 4.23001C132.56 4.51001 132.32 4.64999 131.91 4.64999H127.4V7.62H132.86C132.7 5.69 132.62 3.36 132.62 0.619995L136.65 1.04001C136.61 1.45001 136.31 1.69 135.72 1.78C135.67 3.81 135.7 5.74999 135.83 7.60999H138.27L139.75 5.78C139.47 5.76 139.16 5.64 138.82 5.41C138.71 4.81 138.47 4.16001 138.08 3.48001C137.73 2.86001 137.32 2.31999 136.86 1.85999L137.07 1.67001C138.64 1.83001 139.81 2.22 140.57 2.84C141.19 3.35 141.45 3.93 141.36 4.56C141.29 5.14 140.97 5.53001 140.41 5.73001C141.43 6.51001 142.37 7.23999 143.22 7.92999C143.15 8.20999 142.89 8.35001 142.45 8.35001H135.88C136.07 10.86 136.48 13.06 137.1 14.95C137.74 13.27 138.23 11.48 138.58 9.57001L142.45 10.66C142.33 11.01 141.98 11.18 141.42 11.16C140.64 13.69 139.62 15.94 138.35 17.92C138.97 19.02 139.67 19.93 140.44 20.65C140.6 20.86 140.73 20.97 140.84 20.97C140.96 20.95 141.09 20.83 141.21 20.6C141.83 19.59 142.36 18.53 142.8 17.42L143.12 17.47L142.46 22.03C143.27 23.67 143.44 24.69 142.96 25.08C142.32 25.56 141.52 25.59 140.55 25.19H140.59ZM123.66 15.57H125.81V13.16H123.66V15.57ZM123.66 18.94H125.81V16.34H123.66V18.94ZM123.66 22.49H125.81V19.71H123.66V22.49Z" fill="white"/>
<path d="M148.86 25.56V1.14999L152.01 2.48001H167.88L169.34 0.839996L172.18 3.17001C171.97 3.42001 171.61 3.60001 171.09 3.73001V24.38C171.05 24.52 170.77 24.71 170.24 24.94C169.64 25.2 169.09 25.34 168.6 25.34H168.15V23.7H151.75V24.47C151.75 24.68 151.51 24.92 151.03 25.19C150.5 25.45 149.94 25.59 149.36 25.59H148.86V25.56ZM151.75 22.91H168.15V3.22H151.75V22.91ZM152.6 11.09L152.39 10.32H158.54V8.54001H157.11V8.85999C157.11 8.97999 156.88 9.13 156.42 9.31C155.91 9.52 155.4 9.63 154.91 9.63H154.54V3.95999L157.24 5.04999H162.43L163.6 3.78L166.14 5.66C165.95 5.89 165.66 6.02999 165.29 6.07999V8.70001C165.27 8.81001 165.01 8.94001 164.5 9.10001C163.97 9.26001 163.51 9.34 163.12 9.34H162.67V8.54999H161.19V10.33H164.16L165.46 8.76999C165.74 8.97999 166.03 9.19 166.31 9.41C166.96 9.92 167.49 10.35 167.87 10.68C167.82 10.96 167.58 11.1 167.15 11.1H152.6V11.09ZM153.66 22.27V11.4L156.28 12.46H163.54L164.71 11.24L167.12 13.1C166.93 13.29 166.63 13.43 166.25 13.5V21.16C166.23 21.27 165.99 21.41 165.51 21.58C165.02 21.76 164.57 21.84 164.19 21.84H163.79V20.62H156.13V21.47C156.13 21.61 155.91 21.78 155.47 21.97C154.99 22.16 154.52 22.26 154.04 22.26H153.67L153.66 22.27ZM156.13 19.86H163.79V13.21H156.13V19.86ZM157.11 7.79999H162.68V5.79001H157.11V7.79999ZM157.22 19.2V13.79L159.13 14.61H160.72L161.59 13.74L163.37 15.12C163.26 15.28 163.04 15.39 162.71 15.46V18.48C162.69 18.57 162.5 18.69 162.14 18.84C161.78 18.99 161.46 19.07 161.2 19.07H160.91V18.17H159.03V18.65C159.03 18.74 158.86 18.84 158.53 18.97C158.16 19.13 157.81 19.21 157.5 19.21H157.24L157.22 19.2ZM159.02 17.4H160.9V15.39H159.02V17.4Z" fill="white"/>
<path d="M179.63 25.51V11.62C178.69 12.68 177.67 13.66 176.56 14.56L176.27 14.35C177.35 12.67 178.35 10.62 179.29 8.20001C180.24 5.67001 180.98 3.15999 181.49 0.649994L185.78 2C185.67 2.37 185.32 2.56 184.72 2.56C184 4.57 183.17 6.33999 182.26 7.85999L183.53 8.34C183.42 8.61 183.14 8.77 182.68 8.84V24.63C182.66 24.77 182.4 24.95 181.89 25.16C181.31 25.39 180.74 25.51 180.19 25.51H179.63ZM190.92 25.56V18.35C189.1 20.61 186.63 22.48 183.5 23.97L183.26 23.65C184.62 22.55 185.86 21.18 186.97 19.52C187.99 18 188.83 16.37 189.46 14.62H183.55L183.34 13.85H190.92V10.14H188.96V11.02C188.96 11.18 188.68 11.38 188.11 11.63C187.51 11.88 186.91 12 186.31 12H185.89V1.23999L189.12 2.51001H195.8L197.26 0.890015L200.36 3.22C200.11 3.54 199.73 3.73999 199.22 3.82999V10.59C199.2 10.7 198.89 10.84 198.29 11.01C197.64 11.2 197.08 11.3 196.62 11.3H196.09V10.13H194.05V13.84H196.59L198.34 11.61C198.71 11.91 199.09 12.2 199.48 12.49C200.33 13.18 200.99 13.74 201.47 14.19C201.4 14.47 201.15 14.61 200.73 14.61H194.34C195.13 15.95 196.26 17.18 197.71 18.29C199.02 19.32 200.42 20.13 201.92 20.73L201.87 21.02C200.65 21.3 199.84 22.21 199.43 23.75C196.99 21.88 195.2 19.06 194.05 15.3V24.66C194.05 24.8 193.82 24.98 193.36 25.19C192.79 25.44 192.18 25.56 191.51 25.56H190.93H190.92ZM188.96 9.39001H196.09V3.26999H188.96V9.39001Z" fill="white"/>
<path d="M209.44 25.56V12.73L212.7 14.03H223.99L225.26 12.65C224.87 12.69 224.56 12.7 224.33 12.7C224.33 11.73 224.19 11.08 223.91 10.77C223.57 10.35 222.96 10.05 222.08 9.87V9.5C223.32 9.59 224.15 9.63 224.57 9.63C224.9 9.63 225.17 9.56001 225.36 9.42001C225.93 9.00001 226.31 7.03001 226.53 3.51001H223.61C223.4 5.84001 222.81 7.68999 221.83 9.04999C220.54 10.87 218.34 12.31 215.23 13.37L214.96 13.03C217.17 11.76 218.68 10.25 219.49 8.5C220.06 7.28 220.37 5.61999 220.44 3.51999H217.98L217.9 3.26001C217.58 3.47001 217.06 3.44999 216.34 3.20999C214.8 3.55999 213.01 3.86 210.96 4.09V9.07001C211.37 8.95001 212 8.77001 212.87 8.54001C213.61 8.35001 214.17 8.2 214.54 8.09C214.17 7.07 213.67 6.08999 213.03 5.14999L213.29 4.98999C214.88 5.49999 216.06 6.18 216.84 7.03C217.49 7.75 217.78 8.49001 217.71 9.23001C217.66 9.92001 217.36 10.39 216.81 10.63C216.24 10.88 215.65 10.75 215.03 10.23C214.99 9.77001 214.91 9.32 214.79 8.88C213.09 10.03 210.87 11.39 208.11 12.96C208.02 13.31 207.81 13.55 207.47 13.68L205.72 10.37L205.75 10.34C206.67 10.15 207.46 9.96 208.14 9.78V1.79999L211.29 3.01999C212.85 2.16999 214.11 1.36999 215.08 0.609985L217.84 3.13L217.73 2.76001H226.29L227.8 1.29999L230.48 3.53C230.25 3.76 229.9 3.91001 229.42 3.98001C229.28 6.40001 229.05 8.21 228.73 9.41C228.41 10.63 227.94 11.46 227.33 11.9C226.85 12.27 226.28 12.51 225.61 12.62L228.39 14.74C228.16 15.04 227.82 15.24 227.36 15.32V24.6C227.32 24.72 227.02 24.88 226.43 25.08C225.79 25.27 225.24 25.37 224.76 25.37H224.23V23.62H212.46V24.57C212.46 24.75 212.19 24.96 211.64 25.21C211.04 25.46 210.45 25.58 209.86 25.58H209.41L209.44 25.56ZM212.49 18.38H216.81V14.78H212.49V18.38ZM212.49 22.86H216.81V19.15H212.49V22.86ZM219.86 18.38H224.26V14.78H219.86V18.38ZM219.86 22.86H224.26V19.15H219.86V22.86Z" fill="white"/>
<path d="M238.65 16.95V9.48001C237.61 10.59 236.5 11.56 235.34 12.4L235.05 12.19C236.02 10.74 236.95 9.01 237.83 7C238.77 4.86 239.5 2.74001 240.03 0.640015L244.27 2.14999C244.15 2.51999 243.79 2.69999 243.21 2.67999C242.64 3.85999 242 5.01 241.28 6.12L242.58 6.60001C242.49 6.85001 242.23 7.00999 241.78 7.07999V16.14C241.74 16.28 241.46 16.45 240.93 16.64C240.35 16.85 239.77 16.96 239.21 16.96H238.65V16.95ZM236.4 23.81C235.85 23.67 235.5 23.35 235.34 22.86C235.2 22.4 235.24 21.98 235.47 21.59C235.68 21.24 236.02 20.95 236.48 20.74C237.15 20.46 237.74 20 238.26 19.36C238.84 18.65 239.16 17.88 239.21 17.05L239.56 17.08C240.07 18.67 240.13 20.08 239.72 21.32C239.38 22.38 238.79 23.14 237.94 23.6C237.45 23.88 236.93 23.95 236.4 23.81ZM245.2 24.95C243.77 24.95 242.83 24.78 242.39 24.45C241.95 24.11 241.73 23.42 241.73 22.38V16.58L245.55 16.9C245.5 17.27 245.22 17.49 244.73 17.56V21.72C244.73 21.91 244.79 22.04 244.92 22.09C245.04 22.16 245.34 22.2 245.8 22.2H248.74C250.08 22.2 250.88 22.2 251.13 22.17C251.47 22.15 251.72 22.04 251.9 21.83C252.16 21.46 252.56 20.52 253.09 19.02H253.38L253.46 21.88C253.87 22.04 254.15 22.21 254.31 22.4C254.47 22.59 254.55 22.82 254.55 23.1C254.55 23.77 254.14 24.24 253.33 24.5C252.43 24.8 250.79 24.95 248.43 24.95H245.22H245.2ZM243.08 10.03L242.76 9.82001C243.47 8.69001 244.11 7.31999 244.69 5.70999C245.31 4.06999 245.78 2.40001 246.09 0.700012L250.28 2.03C250.16 2.38 249.81 2.56 249.25 2.56C248.99 3.11 248.74 3.58999 248.51 4.01999H255.67L257.29 2.38L260.1 5.06C259.92 5.24 259.58 5.34999 259.07 5.39999C257.96 6.38999 256.68 7.25 255.23 7.97L255.02 7.81C255.32 6.96 255.59 5.95001 255.84 4.76001H248.08C246.68 7.00001 245.02 8.76 243.1 10.03H243.08ZM249.36 16.39C249.27 15.29 249.1 14.58 248.86 14.24C248.47 13.75 247.83 13.42 246.95 13.26V12.92C247.83 12.97 248.72 13.03 249.6 13.08C249.9 13.08 250.05 12.95 250.05 12.68V8.73001C249.84 8.87001 249.56 8.93001 249.23 8.92001C247.87 11.34 246.02 13.09 243.69 14.17L243.4 13.93C244.04 13.12 244.62 12.11 245.15 10.91C245.7 9.67 246.12 8.39001 246.42 7.07001L250.05 8.37V5L253.95 5.34C253.9 5.71 253.61 5.93 253.08 6V12.81C253.08 13.98 252.88 14.8 252.47 15.27C251.94 15.87 250.91 16.24 249.37 16.38L249.36 16.39ZM248.09 20.07C247.91 19.33 247.55 18.55 247 17.74C246.51 16.98 245.95 16.34 245.33 15.81L245.54 15.6C247.25 15.78 248.56 16.2 249.46 16.87C250.22 17.44 250.61 18.08 250.63 18.8C250.66 19.45 250.42 19.93 249.89 20.23C249.34 20.55 248.74 20.49 248.09 20.07ZM256.84 23.28C256.61 22.26 256.12 21.18 255.36 20.05C254.65 18.99 253.85 18.09 252.95 17.35L253.16 17.16C255.26 17.51 256.9 18.16 258.06 19.09C259.01 19.85 259.53 20.69 259.62 21.61C259.71 22.46 259.47 23.08 258.9 23.47C258.28 23.88 257.59 23.81 256.83 23.28H256.84ZM256.39 13.66C256.25 12.69 255.88 11.61 255.28 10.43C254.77 9.40999 254.16 8.44001 253.45 7.54001L253.71 7.38C255.58 7.98 257 8.78001 257.95 9.79001C258.74 10.64 259.15 11.5 259.17 12.39C259.17 13.18 258.89 13.73 258.32 14.03C257.72 14.35 257.07 14.22 256.39 13.66Z" fill="white"/>
<path d="M265.47 23.92V4.54999L268.39 5.82001H268.42C268.67 4.05001 268.86 2.37001 269 0.76001L273.32 1.76999C273.21 2.18999 272.85 2.41 272.23 2.41C271.2 3.72 270.26 4.85999 269.39 5.82999H271.25L272.68 4.26999L275.52 6.5C275.31 6.75 274.95 6.93 274.43 7.06V22.27C274.41 22.39 274.13 22.56 273.58 22.77C272.98 23 272.45 23.11 271.99 23.11H271.51V21.02H268.28V22.9C268.28 23.09 268.04 23.31 267.56 23.54C267.03 23.8 266.48 23.94 265.92 23.94H265.47V23.92ZM268.28 12.84H271.51V6.56H268.28V12.84ZM268.28 20.26H271.51V13.55H268.28V20.26ZM281.32 25.32C281.32 24.35 281.13 23.68 280.74 23.31C280.25 22.82 279.32 22.43 277.96 22.14V21.8C279.9 21.96 281.2 22.04 281.86 22.04C282.32 22.04 282.68 21.91 282.95 21.64C284.05 20.72 284.77 15.67 285.12 6.48001H279.13C277.86 8.48001 276.4 10.08 274.76 11.28L274.44 11.07C275.22 9.75001 275.92 8.18 276.56 6.38C277.23 4.49 277.73 2.58999 278.04 0.679993L282.2 1.92999C282.04 2.29999 281.69 2.47999 281.14 2.45999C280.73 3.51999 280.22 4.61 279.6 5.72H284.85L286.52 3.97L289.33 6.51001C289.08 6.76001 288.68 6.91999 288.11 6.98999C287.92 12.24 287.61 16.16 287.21 18.76C286.79 21.45 286.18 23.19 285.38 23.98C284.87 24.47 284.28 24.83 283.63 25.04C283.01 25.23 282.24 25.33 281.32 25.33V25.32ZM279.25 15.78C279.18 14.03 278.47 12.21 277.13 10.32L277.37 10.13C279.12 10.7 280.42 11.46 281.27 12.41C281.98 13.21 282.29 14.01 282.2 14.82C282.11 15.56 281.77 16.05 281.17 16.28C280.55 16.53 279.92 16.36 279.26 15.78H279.25Z" fill="white"/>
<path d="M294.89 8.84C294.77 7.67 294.2 6.44999 293.19 5.17999L293.46 5.01999C294.24 5.19999 294.91 5.42999 295.47 5.70999C295.82 4.48999 296.22 2.79 296.66 0.619995L300.5 1.87C300.38 2.22 300.03 2.39999 299.47 2.39999C298.41 3.84999 297.31 5.1 296.18 6.16C296.85 6.69 297.19 7.27 297.19 7.91C297.19 8.49 296.94 8.9 296.45 9.13C295.95 9.36 295.43 9.26 294.89 8.84ZM297.06 25.56V17.16C296.95 17.2 296.86 17.21 296.77 17.21C296.01 19.93 294.97 21.99 293.64 23.39L293.24 23.18C293.91 21.11 294.3 18.69 294.41 15.92L297.06 16.45V13.99C296.8 14.08 296.37 14.21 295.79 14.39C295.44 14.51 295.17 14.6 295 14.65C294.86 14.95 294.61 15.14 294.26 15.21L293.25 12.29C293.57 12.29 294.26 12.29 295.32 12.26C295.6 12.24 295.81 12.23 295.96 12.23C297.41 9.47001 298.64 6.75001 299.64 4.07001L303.3 5.5C303.14 5.85 302.79 5.99001 302.24 5.92001C300.7 8.08001 298.95 10.16 296.99 12.17C298.19 12.13 299.41 12.08 300.65 12.01C300.46 11.23 300.19 10.46 299.86 9.70001L300.18 9.57001C301.43 10.17 302.34 10.88 302.88 11.69C303.32 12.36 303.47 13.01 303.33 13.62C303.21 14.2 302.9 14.57 302.4 14.71C301.89 14.87 301.39 14.71 300.92 14.21C300.94 13.8 300.9 13.31 300.81 12.73L299.8 13.07V24.76C299.8 24.88 299.6 25.04 299.19 25.24C298.7 25.45 298.15 25.56 297.55 25.56H297.07H297.06ZM305.06 25.48V19.81C304.16 21.75 302.89 23.34 301.24 24.58L300.97 24.37C301.89 22.94 302.56 21.3 302.98 19.44C302.8 19.9 302.5 20.17 302.08 20.26C301.6 20.37 301.16 20.2 300.76 19.76C300.85 18.59 300.62 17.25 300.07 15.73L300.36 15.62C301.37 16.13 302.11 16.72 302.59 17.4C302.98 17.97 303.15 18.51 303.09 19.04C303.53 17.01 303.75 14.37 303.75 11.12V5.16L306.98 6.32999H313.6L314.95 4.87L317.76 6.95999C317.57 7.20999 317.23 7.37999 316.75 7.48999V11.94C316.73 12.05 316.46 12.2 315.93 12.39C315.33 12.6 314.81 12.71 314.37 12.71H313.87V11.6H306.53C306.53 12.25 306.5 12.95 306.45 13.69L307.48 14.11H314.58L315.64 12.89L318.13 14.72C317.94 14.95 317.64 15.1 317.25 15.17V22.43C317.25 23.44 317.1 24.14 316.8 24.55C316.43 25.06 315.69 25.37 314.57 25.48C314.53 24.56 314.45 23.96 314.31 23.68C314.15 23.36 313.9 23.14 313.57 23.02V24.64C313.55 24.75 313.4 24.86 313.12 24.98C312.77 25.16 312.38 25.24 311.95 25.24H311.63V19.38H310.46V24.71C310.44 24.8 310.29 24.9 310.01 25.03C309.64 25.19 309.24 25.27 308.82 25.27H308.5V19.39H307.31V24.74C307.31 24.88 307.11 25.03 306.7 25.19C306.28 25.38 305.83 25.48 305.37 25.48H305.03H305.06ZM302.73 3.62L302.52 2.88H313.68L315.32 0.790009C316.29 1.58001 317.26 2.39001 318.24 3.20001C318.17 3.48001 317.92 3.62 317.5 3.62H302.74H302.73ZM306.55 10.86H313.89V7.07001H306.55V10.86ZM307.34 18.65H308.53V14.86H307.34V18.65ZM310.49 18.65H311.66V14.86H310.49V18.65ZM313.59 18.65H314.84V14.86H313.59V18.65ZM314.46 22.57C314.71 22.57 314.83 22.44 314.83 22.17V19.39H313.58V22.54C313.69 22.54 313.86 22.54 314.11 22.57H314.45H314.46Z" fill="white"/>
<path d="M326.34 25.51C326.34 24.61 326.21 24.02 325.94 23.73C325.62 23.36 325.02 23.08 324.14 22.88V22.48C325.16 22.59 326 22.64 326.63 22.64C326.98 22.64 327.26 22.57 327.45 22.43C328.03 21.95 328.44 19.82 328.67 16.02H326.42C326.31 16.44 326.19 16.92 326.05 17.45C325.77 17.64 325.37 17.76 324.86 17.79C324.35 17.83 323.8 17.75 323.22 17.58C323.63 16.47 324.05 14.74 324.49 12.39H322.69L322.48 11.65H329.05L330.35 9.85001C329.89 9.96001 329.54 10.01 329.29 10.01H328.84V8.82001H326.22V9.72C326.22 9.86 325.99 10.03 325.53 10.22C325.02 10.43 324.51 10.54 324.02 10.54H323.65V1.34L326.35 2.45001H328.58L329.85 1.04999L332.58 3.12C332.33 3.4 331.97 3.58999 331.49 3.67999V9.35001C331.45 9.49001 331.13 9.63999 330.51 9.79999C330.56 9.84999 330.71 9.99001 330.96 10.2C331.88 10.99 332.53 11.59 332.92 11.98C332.85 12.26 332.61 12.4 332.2 12.4H327.24C327.19 12.63 327.11 13 327 13.51C326.82 14.3 326.69 14.9 326.6 15.29H328.46L329.84 13.91L332.36 16C332.17 16.23 331.82 16.38 331.33 16.45C331.21 18.96 330.99 20.85 330.67 22.11C330.35 23.37 329.88 24.23 329.27 24.69C328.55 25.24 327.57 25.51 326.35 25.51H326.34ZM326.21 8.07001H328.83V3.19H326.21V8.07001ZM330.93 25.51L330.64 25.24C331.74 23.58 332.49 21.54 332.89 19.12C333.15 17.46 333.29 15.28 333.29 12.57V5.23001L336.5 6.42001H338.28V0.640015L341.96 0.959991C341.92 1.34999 341.63 1.58999 341.09 1.67999V3.76999H342.84L344.27 1.84C344.59 2.1 344.91 2.35999 345.22 2.60999C345.93 3.20999 346.48 3.71 346.89 4.09C346.82 4.37 346.57 4.51001 346.15 4.51001H341.09V6.42001H343.82L345.12 5.07001L347.51 7.32001C347.35 7.46001 347.01 7.55999 346.5 7.60999C345.79 8.15999 344.98 8.69001 344.06 9.20001C344.34 9.38001 344.74 9.66999 345.25 10.08C345.21 10.4 345.02 10.57 344.67 10.61L340.72 10.98V12.17C340.72 12.33 340.76 12.43 340.84 12.49C340.92 12.54 341.09 12.57 341.36 12.57H342.82C343.53 12.57 343.96 12.57 344.12 12.54C344.37 12.54 344.55 12.49 344.68 12.38C344.86 12.15 345.1 11.64 345.42 10.84H345.71L345.82 12.38C346.37 12.59 346.64 12.9 346.64 13.31C346.64 13.82 346.35 14.18 345.77 14.37C345.19 14.56 344.11 14.66 342.54 14.66H340.66C339.65 14.66 338.99 14.52 338.67 14.24C338.39 13.97 338.25 13.44 338.25 12.65V11.19L336.08 11.4V12.57C336.08 15.31 335.82 17.53 335.31 19.25C334.53 21.85 333.08 23.93 330.96 25.5L330.93 25.51ZM334.06 25.51L333.85 25.19C336.29 23.19 337.42 20.03 337.24 15.7L340.92 16.28C340.83 16.69 340.5 16.92 339.94 16.97C339.71 18.88 339.22 20.46 338.46 21.71C337.49 23.35 336.02 24.62 334.06 25.5V25.51ZM336.05 10.64L338.22 10.43V7.54001L341.48 7.85999C341.44 8.20999 341.19 8.43 340.71 8.5V10.2L342.25 10.07L343.2 8.64001L343.62 8.92999C343.73 8.41999 343.84 7.82999 343.96 7.14999H336.04V10.65L336.05 10.64ZM343.15 25.19C342.27 25.19 341.69 25.03 341.43 24.71C341.2 24.43 341.09 23.86 341.09 23.01V15.59L344.48 15.88C344.43 16.25 344.17 16.48 343.71 16.57V22.32C343.71 22.46 343.73 22.56 343.78 22.61C343.82 22.66 343.92 22.69 344.06 22.69H345.12C345.28 22.69 345.41 22.6 345.52 22.43C345.64 22.2 345.93 21.26 346.39 19.59H346.68L346.79 22.56C347.07 22.68 347.27 22.83 347.37 23.01C347.44 23.15 347.48 23.35 347.48 23.62C347.48 24.66 346.43 25.18 344.33 25.18H343.16L343.15 25.19Z" fill="white"/>
<path d="M351.97 29.27L351.63 28.5C352.74 27.9 353.6 27.28 354.2 26.64C354.87 25.93 355.35 25.08 355.63 24.1L354.41 23.36C353.51 22.83 353.06 22.14 353.06 21.29C353.06 20.69 353.25 20.19 353.64 19.79C354.03 19.39 354.53 19.19 355.15 19.19C355.86 19.19 356.47 19.44 356.98 19.93C357.24 20.55 357.38 21.26 357.38 22.05C357.38 23.73 356.81 25.26 355.66 26.63C354.65 27.83 353.42 28.71 351.98 29.25L351.97 29.27Z" fill="white"/>
<path d="M2.45 67.56L0.75 63.98C1.79 63.79 2.99 63.52 4.35 63.19L4.09 46.2L8.25 46.49C8.21 46.91 7.9 47.17 7.3 47.26L7.54 62.34C9.71 61.76 11.92 61.12 14.17 60.43L14.25 60.75C11.14 62.78 7.44 64.81 3.15 66.85C2.99 67.22 2.76 67.46 2.46 67.57L2.45 67.56ZM6.88 69.57L6.64 69.15C10.62 67.35 13.59 65.31 15.57 63.03C17.32 61.02 18.49 58.54 19.07 55.61C19.48 53.61 19.72 50.5 19.79 46.28L24.24 46.68C24.15 47.16 23.82 47.42 23.23 47.48C23.07 51.01 22.83 53.64 22.51 55.35C22.03 57.93 21.21 60.08 20.05 61.79C21.94 62.5 23.4 63.39 24.42 64.47C25.29 65.37 25.75 66.28 25.82 67.2C25.87 68.03 25.62 68.62 25.05 68.98C24.47 69.33 23.78 69.26 22.98 68.77C22.34 67.07 21.11 65.09 19.27 62.81C16.85 65.73 12.71 67.99 6.87 69.59L6.88 69.57ZM13.21 55.66C12.77 53.84 11.65 51.76 9.84 49.43L10.08 49.27C12.09 49.84 13.63 50.62 14.69 51.63C15.57 52.46 16.04 53.33 16.09 54.23C16.13 55.04 15.85 55.62 15.27 55.95C14.65 56.3 13.96 56.21 13.2 55.66H13.21Z" fill="white"/>
<path d="M33.17 69.57V55.52C32.16 56.69 31.11 57.7 30.02 58.57L29.7 58.36C30.81 56.66 31.85 54.61 32.8 52.21C33.81 49.7 34.57 47.18 35.08 44.66L39.35 45.96C39.26 46.35 38.92 46.53 38.32 46.52C37.54 48.55 36.66 50.39 35.67 52.03L37.13 52.56C37.04 52.82 36.77 52.99 36.31 53.06V68.64C36.27 68.8 36 68.99 35.49 69.2C34.91 69.45 34.33 69.57 33.77 69.57H33.19H33.17ZM36.38 69.62L36.19 69.33C39.6 68.06 41.89 66.44 43.05 64.48C42.41 63.6 41.88 62.58 41.46 61.43C40.82 62.42 40.21 63.3 39.6 64.08C39.72 64.34 39.66 64.57 39.41 64.74L38.11 62.7C39.06 62.26 40.1 61.64 41.21 60.84L41.53 59.7L42.54 60.2L41.69 61.05C42.17 61.83 42.82 62.53 43.65 63.17C44.04 62.09 44.28 60.77 44.37 59.19H41.48V59.38C41.48 59.54 41.21 59.73 40.66 59.96C40.06 60.21 39.48 60.33 38.91 60.33H38.49V49.38L41.64 50.63H44.4V47.79H38.52L38.31 47.05H50.24L52.02 44.74C53.08 45.61 54.14 46.48 55.2 47.36C55.13 47.64 54.87 47.78 54.43 47.78H47.51V50.62H50.35L51.78 49.06L54.77 51.31C54.56 51.59 54.2 51.79 53.71 51.89V59.42C53.69 59.54 53.38 59.69 52.78 59.87C52.16 60.08 51.61 60.19 51.14 60.19H50.61V59.18H47.48C47.36 61.37 46.88 63.14 46.05 64.48C48.58 65.52 51.7 66.02 55.43 65.96L55.4 66.28C54.78 66.47 54.26 66.85 53.84 67.39C53.4 67.96 53.12 68.63 52.99 69.4C49.3 68.87 46.51 67.78 44.62 66.14C42.89 67.68 40.14 68.83 36.38 69.59V69.62ZM41.49 54.51H44.41V51.38H41.49V54.51ZM41.49 58.46H44.41V55.25H41.49V58.46ZM47.51 54.51H50.61V51.38H47.51V54.51ZM47.51 58.46H50.61V55.25H47.51V58.46Z" fill="white"/>
<path d="M62.5 69.57V57.49C61.42 58.43 60.34 59.24 59.24 59.93L59 59.69C60.11 58.35 61.23 56.69 62.34 54.71C63.35 52.91 64.13 51.26 64.7 49.78L68.52 51.82C68.4 52.12 68.06 52.24 67.51 52.19C66.73 53.22 65.88 54.2 64.97 55.13L66.35 55.66C66.24 55.91 65.97 56.07 65.53 56.14V68.54C65.51 68.72 65.26 68.93 64.76 69.18C64.21 69.44 63.65 69.58 63.06 69.58H62.5V69.57ZM59.53 52.03L59.29 51.76C60.24 50.82 61.21 49.66 62.18 48.26C63.06 46.97 63.76 45.78 64.27 44.68L67.8 46.77C67.64 47.07 67.3 47.18 66.79 47.09C65.85 47.99 64.78 48.87 63.58 49.71C62.22 50.65 60.87 51.42 59.53 52.02V52.03ZM82.14 69.55C79.33 68.7 77.1 67.55 75.46 66.1C72.92 67.74 69.84 68.87 66.24 69.49L66.08 69.15C69.31 68.02 71.95 66.46 73.98 64.49C73.29 63.59 72.71 62.56 72.23 61.39C70.64 63 68.75 64.29 66.56 65.26L66.27 64.97C67.35 64.05 68.36 62.9 69.32 61.52C70.33 60.07 71.16 58.53 71.81 56.91C71.46 56.98 70.92 57.08 70.19 57.2C69.66 57.31 69.25 57.39 68.97 57.44C68.83 57.76 68.57 57.95 68.2 58.02L67.17 54.63C67.84 54.65 69.33 54.63 71.65 54.6H72.26C73.36 53.45 74.42 52.15 75.47 50.7C76.46 49.32 77.25 48.09 77.83 46.99L81.33 49.14C81.15 49.42 80.81 49.52 80.3 49.43C78.39 51.34 76.23 53.05 73.81 54.57C75.26 54.53 77.22 54.48 79.69 54.41C79.28 53.72 78.71 52.92 77.97 52L78.23 51.84C80.01 52.33 81.38 53.02 82.34 53.88C83.12 54.6 83.53 55.36 83.59 56.16C83.62 56.88 83.39 57.4 82.87 57.7C82.32 58.02 81.72 57.94 81.07 57.46C80.89 56.74 80.58 55.98 80.14 55.18C78.73 55.52 76.64 55.96 73.89 56.51L76.09 57.17C75.97 57.52 75.62 57.69 75.06 57.67C74.76 58.2 74.45 58.69 74.13 59.13H77.2L79 57.43L81.92 60.03C81.83 60.17 81.71 60.27 81.55 60.32C81.43 60.36 81.2 60.39 80.86 60.43C79.98 62 78.85 63.4 77.47 64.62C79.41 65.45 81.78 66.02 84.57 66.34V66.63C83.3 66.98 82.49 67.96 82.16 69.55H82.14ZM71.12 52.88C70.71 51.91 69.72 50.46 68.12 48.53C68.07 48.48 68.03 48.43 68.01 48.4L68.22 48.21C69.47 48.4 70.54 48.72 71.43 49.16C72.05 47.91 72.64 46.41 73.21 44.68L77.08 46.35C76.92 46.72 76.56 46.87 75.99 46.8C74.93 47.91 73.71 48.88 72.33 49.72C73.05 50.29 73.44 50.91 73.5 51.6C73.55 52.22 73.33 52.67 72.84 52.95C72.34 53.25 71.77 53.22 71.12 52.87V52.88ZM75.04 63.32C75.94 62.26 76.66 61.12 77.19 59.9H73.53C73.25 60.27 72.96 60.62 72.66 60.93C73.28 61.81 74.07 62.61 75.05 63.32H75.04Z" fill="white"/>
<path d="M90.01 52.88C89.92 51.71 89.36 50.49 88.34 49.22L88.58 49.06C89.39 49.24 90.07 49.47 90.62 49.75C90.97 48.48 91.36 46.78 91.79 44.66L95.66 45.91C95.52 46.26 95.17 46.44 94.6 46.44C93.5 47.94 92.42 49.2 91.34 50.2C92.01 50.73 92.35 51.31 92.35 51.95C92.33 52.53 92.09 52.94 91.61 53.17C91.1 53.4 90.57 53.3 90.02 52.88H90.01ZM109.91 68.99C109.03 67.79 107.66 66.85 105.8 66.18L105.93 65.86C106.88 65.9 107.71 65.95 108.42 66.02V65.15H102.14V65.63C102.14 65.79 101.88 65.98 101.35 66.19C100.77 66.44 100.19 66.56 99.63 66.56H99.21V57.28C99.03 57.33 98.86 57.36 98.68 57.36C98.72 58.07 98.46 58.56 97.92 58.83C97.38 59.1 96.83 58.98 96.26 58.45C96.26 57.94 96.17 57.35 96 56.7L94.91 57.07V68.81C94.91 68.93 94.71 69.09 94.3 69.29C93.8 69.5 93.26 69.61 92.66 69.61H92.16V61.32C92.05 61.36 91.96 61.37 91.87 61.37C91.11 64.09 90.07 66.15 88.74 67.55L88.34 67.34C88.99 65.29 89.38 62.87 89.51 60.08L92.16 60.61V58.01L90.12 58.7C89.98 59.02 89.74 59.2 89.4 59.26L88.37 56.37C88.6 56.37 89.01 56.37 89.62 56.34C90.19 56.3 90.63 56.29 90.95 56.29C92.33 53.6 93.54 50.83 94.58 47.97L98.26 49.27C98.1 49.64 97.75 49.79 97.2 49.72C95.79 51.8 94 53.98 91.85 56.24C92.03 56.24 92.3 56.24 92.67 56.21C94.03 56.14 95.07 56.09 95.8 56.05C95.57 55.33 95.28 54.64 94.93 53.98L95.22 53.85C96.49 54.4 97.42 55.03 98 55.76V50.35L100.78 51.46H109.63L110.82 50.21L113.39 52.07C113.18 52.28 112.9 52.42 112.57 52.49V56.6C112.55 56.69 112.35 56.8 111.96 56.93C111.57 57.06 111.17 57.17 110.77 57.24L112.31 58.38C112.12 58.61 111.82 58.76 111.44 58.83V65.3C111.42 65.42 111.13 65.57 110.57 65.75C109.97 65.96 109.44 66.07 108.98 66.07H108.72C110.49 66.28 111.73 66.66 112.46 67.21C113.06 67.65 113.24 68.13 112.99 68.64C112.78 69.1 112.35 69.39 111.72 69.51C111.03 69.63 110.44 69.47 109.94 69.01L109.91 68.99ZM96.13 64.7C96.15 63.27 95.8 61.68 95.1 59.93L95.42 59.8C96.66 60.45 97.53 61.2 98.04 62.05C98.48 62.76 98.64 63.43 98.52 64.06C98.38 64.64 98.07 65.01 97.59 65.17C97.09 65.33 96.61 65.17 96.13 64.69V64.7ZM96.9 69.6L96.66 69.26C97.79 68.8 98.94 68.19 100.1 67.43C101.23 66.69 102.11 65.98 102.75 65.31L105.67 67.35C105.48 67.6 105.14 67.66 104.66 67.54C103.74 68.03 102.57 68.47 101.15 68.84C99.73 69.21 98.31 69.47 96.9 69.61V69.6ZM99.26 50.12L99.05 49.38H103.79V47.71H97.85L97.64 46.97H103.79V44.8L107.63 45.12C107.59 45.49 107.32 45.72 106.81 45.81V46.98H109.14L110.65 45.12C110.97 45.37 111.29 45.62 111.63 45.86C112.37 46.44 112.95 46.92 113.38 47.29C113.31 47.57 113.07 47.71 112.66 47.71H110.14C111.02 48.36 111.84 49.03 112.6 49.7C112.55 49.98 112.31 50.12 111.88 50.12H99.24H99.26ZM102.28 57.7H108.19L109.54 56.3L109.83 56.51V56.19H100.61V56.59C100.61 56.7 100.49 56.8 100.24 56.91L102.28 57.7ZM100.61 55.42H109.83V54.52C109.49 54.59 108.97 54.63 108.27 54.63H107.34C106.7 54.63 106.28 54.52 106.07 54.29C105.89 54.1 105.81 53.71 105.81 53.12V52.19H104.72C104.6 52.93 104.26 53.52 103.71 53.94C103.07 54.45 102.06 54.85 100.66 55.13L100.61 55.08V55.42ZM100.61 54.65C101.32 54.33 101.83 53.96 102.15 53.54C102.4 53.19 102.55 52.74 102.6 52.19H100.61V54.65ZM102.15 59.9H108.43V58.44H102.15V59.9ZM102.15 62.13H108.43V60.67H102.15V62.13ZM102.15 64.41H108.43V62.9H102.15V64.41ZM106.81 49.38H108.59L109.94 47.71H106.81V49.38ZM108 53.14H108.95C109.13 53.14 109.24 53.14 109.29 53.11C109.47 53.11 109.62 53.08 109.74 53.03H109.82V52.18H107.7V52.82C107.7 53.03 107.8 53.14 107.99 53.14H108Z" fill="white"/>
<path d="M117.92 69.55L117.63 69.18C120.56 67.04 122.77 64.61 124.26 61.89C125.51 59.63 126.34 57 126.72 53.99C126.95 52.21 127.07 49.49 127.09 45.83V45.11L131.46 45.53C131.41 45.95 131.08 46.2 130.48 46.27C130.78 51.69 131.73 55.84 133.34 58.7C135.18 61.97 138.26 64.4 142.59 65.99L142.54 66.31C140.93 66.61 139.95 67.64 139.6 69.41C136.45 67.73 134.15 65.3 132.68 62.12C131.43 59.43 130.62 55.79 130.27 51.17C129.99 55.23 129.11 58.55 127.65 61.11C125.71 64.55 122.46 67.36 117.92 69.54V69.55Z" fill="white"/>
<path d="M146.94 69.55L146.78 69.26C148.44 68.69 150.08 67.89 151.68 66.85C153.16 65.9 154.3 64.96 155.1 64.04L159.42 65.87C159.24 66.22 158.74 66.37 157.91 66.32C156.57 67.1 154.97 67.77 153.11 68.33C151.1 68.95 149.04 69.35 146.94 69.55ZM150.09 65.28V51.95L151.04 52.32V45.08L154.3 46.33H163.97L165.37 44.79L168.42 47.04C168.21 47.3 167.85 47.49 167.33 47.6V51.23C167.31 51.32 167 51.45 166.4 51.63C165.76 51.82 165.22 51.92 164.76 51.92H164.23V51.2H154.11V51.52C154.11 51.66 153.83 51.84 153.26 52.05C152.62 52.3 152.02 52.42 151.46 52.42H151.27L153.42 53.27H165L166.48 51.65L169.5 53.98C169.29 54.26 168.94 54.45 168.47 54.54V63.84C168.45 63.95 168.13 64.1 167.52 64.29C166.87 64.5 166.29 64.61 165.8 64.61H165.27V63.6H153.21V64.24C153.21 64.42 152.93 64.63 152.36 64.88C151.76 65.15 151.15 65.28 150.53 65.28H150.08H150.09ZM153.22 56.38H165.28V54.05H153.22V56.38ZM153.22 59.56H165.28V57.12H153.22V59.56ZM153.22 62.85H165.28V60.33H153.22V62.85ZM154.12 50.47H164.24V47.1H154.12V50.47ZM170.42 68.93C170.14 69.49 169.59 69.72 168.78 69.63C167.88 68.87 166.63 68.03 165.04 67.11C163.49 66.21 162.07 65.5 160.8 64.99L160.96 64.67C163.4 64.55 165.45 64.75 167.11 65.28C168.49 65.72 169.48 66.32 170.08 67.08C170.59 67.75 170.71 68.37 170.42 68.92V68.93Z" fill="white"/>
<path d="M178.5 69.57V53.19H175.96L175.75 52.42H178.51V44.71L182.51 45.11C182.42 45.52 182.09 45.76 181.53 45.85V52.42H181.93L183.26 50.35C183.54 50.63 183.83 50.92 184.11 51.2C184.76 51.84 185.26 52.36 185.59 52.76C185.54 53.04 185.32 53.18 184.93 53.18H181.54V68.5C181.54 68.68 181.28 68.9 180.75 69.16C180.17 69.42 179.62 69.56 179.11 69.56H178.53L178.5 69.57ZM186.9 69.38C186.9 68.57 186.78 68.03 186.55 67.76C186.34 67.48 185.88 67.25 185.17 67.07V66.65C185.95 66.72 186.58 66.76 187.08 66.76C187.4 66.76 187.63 66.69 187.77 66.55C188.21 66.13 188.49 63.7 188.59 59.26H187.24C187.03 61.29 186.61 63.03 185.99 64.48C185.18 66.39 183.94 68 182.28 69.3L181.94 68.93C182.93 67.57 183.65 66 184.11 64.21C184.48 62.8 184.71 61.14 184.8 59.25H182.87L182.63 58.51H184.83C184.87 57.82 184.88 56.82 184.88 55.52L188.3 55.81C188.25 56.18 187.96 56.41 187.43 56.5C187.41 56.92 187.37 57.6 187.3 58.51H188.36L189.63 57.24L191.17 58.51H193.53C193.57 57.13 193.58 56.12 193.58 55.46L197.13 55.75C197.08 56.14 196.78 56.37 196.23 56.44C196.21 56.85 196.17 57.48 196.1 58.35V58.51H197.4L198.73 57.21L201.19 59.2C201 59.43 200.65 59.58 200.16 59.65C200.09 62.57 199.94 64.66 199.71 65.94C199.48 67.22 199.09 68.09 198.54 68.55C197.87 69.1 196.98 69.37 195.86 69.37C195.86 68.49 195.74 67.91 195.52 67.65C195.26 67.33 194.73 67.08 193.96 66.88V66.48C194.81 66.55 195.51 66.59 196.05 66.59C196.38 66.59 196.62 66.52 196.77 66.38C197.25 65.96 197.54 63.58 197.64 59.25H196.05C195.82 61.33 195.39 63.09 194.75 64.52C193.88 66.43 192.57 68.04 190.8 69.34L190.46 68.99C191.5 67.61 192.27 66.02 192.77 64.22C193.16 62.81 193.41 61.15 193.51 59.24H191.89C191.73 59.4 191.42 59.52 190.96 59.61C190.89 62.61 190.75 64.74 190.54 66C190.33 67.26 189.97 68.11 189.45 68.57C188.81 69.1 187.97 69.36 186.91 69.36L186.9 69.38ZM183.51 55.68L183.32 55.36C186.41 53.84 188.38 51.62 189.23 48.71H184.75L184.51 47.97H189.44C189.63 47.07 189.75 45.97 189.78 44.68L193.76 45.18C193.67 45.59 193.34 45.82 192.78 45.87C192.67 46.65 192.53 47.35 192.36 47.96H195.54L196.92 46.64L199.41 48.71C199.2 48.92 198.86 49.05 198.4 49.11C198.26 50.61 198.05 51.79 197.76 52.63C197.44 53.5 197.01 54.11 196.46 54.46C195.77 54.88 194.83 55.1 193.62 55.1C193.62 54.25 193.47 53.68 193.17 53.38C192.8 53.01 192.14 52.73 191.21 52.53V52.19C192.59 52.28 193.51 52.32 193.97 52.32C194.36 52.32 194.62 52.27 194.77 52.16C195.21 51.81 195.53 50.66 195.72 48.72H192.09C190.89 52.06 188.03 54.38 183.5 55.69L183.51 55.68Z" fill="white"/>
<path d="M206.06 67.82L204.63 64.08C204.89 64.06 205.38 63.99 206.09 63.87C206.43 63.84 206.68 63.8 206.86 63.76V45.69L209.93 47.07H212.82L214.22 45.56L216.98 47.76C216.77 48.02 216.41 48.21 215.89 48.32V62.13L217.96 61.73L217.99 62.07C215.32 63.52 211.59 65.21 206.81 67.13C206.67 67.5 206.42 67.73 206.07 67.82H206.06ZM209.58 52.4H213.08V47.84H209.58V52.4ZM209.58 57.78H213.08V53.14H209.58V57.78ZM209.58 63.32C209.93 63.27 210.47 63.17 211.2 63.03C212.03 62.87 212.66 62.76 213.08 62.68V58.52H209.58V63.32ZM212.63 69.57L212.37 69.17C215.14 67.16 217.08 64.7 218.17 61.8C219.05 59.49 219.55 56.37 219.65 52.44H216.5L216.26 51.7H219.68C219.7 50.76 219.7 49.31 219.68 47.35V44.94L223.76 45.34C223.71 45.76 223.39 46.02 222.81 46.11C222.81 46.53 222.81 47.15 222.78 47.97C222.76 49.67 222.74 50.91 222.73 51.71H225.67L227.26 50.09L229.99 52.45C229.76 52.71 229.37 52.88 228.82 52.95C228.7 57.9 228.48 61.46 228.18 63.63C227.88 65.93 227.38 67.43 226.67 68.14C225.8 69.01 224.61 69.43 223.09 69.41C223.09 68.38 222.93 67.7 222.61 67.37C222.2 66.91 221.41 66.55 220.22 66.28V65.91C220.31 65.91 220.45 65.91 220.64 65.94C222.18 66.06 223.11 66.13 223.45 66.13C223.86 66.13 224.17 66.02 224.4 65.79C224.84 65.38 225.19 64.06 225.43 61.81C225.64 59.81 225.8 56.7 225.91 52.45H222.65C222.54 55.26 222.25 57.56 221.78 59.37C221.18 61.6 220.2 63.5 218.84 65.09C217.34 66.84 215.26 68.33 212.61 69.57H212.63Z" fill="white"/>
<path d="M237.81 60.98V53.51C236.77 54.62 235.66 55.59 234.5 56.43L234.21 56.22C235.18 54.77 236.11 53.04 236.99 51.03C237.93 48.89 238.66 46.77 239.19 44.67L243.43 46.18C243.31 46.55 242.95 46.73 242.37 46.71C241.8 47.89 241.16 49.04 240.44 50.15L241.74 50.63C241.65 50.88 241.39 51.04 240.94 51.11V60.17C240.9 60.31 240.62 60.48 240.09 60.67C239.51 60.88 238.93 60.99 238.37 60.99H237.81V60.98ZM235.56 67.84C235.01 67.7 234.66 67.38 234.5 66.89C234.36 66.43 234.4 66.01 234.63 65.62C234.84 65.27 235.18 64.98 235.64 64.77C236.31 64.49 236.9 64.03 237.42 63.39C238 62.68 238.32 61.91 238.37 61.08L238.72 61.11C239.23 62.7 239.29 64.11 238.88 65.35C238.54 66.41 237.95 67.17 237.1 67.63C236.61 67.91 236.09 67.98 235.56 67.84ZM244.36 68.98C242.93 68.98 241.99 68.81 241.55 68.48C241.11 68.14 240.89 67.45 240.89 66.41V60.61L244.71 60.93C244.66 61.3 244.38 61.52 243.89 61.59V65.75C243.89 65.94 243.95 66.07 244.08 66.12C244.2 66.19 244.5 66.23 244.96 66.23H247.9C249.24 66.23 250.04 66.23 250.29 66.2C250.63 66.18 250.88 66.07 251.06 65.86C251.32 65.49 251.72 64.55 252.25 63.05H252.54L252.62 65.91C253.03 66.07 253.31 66.24 253.47 66.43C253.63 66.62 253.71 66.85 253.71 67.13C253.71 67.8 253.3 68.27 252.49 68.53C251.59 68.83 249.95 68.98 247.59 68.98H244.38H244.36ZM242.24 54.06L241.92 53.85C242.63 52.72 243.27 51.35 243.85 49.74C244.47 48.1 244.94 46.43 245.25 44.73L249.44 46.06C249.32 46.41 248.97 46.59 248.41 46.59C248.15 47.14 247.9 47.62 247.67 48.05H254.83L256.45 46.41L259.26 49.09C259.08 49.27 258.74 49.38 258.23 49.43C257.12 50.42 255.84 51.28 254.39 52L254.18 51.84C254.48 50.99 254.75 49.98 255 48.79H247.24C245.84 51.03 244.18 52.79 242.26 54.06H242.24ZM248.52 60.42C248.43 59.32 248.26 58.61 248.02 58.27C247.63 57.78 246.99 57.45 246.11 57.29V56.95C246.99 57 247.88 57.06 248.76 57.11C249.06 57.11 249.21 56.98 249.21 56.71V52.76C249 52.9 248.72 52.96 248.39 52.95C247.03 55.37 245.18 57.12 242.85 58.2L242.56 57.96C243.2 57.15 243.78 56.14 244.31 54.94C244.86 53.7 245.28 52.42 245.58 51.1L249.21 52.4V49.03L253.11 49.37C253.06 49.74 252.77 49.96 252.24 50.03V56.84C252.24 58.01 252.04 58.83 251.63 59.3C251.1 59.9 250.07 60.27 248.53 60.41L248.52 60.42ZM247.25 64.1C247.07 63.36 246.71 62.58 246.16 61.77C245.67 61.01 245.11 60.37 244.49 59.84L244.7 59.63C246.41 59.81 247.72 60.23 248.62 60.9C249.38 61.47 249.77 62.11 249.79 62.83C249.82 63.48 249.58 63.96 249.05 64.26C248.5 64.58 247.9 64.52 247.25 64.1ZM256 67.31C255.77 66.29 255.28 65.21 254.52 64.08C253.81 63.02 253.01 62.12 252.11 61.38L252.32 61.19C254.42 61.54 256.06 62.19 257.22 63.12C258.17 63.88 258.69 64.72 258.78 65.64C258.87 66.49 258.63 67.11 258.06 67.5C257.44 67.91 256.75 67.84 255.99 67.31H256ZM255.55 57.69C255.41 56.72 255.04 55.64 254.44 54.46C253.93 53.44 253.32 52.47 252.61 51.57L252.88 51.41C254.75 52.01 256.17 52.81 257.12 53.82C257.91 54.67 258.32 55.53 258.34 56.42C258.34 57.21 258.06 57.76 257.49 58.06C256.89 58.38 256.24 58.25 255.56 57.69H255.55Z" fill="white"/>
<path d="M267.15 69.57V58.73C266.11 60.41 264.82 61.95 263.28 63.34L262.93 63.05C264.73 60.26 266.02 56.58 266.8 52.03H263.75L263.54 51.26H267.14V44.74L271.14 45.14C271.05 45.56 270.72 45.82 270.16 45.91V51.26H270.48L271.83 49.22C272.11 49.5 272.4 49.78 272.68 50.04C273.33 50.68 273.83 51.2 274.16 51.6C274.11 51.88 273.88 52.02 273.47 52.02H270.16V55.09C271.56 55.53 272.59 56.12 273.26 56.84C273.81 57.44 274.05 58.05 273.98 58.67C273.89 59.24 273.61 59.62 273.13 59.81C272.62 60 272.1 59.87 271.57 59.41C271.46 58.37 271 57.13 270.17 55.7V68.66C270.17 68.82 269.91 69 269.4 69.22C268.83 69.45 268.29 69.56 267.76 69.56H267.15V69.57ZM285.46 69.12C285.12 67.64 284.24 66.05 282.81 64.35C279.93 66.79 276.23 68.55 271.71 69.62L271.55 69.25C274.52 67.96 276.98 66.44 278.94 64.69C281.2 62.69 283.06 60.21 284.51 57.24L288.33 59.2C288.17 59.48 287.77 59.59 287.14 59.52C286.12 61 284.93 62.39 283.59 63.68C285.2 64.14 286.42 64.78 287.25 65.61C287.94 66.32 288.27 67.06 288.23 67.84C288.21 68.55 287.93 69.04 287.38 69.32C286.8 69.64 286.16 69.57 285.47 69.11L285.46 69.12ZM272.85 63.82L272.64 63.45C277.09 60.84 280.53 57.04 282.95 52.05L286.63 53.98C286.45 54.28 286.09 54.39 285.54 54.3C282.36 58.73 278.13 61.91 272.85 63.81V63.82ZM276.4 57.83C276.12 57.05 275.62 56.21 274.92 55.31C274.27 54.46 273.58 53.74 272.85 53.14L273.06 52.95C274.54 53.09 275.77 53.41 276.74 53.9C277.23 52.79 277.69 51.51 278.12 50.08H273.16L272.95 49.34H278.81V44.91L282.71 45.23C282.66 45.6 282.37 45.83 281.86 45.92V49.34H283.98L285.57 47.14C285.92 47.42 286.27 47.71 286.6 48.01C287.38 48.68 288 49.23 288.46 49.65C288.39 49.93 288.15 50.07 287.74 50.07H279.26L282.18 51.13C282.02 51.5 281.67 51.66 281.12 51.61C280.04 52.74 278.89 53.7 277.65 54.5C278.37 55.07 278.76 55.71 278.82 56.43C278.86 57.07 278.63 57.54 278.16 57.86C277.67 58.2 277.08 58.18 276.41 57.81L276.4 57.83Z" fill="white"/>
<path d="M294.05 69.17L292.57 65.57C293.22 65.53 294.66 65.42 296.89 65.23C297.37 65.18 297.73 65.14 297.98 65.12V61.54H294.16L293.95 60.77H297.98V57.43H293.53L293.32 56.69H300.34C300.69 55.31 301 53.77 301.27 52.08H295.68C296.88 52.56 297.72 53.15 298.2 53.86C298.61 54.46 298.71 55.05 298.52 55.64C298.34 56.17 298 56.5 297.49 56.62C296.94 56.76 296.42 56.58 295.93 56.09C296.04 54.82 295.74 53.48 295.03 52.09H292.7L292.49 51.32H296.57V44.72L299.64 45.04C299.59 45.34 299.35 45.53 298.92 45.6V51.32H300.14V44.72L303.27 45.04C303.22 45.38 302.95 45.59 302.47 45.68V51.33H303.8L305.2 49.53C305.52 49.78 305.83 50.03 306.13 50.27C306.84 50.84 307.39 51.3 307.8 51.67C307.73 51.95 307.49 52.09 307.08 52.09H302.2L305.04 52.75C304.95 53.12 304.62 53.31 304.06 53.31C303.19 54.42 302.17 55.55 300.99 56.7H302.66L304.01 55C304.84 55.67 305.66 56.35 306.48 57.04C306.41 57.3 306.17 57.44 305.76 57.44H301.02V60.78H301.9L303.33 58.93C304.2 59.65 305.06 60.39 305.93 61.13C305.86 61.41 305.62 61.55 305.21 61.55H301.02V64.84C302.19 64.72 304.02 64.51 306.53 64.23L306.58 64.6C303.47 65.8 299.56 67.12 294.84 68.55C294.66 68.88 294.41 69.1 294.07 69.19L294.05 69.17ZM293.94 50.14C293.96 49.43 293.84 48.66 293.6 47.81C293.37 47.05 293.07 46.35 292.7 45.72L292.99 45.56C294.31 46.09 295.27 46.74 295.85 47.52C296.33 48.17 296.5 48.83 296.38 49.48C296.27 50.06 295.97 50.44 295.48 50.62C294.95 50.8 294.44 50.64 293.94 50.14ZM302.79 50.62L302.45 50.43C303 48.96 303.55 47.3 304.09 45.45L307.67 46.91C307.51 47.26 307.17 47.41 306.64 47.36C305.17 48.79 303.89 49.88 302.8 50.62H302.79ZM310.82 69.57C310.73 68.51 310.52 67.8 310.18 67.45C309.72 66.94 308.95 66.59 307.87 66.42V66.05C308.98 66.1 310.09 66.16 311.18 66.24C311.57 66.24 311.76 66.07 311.76 65.74V53.02H306.27L306.06 52.25H311.76V45.01L315.68 45.41C315.59 45.82 315.27 46.06 314.73 46.15V52.19L315.92 50.26C316.18 50.52 316.45 50.8 316.71 51.08C317.31 51.7 317.77 52.2 318.09 52.59C318.02 52.87 317.79 53.01 317.4 53.01H314.72V65.97C314.72 67.14 314.5 67.97 314.06 68.46C313.51 69.06 312.43 69.43 310.8 69.57H310.82ZM308.01 60.69C308.12 58.91 307.7 57 306.76 54.97L307.02 54.84C308.54 55.55 309.63 56.4 310.31 57.41C310.88 58.24 311.09 59.06 310.95 59.87C310.79 60.61 310.42 61.09 309.84 61.3C309.22 61.51 308.61 61.3 308.01 60.69Z" fill="white"/>
<path d="M324.58 69.57C324.54 68.58 324.39 67.88 324.1 67.48C323.76 67.02 323.07 66.69 322.03 66.5V66.16C322.97 66.2 323.89 66.24 324.81 66.29C325.15 66.29 325.31 66.14 325.31 65.84V55.42H321.81L321.57 54.68H329.73L331.27 53.12L333.44 55.21V49.51L336.57 50.78H337.55C337.62 49.99 337.69 48.98 337.76 47.76H332.99L333.12 47.89C333 48.05 332.64 48.15 332.06 48.21C331.16 49.02 329.8 49.9 327.98 50.83C328.65 51.41 329 52.05 329.04 52.74C329.06 53.38 328.82 53.84 328.32 54.14C327.81 54.46 327.22 54.42 326.57 54.03C326.34 53.23 325.87 52.4 325.17 51.51C324.53 50.7 323.83 50.01 323.05 49.44L323.26 49.25C324.87 49.37 326.16 49.71 327.13 50.26C327.73 49.39 328.26 48.51 328.72 47.61H322.25L322.01 46.84H328.77L330.39 45.25L332.19 46.97H341.97L343.69 44.77C344.06 45.07 344.42 45.36 344.78 45.64C345.61 46.33 346.26 46.89 346.74 47.31C346.69 47.59 346.45 47.73 346.02 47.73H341.14C340.15 48.98 339.23 49.99 338.38 50.75H341.59L342.94 49.27L345.72 51.42C345.56 51.63 345.26 51.79 344.82 51.9V63.61C344.8 63.73 344.51 63.89 343.94 64.09C343.34 64.3 342.79 64.41 342.3 64.41H341.8V63.38H336.42V63.8C336.42 63.85 336.37 63.92 336.26 64.01L339.57 66.08C339.45 66.29 339.16 66.34 338.72 66.24C337.84 66.91 336.57 67.57 334.93 68.2C333.34 68.82 331.79 69.27 330.27 69.55L330.08 69.21C331.18 68.61 332.29 67.83 333.43 66.88C334.57 65.93 335.45 65.03 336.07 64.18C335.43 64.59 334.71 64.79 333.9 64.79H333.42V55.94C333.24 55.98 333.07 55.99 332.89 55.99C331.76 57.65 330.61 59.06 329.44 60.23L329.17 60.04C329.45 58.75 329.71 57.2 329.94 55.4H328.19V65.87C328.19 67.02 327.98 67.85 327.55 68.36C327.02 69.03 326.01 69.43 324.53 69.55L324.58 69.57ZM336.45 54.7H341.83V51.52H336.45V54.7ZM336.45 58.65H341.83V55.44H336.45V58.65ZM336.45 62.63H341.83V59.4H336.45V62.63ZM345.5 69.2C345.03 69.62 344.43 69.67 343.68 69.33C343.29 68.52 342.66 67.62 341.77 66.65C340.99 65.8 340.19 65.05 339.36 64.4L339.57 64.19C341.51 64.33 343.06 64.76 344.21 65.46C345.16 66.03 345.74 66.71 345.93 67.5C346.11 68.21 345.96 68.77 345.49 69.2H345.5Z" fill="white"/>
<path d="M355.16 69.55V60.96C355.02 61 354.89 61.01 354.79 61.01C353.85 63.75 352.62 65.84 351.08 67.29L350.68 67.08C351.49 65 352.03 62.5 352.3 59.58L355.16 60.27V57.7C354.67 57.86 353.87 58.1 352.77 58.42C352.59 58.47 352.46 58.51 352.37 58.53C352.18 58.9 351.92 59.1 351.6 59.11L350.75 56.17C351.37 56.17 352.47 56.13 354.06 56.04C355.61 53.48 356.9 50.82 357.93 48.06L361.72 49.49C361.56 49.84 361.21 49.98 360.66 49.91C359.1 52.03 357.23 54.05 355.04 55.98C355.85 55.94 357.2 55.87 359.07 55.77C358.79 55.08 358.4 54.32 357.9 53.49L358.16 53.36C359.4 53.78 360.36 54.31 361.05 54.95C361.67 53.64 362.23 52.08 362.73 50.27C363.23 48.46 363.61 46.63 363.86 44.8L367.92 46.05C367.76 46.42 367.42 46.61 366.89 46.61C366.41 47.97 365.86 49.25 365.22 50.45H371.21L372.91 48.7L375.77 51.19C375.54 51.47 375.14 51.65 374.58 51.72C374.42 56.81 374.18 60.55 373.86 62.96C373.49 65.65 372.92 67.38 372.16 68.15C371.65 68.64 371.08 69 370.45 69.22C369.82 69.44 369.04 69.55 368.1 69.55C368.1 68.44 367.89 67.69 367.46 67.32C366.96 66.83 365.94 66.41 364.39 66.07V65.73C364.44 65.73 364.53 65.73 364.65 65.76C366.86 65.92 368.19 66 368.65 66C369.11 66 369.44 65.88 369.71 65.63C370.61 64.85 371.2 60.04 371.49 51.19H364.78C363.81 52.83 362.7 54.22 361.47 55.35C362.09 56.04 362.37 56.75 362.32 57.47C362.27 58.12 361.99 58.57 361.5 58.8C360.95 59.03 360.4 58.91 359.83 58.43C359.76 57.79 359.58 57.11 359.3 56.36L357.97 56.81V68.76C357.97 68.88 357.77 69.03 357.36 69.21C356.85 69.44 356.27 69.56 355.64 69.56H355.14L355.16 69.55ZM353.44 53.25C353.32 52.58 353.02 51.85 352.54 51.05C352.13 50.36 351.66 49.73 351.11 49.17L351.35 48.98C352.29 49.14 353.05 49.36 353.63 49.64C354.09 48.24 354.53 46.59 354.96 44.68L358.91 45.98C358.79 46.39 358.44 46.56 357.88 46.51C356.91 47.85 355.79 49.05 354.51 50.09C355.32 50.64 355.76 51.27 355.83 51.97C355.88 52.62 355.66 53.1 355.17 53.4C354.66 53.72 354.08 53.66 353.45 53.24L353.44 53.25ZM359.62 64.51C359.57 62.99 359.08 61.3 358.16 59.45L358.45 59.32C359.88 59.92 360.92 60.66 361.58 61.55C362.13 62.27 362.35 63 362.24 63.72C362.13 64.37 361.82 64.8 361.29 64.99C360.72 65.2 360.17 65.04 359.62 64.51ZM365.98 60.35C365.89 58.67 365.21 56.75 363.94 54.57L364.2 54.44C365.84 55.09 367.06 55.91 367.86 56.88C368.51 57.69 368.8 58.51 368.73 59.32C368.66 60.06 368.35 60.56 367.8 60.8C367.2 61.06 366.59 60.91 365.97 60.35H365.98Z" fill="white"/>
<path d="M381.69 55.45L380.13 52.08C381.97 51.87 384.97 51.39 389.14 50.65L389.19 50.94C387.07 52.25 384.8 53.53 382.38 54.78C382.26 55.1 382.03 55.32 381.69 55.44V55.45ZM380.92 69.58L380.81 69.24C382.47 68.75 384.13 68.06 385.79 67.17C387.41 66.3 388.67 65.46 389.55 64.63L392.92 66.86C392.65 67.18 392.14 67.25 391.38 67.07C390.18 67.71 388.61 68.25 386.66 68.71C384.77 69.15 382.85 69.44 380.91 69.58H380.92ZM384.79 49.44C384.56 48.77 384.15 48.04 383.57 47.27C383.04 46.58 382.47 46 381.85 45.52L382.06 45.31C383.79 45.33 385.13 45.63 386.09 46.21C386.88 46.69 387.31 47.29 387.36 48.01C387.43 48.65 387.2 49.13 386.67 49.47C386.12 49.84 385.49 49.83 384.79 49.44ZM384.79 66V53.54L388.05 54.81H397.22L398.62 53.3L401.56 55.53C401.35 55.78 401.03 55.94 400.61 56.01V64.57C400.59 64.69 400.28 64.84 399.68 65.02C399.04 65.23 398.49 65.34 398.01 65.34H397.48V64.31H387.86V65.03C387.86 65.19 387.59 65.39 387.04 65.64C386.44 65.89 385.85 66.01 385.26 66.01H384.78L384.79 66ZM402.65 55.21C400.71 54.73 399.21 53.9 398.14 52.72C397.27 51.77 396.67 50.49 396.31 48.9C395.76 50.44 394.74 51.65 393.24 52.53C391.84 53.36 389.92 53.97 387.46 54.36L387.38 54.02C389.27 53.38 390.7 52.62 391.66 51.71C392.62 50.81 393.25 49.66 393.53 48.26H391.75C390.42 49.37 389.05 50.19 387.62 50.7L387.41 50.49C388.17 49.84 388.86 48.97 389.48 47.89C390.08 46.85 390.52 45.77 390.8 44.66L394.83 45.56C394.72 45.83 394.4 45.95 393.85 45.93C393.44 46.51 393.01 47.03 392.55 47.49H400.29L401.75 46.01L404.32 48.48C404.13 48.67 403.78 48.78 403.29 48.8C402.14 49.63 400.87 50.29 399.47 50.79L399.21 50.66C399.54 50.04 399.91 49.25 400.3 48.27H396.72C397.11 49.42 397.92 50.32 399.16 50.97C400.45 51.66 402.34 52.15 404.83 52.45L404.8 52.79C404.09 52.93 403.58 53.17 403.26 53.51C402.91 53.88 402.7 54.45 402.65 55.21ZM387.86 57.7H397.48V55.58H387.86V57.7ZM387.86 60.59H397.48V58.44H387.86V60.59ZM387.86 63.56H397.48V61.36H387.86V63.56ZM400.13 69.05C398.43 67.65 396.16 66.56 393.32 65.76L393.4 65.42C396.16 65.46 398.38 65.67 400.08 66.06C401.49 66.4 402.47 66.83 403 67.36C403.44 67.82 403.53 68.27 403.26 68.71C403.01 69.12 402.57 69.37 401.94 69.48C401.27 69.59 400.67 69.44 400.14 69.06L400.13 69.05Z" fill="white"/>
<path d="M413.73 69.57V60.9C412.53 62.65 411.04 64.21 409.25 65.59L408.96 65.27C410.69 62.96 411.98 59.81 412.83 55.84H409.2L408.99 55.07H413.73V44.73L417.55 45.1C417.5 45.52 417.17 45.78 416.57 45.87V55.07H417.45L418.88 53.16C419.2 53.43 419.52 53.68 419.86 53.93C420.58 54.53 421.16 55.03 421.58 55.41C421.51 55.69 421.27 55.83 420.86 55.83H416.57V57.23C418.21 57.57 419.45 58.11 420.28 58.87C420.97 59.49 421.3 60.15 421.29 60.86C421.27 61.51 421.01 61.97 420.5 62.24C419.95 62.52 419.37 62.43 418.75 61.98C418.56 60.57 417.83 59.12 416.58 57.63V68.55C416.58 68.73 416.33 68.94 415.84 69.19C415.31 69.44 414.8 69.56 414.3 69.56H413.74L413.73 69.57ZM410.36 52.58C410.4 51.1 410.02 49.29 409.22 47.17L409.51 47.06C410.84 47.78 411.79 48.62 412.37 49.58C412.86 50.38 413.04 51.13 412.9 51.83C412.78 52.5 412.45 52.93 411.92 53.1C411.39 53.28 410.87 53.1 410.36 52.57V52.58ZM417.6 53.27L417.18 53.08C417.51 51.6 417.88 49.56 418.27 46.98L421.79 48.04C421.67 48.41 421.33 48.61 420.78 48.62C419.67 50.46 418.61 52 417.6 53.26V53.27ZM427.64 69.54V62.07L420.72 63.47L420.38 62.78L427.64 61.32V44.7L431.59 45.1C431.54 45.52 431.23 45.78 430.66 45.87V60.71L430.74 60.68L431.88 58.37C432.78 58.99 433.68 59.61 434.58 60.23C434.58 60.53 434.39 60.72 434 60.79L430.66 61.45V68.47C430.66 68.65 430.4 68.87 429.87 69.13C429.3 69.39 428.76 69.53 428.23 69.53H427.65L427.64 69.54ZM423.88 57.85C423.72 57.13 423.36 56.36 422.79 55.54C422.28 54.78 421.69 54.13 421.04 53.58L421.25 53.39C422.93 53.57 424.23 53.99 425.15 54.66C425.89 55.23 426.29 55.86 426.34 56.57C426.37 57.22 426.15 57.7 425.65 58C425.12 58.32 424.53 58.27 423.87 57.84L423.88 57.85ZM424.01 51.6C423.87 50.89 423.55 50.12 423.06 49.27C422.62 48.53 422.11 47.85 421.55 47.23L421.76 47.07C423.4 47.35 424.65 47.85 425.5 48.55C426.21 49.13 426.56 49.78 426.56 50.48C426.56 51.13 426.3 51.59 425.77 51.86C425.24 52.14 424.66 52.05 424.02 51.59L424.01 51.6Z" fill="white"/>
<path d="M442.01 69.41C440.98 69.41 440.1 69.04 439.36 68.3C438.62 67.56 438.25 66.68 438.25 65.65C438.25 64.62 438.62 63.75 439.35 63.01C440.08 62.27 440.97 61.91 442.01 61.91C443.05 61.91 443.94 62.27 444.66 63C445.38 63.72 445.75 64.61 445.75 65.65C445.75 66.69 445.38 67.58 444.65 68.31C443.92 69.04 443.04 69.41 442.01 69.41ZM442.01 68.46C442.77 68.46 443.42 68.19 443.97 67.64C444.52 67.09 444.79 66.43 444.79 65.65C444.79 64.87 444.52 64.21 443.98 63.68C443.44 63.14 442.78 62.87 442.01 62.87C441.24 62.87 440.57 63.14 440.02 63.68C439.47 64.22 439.2 64.88 439.2 65.65C439.2 66.42 439.47 67.09 440.02 67.64C440.57 68.19 441.23 68.46 442.01 68.46Z" fill="white"/>
</svg>
