<svg width="846" height="106" viewBox="0 0 846 106" fill="none" xmlns="http://www.w3.org/2000/svg">
<path d="M1.87999 74.57L0.97998 73.23C7.31998 69.43 13.1 64.69 18.33 59.02C23.25 53.65 27.28 47.9 30.42 41.78H3.21999L2.31999 38.53H31.53V22.19H7.46999L6.56999 18.94H31.53V0.139984L48.99 1.47998C48.77 3.19998 47.38 4.27998 44.85 4.72998V18.94H61.75V0.139984L79.32 1.47998C79.1 3.19998 77.71 4.27998 75.18 4.72998V18.94H84.36L91.07 9.75998C92.56 10.95 94.02 12.18 95.44 13.45C98.72 16.29 101.3 18.6 103.16 20.39C102.86 21.58 101.82 22.18 100.03 22.18H75.18V38.52H87.49L94.54 29.01C96.03 30.28 97.52 31.55 99.02 32.81C102.45 35.72 105.14 38.11 107.08 39.97C106.78 41.16 105.74 41.76 103.95 41.76H70.15C74.4 45.86 80.15 49.45 87.39 52.5C94.03 55.34 101.08 57.39 108.54 58.66L108.32 59.89C103.25 61.16 99.96 65.08 98.47 71.64C83.92 65.82 73.47 55.86 67.13 41.76H46.76C38.18 56.01 23.22 66.94 1.87999 74.55V74.57ZM18.11 92.48C15.65 92.11 14.04 90.99 13.3 89.12C12.48 87.03 13.08 84.64 15.09 81.96C18.15 80.32 20.91 78.04 23.37 75.13C26.06 71.92 27.99 68.34 29.19 64.39L30.64 64.5C32.06 71.29 32.17 77.04 30.98 81.74C29.93 85.7 28.07 88.64 25.38 90.58C23.07 92.22 20.64 92.86 18.11 92.48ZM38.03 105.46C37.65 101.21 36.95 98.33 35.9 96.84C34.18 94.9 31.42 93.56 27.62 92.81V91.24C31.42 91.46 35.23 91.69 39.04 91.91C40.23 91.91 40.83 91.35 40.83 90.23V51.95L56.95 53.29C56.73 54.86 55.46 55.79 53.14 56.09V90.78C53.14 95.55 52.28 98.95 50.57 100.96C48.48 103.35 44.3 104.84 38.04 105.44L38.03 105.46ZM44.86 38.53H61.76V22.19H44.86V38.53ZM62.43 90.68C63.1 83.07 61.94 74.53 58.96 65.05L60.3 64.6C65.75 68.33 69.59 72.47 71.83 77.02C73.69 80.75 74.29 84.26 73.62 87.54C72.95 90.6 71.49 92.5 69.25 93.25C66.86 94 64.59 93.14 62.42 90.68H62.43ZM86.27 91.24C84.7 82.96 80.08 73.86 72.39 63.93L73.51 63.26C81.57 65.95 87.72 69.49 91.98 73.89C95.56 77.55 97.43 81.28 97.58 85.08C97.8 88.59 96.72 91.05 94.33 92.47C91.94 93.89 89.25 93.48 86.27 91.24Z" fill="white"/>
<path d="M127.01 71.43L126.12 68.18H162.72C161.75 67.88 160.74 67.25 159.7 66.28C159.92 63.07 159.07 59.64 157.13 55.98C156.16 56.73 154.7 57.4 152.76 57.99C150.52 58.66 148.4 59 146.38 59H144.59V29.79L158.47 35.16H196.07L202 28.89L214.65 38.18C213.75 39.23 212.41 39.9 210.62 40.19V53.84C210.54 54.29 209.2 54.89 206.59 55.63C203.83 56.45 201.48 56.86 199.54 56.86H198.98L203.35 57.87C202.83 59.44 201.41 60.22 199.1 60.22C195.82 62.83 191.82 65.48 187.12 68.17H208.72L215.88 59.1C220.28 62.61 224.65 66.11 228.97 69.62C228.67 70.81 227.59 71.41 225.72 71.41H127.01V71.43ZM139.32 27.45L138.42 24.32H170.54V14.25H130.14L129.24 11.12H170.54V0.039978L188.34 1.49998C188.12 3.21998 186.73 4.25999 184.2 4.62999V11.12H205.69L213.08 2.04999C214.65 3.23999 216.25 4.43999 217.89 5.62999C221.47 8.38999 224.31 10.67 226.4 12.46C226.1 13.65 225.02 14.25 223.15 14.25H184.2V24.32H198.64L205.69 16.26C210.09 19.39 214.46 22.53 218.78 25.66C218.48 26.85 217.44 27.45 215.65 27.45H139.32ZM143.35 105.46V73.34L157.34 78.71H198.41L204.23 72.33L216.88 81.51C215.98 82.56 214.64 83.26 212.85 83.64V101.55C212.77 102 211.43 102.59 208.82 103.34C206.06 104.16 203.71 104.57 201.77 104.57H199.42V99.31H156.56V101.55C156.56 102.15 155.33 102.93 152.87 103.9C150.18 104.94 147.65 105.47 145.26 105.47H143.36L143.35 105.46ZM156.56 96.06H199.42V81.73H156.56V96.06ZM157.79 50.28H197.18V38.42H157.79V50.28ZM168.09 68.19H183.65C185.37 62.82 186.71 58.19 187.68 54.31L197.19 56.44V53.31H157.8V54.32C163.17 55.14 167.09 56.56 169.55 58.57C171.56 60.29 172.31 62.15 171.79 64.17C171.34 66.04 170.11 67.38 168.1 68.2L168.09 68.19Z" fill="white"/>
<path d="M263.66 69.08V37.52C259.26 42.22 254.59 46.32 249.67 49.83L248.44 48.93C252.54 42.81 256.46 35.5 260.19 26.99C264.14 17.96 267.24 9.00999 269.48 0.12999L287.39 6.50998C286.87 8.07998 285.38 8.81998 282.91 8.74998C280.52 13.75 277.8 18.6 274.74 23.3L280.22 25.31C279.85 26.36 278.73 27.03 276.86 27.32V65.6C276.71 66.2 275.52 66.91 273.28 67.73C270.82 68.63 268.39 69.07 266.01 69.07H263.66V69.08ZM254.15 98.07C251.84 97.47 250.35 96.13 249.67 94.04C249.07 92.1 249.26 90.31 250.23 88.67C251.13 87.18 252.54 85.98 254.48 85.09C257.31 83.9 259.81 81.96 261.98 79.27C264.44 76.29 265.79 73.04 266.01 69.53L267.47 69.64C269.63 76.35 269.86 82.33 268.14 87.55C266.72 92.03 264.22 95.24 260.64 97.17C258.55 98.36 256.39 98.66 254.15 98.07ZM291.31 102.88C285.27 102.88 281.31 102.17 279.45 100.75C277.58 99.33 276.65 96.42 276.65 92.02V67.51L292.77 68.85C292.55 70.42 291.39 71.35 289.3 71.65V89.22C289.3 90.04 289.56 90.56 290.08 90.79C290.6 91.09 291.83 91.24 293.77 91.24H306.19C311.86 91.24 315.22 91.2 316.26 91.13C317.68 91.06 318.76 90.57 319.51 89.67C320.63 88.1 322.31 84.15 324.55 77.81H325.78L326.12 89.9C327.83 90.57 329.03 91.3 329.7 92.08C330.37 92.86 330.71 93.85 330.71 95.05C330.71 97.89 328.99 99.86 325.56 100.98C321.75 102.25 314.85 102.88 304.85 102.88H291.31ZM282.36 39.87L281.02 38.97C284 34.2 286.73 28.41 289.19 21.62C291.8 14.68 293.78 7.62999 295.12 0.469986L312.8 6.06999C312.28 7.55999 310.82 8.30998 308.43 8.30998C307.31 10.62 306.27 12.67 305.3 14.47H335.52L342.35 7.52998L354.21 18.83C353.46 19.58 352.01 20.06 349.85 20.29C345.15 24.47 339.74 28.09 333.62 31.15L332.72 30.48C333.99 26.9 335.14 22.61 336.19 17.61H303.4C297.51 27.09 290.49 34.51 282.36 39.88V39.87ZM308.89 66.73C308.51 62.11 307.81 59.08 306.76 57.66C305.12 55.57 302.43 54.19 298.7 53.52V52.06C302.43 52.28 306.16 52.51 309.89 52.73C311.16 52.73 311.79 52.17 311.79 51.05V34.37C310.9 34.97 309.74 35.23 308.32 35.15C302.57 45.37 294.78 52.76 284.93 57.31L283.7 56.3C286.39 52.87 288.85 48.62 291.09 43.54C293.4 38.32 295.19 32.91 296.46 27.31L311.79 32.79V18.58L328.24 20.03C328.02 21.6 326.78 22.53 324.55 22.83V51.59C324.55 56.51 323.69 59.98 321.98 62C319.74 64.54 315.38 66.1 308.89 66.7V66.73ZM303.52 82.29C302.77 79.16 301.24 75.87 298.93 72.44C296.84 69.23 294.49 66.51 291.88 64.27L292.78 63.37C300.02 64.12 305.54 65.91 309.34 68.74C312.55 71.13 314.19 73.85 314.26 76.91C314.41 79.67 313.36 81.69 311.13 82.95C308.82 84.29 306.28 84.07 303.52 82.28V82.29ZM340.45 95.83C339.48 91.5 337.39 86.95 334.18 82.18C331.2 77.7 327.8 73.9 324 70.76L324.9 69.98C333.78 71.47 340.68 74.2 345.6 78.15C349.63 81.36 351.83 84.9 352.2 88.78C352.57 92.36 351.57 94.97 349.18 96.61C346.57 98.32 343.66 98.07 340.45 95.83ZM338.55 55.2C337.95 51.1 336.39 46.55 333.85 41.55C331.69 37.22 329.11 33.16 326.13 29.35L327.25 28.68C335.16 31.22 341.13 34.61 345.16 38.86C348.52 42.44 350.23 46.1 350.31 49.83C350.31 53.19 349.12 55.5 346.73 56.77C344.19 58.11 341.47 57.59 338.56 55.2H338.55Z" fill="white"/>
<path d="M383.86 105.34C383.71 101.16 383.04 98.21 381.85 96.5C380.43 94.56 377.52 93.18 373.12 92.36V90.9C377.07 91.05 380.99 91.24 384.87 91.46C386.29 91.46 387 90.83 387 89.56V45.58H372.23L371.22 42.45H405.69L412.18 35.85L421.36 44.69V20.63L434.57 26H438.71C439.01 22.64 439.31 18.39 439.61 13.24H419.46L420.02 13.8C419.5 14.47 418.01 14.92 415.54 15.14C411.73 18.57 405.99 22.27 398.3 26.22C401.13 28.68 402.63 31.37 402.78 34.28C402.85 36.97 401.85 38.94 399.76 40.21C397.59 41.55 395.13 41.4 392.37 39.76C391.4 36.4 389.42 32.86 386.44 29.13C383.75 25.7 380.77 22.79 377.49 20.4L378.39 19.62C385.18 20.14 390.63 21.56 394.73 23.87C397.27 20.21 399.5 16.48 401.45 12.68H374.14L373.13 9.42998H401.67L408.5 2.71999L416.11 9.98999H457.41L464.68 0.699982C466.25 1.96998 467.78 3.19998 469.27 4.38998C472.78 7.29998 475.54 9.64999 477.55 11.44C477.33 12.63 476.32 13.23 474.53 13.23H453.94C449.76 18.53 445.88 22.78 442.3 25.99H455.84L461.55 19.72L473.3 28.78C472.63 29.68 471.36 30.35 469.49 30.79V80.26C469.41 80.78 468.18 81.45 465.8 82.27C463.26 83.17 460.95 83.61 458.86 83.61H456.73V79.24H434.01V81.03C434.01 81.25 433.79 81.55 433.34 81.92L447.33 90.65C446.81 91.54 445.61 91.77 443.75 91.32C440.02 94.16 434.68 96.92 427.75 99.6C421.03 102.21 414.47 104.11 408.05 105.31L407.27 103.85C411.89 101.31 416.62 98.03 421.43 94C426.24 89.97 429.95 86.16 432.57 82.58C429.88 84.3 426.82 85.15 423.39 85.15H421.38V47.77C420.63 47.92 419.89 47.99 419.14 47.99C414.36 55 409.52 60.97 404.59 65.9L403.47 65.12C404.66 59.67 405.74 53.14 406.72 45.53H399.33V89.74C399.33 94.59 398.43 98.1 396.64 100.26C394.4 103.09 390.15 104.77 383.88 105.3L383.86 105.34ZM434 42.55H456.72V29.12H434V42.55ZM434 59.23H456.72V45.69H434V59.23ZM434 76.02H456.72V62.37H434V76.02ZM472.22 103.78C470.24 105.57 467.69 105.76 464.55 104.34C462.91 100.91 460.22 97.14 456.49 93.04C453.21 89.46 449.81 86.29 446.31 83.53L447.21 82.63C455.42 83.23 461.94 85.02 466.8 88C470.83 90.39 473.25 93.26 474.07 96.62C474.82 99.6 474.2 101.99 472.22 103.78Z" fill="white"/>
<path d="M513.01 105.23V68.97C512.41 69.12 511.89 69.19 511.44 69.19C507.48 80.76 502.26 89.6 495.77 95.71L494.09 94.81C497.52 86.01 499.8 75.45 500.92 63.14L513.01 66.05V55.19C510.92 55.86 507.56 56.87 502.94 58.21C502.19 58.43 501.63 58.59 501.26 58.66C500.44 60.23 499.36 61.05 498.01 61.12L494.43 48.7C497.04 48.7 501.7 48.51 508.42 48.14C514.98 37.32 520.43 26.09 524.76 14.45L540.76 20.49C540.09 21.98 538.59 22.58 536.28 22.28C529.71 31.23 521.8 39.78 512.55 47.91C515.98 47.76 521.65 47.46 529.56 47.01C528.37 44.1 526.72 40.89 524.64 37.39L525.76 36.83C530.98 38.62 535.05 40.86 537.96 43.54C540.57 38.02 542.94 31.44 545.07 23.79C547.2 16.14 548.78 8.43998 549.83 0.679977L566.95 5.93999C566.28 7.50999 564.82 8.28998 562.58 8.28998C560.57 14.04 558.22 19.45 555.53 24.52H580.82L587.98 17.13L600.07 27.65C599.1 28.84 597.42 29.59 595.03 29.89C594.36 51.38 593.35 67.2 592.01 77.34C590.44 88.68 588.05 95.99 584.85 99.28C582.69 101.37 580.28 102.88 577.63 103.81C574.98 104.74 571.68 105.21 567.73 105.21C567.73 100.51 566.83 97.38 565.04 95.81C562.95 93.72 558.62 91.97 552.06 90.55V89.1C552.28 89.1 552.66 89.14 553.18 89.21C562.51 89.88 568.14 90.22 570.08 90.22C572.02 90.22 573.44 89.7 574.56 88.65C578.36 85.37 580.86 65.03 582.06 27.65H553.74C549.64 34.59 544.97 40.45 539.75 45.22C542.36 48.13 543.55 51.12 543.33 54.17C543.11 56.93 541.95 58.8 539.86 59.77C537.55 60.74 535.2 60.22 532.81 58.2C532.51 55.51 531.77 52.6 530.57 49.47L524.97 51.37V101.84C524.97 102.36 524.11 103 522.4 103.74C520.23 104.71 517.81 105.2 515.13 105.2H513L513.01 105.23ZM505.74 36.4C505.22 33.57 503.95 30.47 501.94 27.11C500.22 24.2 498.21 21.55 495.9 19.16L496.91 18.38C500.86 19.05 504.07 19.99 506.53 21.18C508.47 15.29 510.34 8.30999 512.13 0.249985L528.81 5.72998C528.29 7.44998 526.83 8.18999 524.44 7.96999C520.34 13.64 515.6 18.68 510.23 23.08C513.66 25.39 515.53 28.04 515.83 31.03C516.05 33.79 515.12 35.81 513.03 37.07C510.87 38.41 508.44 38.19 505.76 36.4H505.74ZM531.82 83.96C531.6 77.54 529.54 70.42 525.66 62.58L526.89 62.02C532.93 64.56 537.34 67.69 540.1 71.42C542.41 74.48 543.35 77.54 542.9 80.6C542.45 83.36 541.11 85.15 538.87 85.97C536.48 86.87 534.13 86.19 531.82 83.96ZM558.68 66.39C558.31 59.3 555.43 51.17 550.06 41.99L551.18 41.43C558.12 44.19 563.27 47.62 566.63 51.73C569.39 55.16 570.62 58.6 570.32 62.03C570.02 65.16 568.71 67.25 566.4 68.3C563.86 69.42 561.29 68.79 558.68 66.4V66.39Z" fill="white"/>
<path d="M617.54 105.9L616.53 104.89C621.38 97.28 624.7 87.92 626.49 76.8C627.68 69.19 628.28 59.38 628.28 47.37V17.94L643.39 23.31H672.49C672.04 15.77 671.82 8.12998 671.82 0.36998L688.83 2.04999C688.68 3.83999 687.34 4.91999 684.8 5.29999C684.65 11.34 684.76 17.35 685.14 23.32H701.93L705.96 18.28C704.47 18.43 703.01 18.13 701.59 17.38C700.77 15.07 699.2 12.61 696.89 9.98999C694.8 7.59999 692.6 5.61998 690.29 4.05998L691.07 3.15999C696.59 2.78999 701.1 3.30998 704.61 4.72998C707.52 5.91998 709.5 7.56998 710.54 9.64998C711.44 11.59 711.44 13.42 710.54 15.13C714.94 18.56 718.86 21.77 722.29 24.75C722.07 25.87 721.02 26.43 719.16 26.43H685.25C686.29 39.93 688.5 51.16 691.85 60.12C695.51 52.44 698.34 44.27 700.36 35.61L717.82 41.43C717.3 42.92 715.81 43.63 713.34 43.56C709.31 54.53 704.16 64.15 697.9 72.44C701.03 77.36 704.95 81.62 709.65 85.2C710.47 86.02 711.14 86.39 711.66 86.32C712.18 86.25 712.74 85.72 713.34 84.75C715.5 81.32 717.85 76.77 720.39 71.1L721.51 71.32L718.94 90.23C722.59 96.27 723.49 100.19 721.63 101.98C719.32 104.22 716.07 104.67 711.89 103.32C708.38 102.2 705.06 100.26 701.93 97.5C697.08 93.4 692.75 88.44 688.95 82.62C679.4 92.17 667.83 99.41 654.25 104.33L653.47 102.99C665.71 95.83 675.89 86.13 684.02 73.89C678.05 61.35 674.32 45.54 672.83 26.44H641.38V44.35H654.59L660.86 38.08L672.16 47.48C671.34 48.45 669.88 49.09 667.79 49.38C667.42 61.54 666.78 70.12 665.89 75.12C664.92 80.34 663.2 83.92 660.74 85.86C657.68 88.25 653.65 89.44 648.65 89.44C648.65 85.34 648.13 82.58 647.08 81.16C645.81 79.67 643.5 78.47 640.14 77.58V76.12C643.57 76.42 646.59 76.57 649.21 76.57C650.63 76.57 651.63 76.27 652.23 75.68C654.02 74.04 655.14 64.64 655.59 47.48H641.38C641.38 59.72 640.19 69.72 637.8 77.47C634.14 89.41 627.39 98.88 617.54 105.9Z" fill="white"/>
<path d="M748.15 86.65L740.09 72.55C743.22 71.8 748.89 70.16 757.1 67.63V20.18H743L742.1 16.93H770.86L777.58 7.97998C781.53 11.41 785.49 14.88 789.44 18.39C789.14 19.58 788.1 20.18 786.31 20.18H769.97V63.49C777.28 61.25 784.03 59.05 790.23 56.89L790.68 58.23C779.71 66.22 766.39 74.65 750.73 83.52C750.35 85.09 749.5 86.13 748.16 86.65H748.15ZM765.5 105.12L764.27 103.44C776.51 94.34 785.23 83.52 790.46 70.98C794.64 60.91 797.02 48.08 797.62 32.48H781.17L780.16 29.35H797.73C797.88 24.65 797.95 17.38 797.95 7.52998V1.81999L815.3 3.49998C814.93 5.21998 813.55 6.25999 811.16 6.62999C811.01 16.85 810.82 24.42 810.6 29.35H826.94L833.99 22.3L845.74 32.6C844.99 33.57 843.39 34.28 840.93 34.73C840.18 55.25 839.06 70.25 837.57 79.72C836 89.79 833.65 96.4 830.52 99.53C826.79 103.19 821.45 105.01 814.52 105.01C814.67 100.61 813.92 97.59 812.28 95.94C810.34 93.93 806.68 92.32 801.31 91.13L801.42 89.56C808.81 90.23 813.8 90.57 816.42 90.57C818.28 90.57 819.74 90.09 820.79 89.12C824.52 85.76 826.98 66.89 828.18 32.49H810.5C809.45 49.65 806.28 63.27 800.99 73.34C793.98 86.4 782.15 96.99 765.51 105.13L765.5 105.12Z" fill="white"/>
</svg>
