<svg width="563" height="70" viewBox="0 0 563 70" fill="none" xmlns="http://www.w3.org/2000/svg">
<path d="M544.79 0.449951H17.6C7.87979 0.449951 0 8.32971 0 18.0499V51.96C0 61.6802 7.87979 69.5599 17.6 69.5599H544.79C554.51 69.5599 562.39 61.6802 562.39 51.96V18.0499C562.39 8.32971 554.51 0.449951 544.79 0.449951Z" fill="#DADF00"/>
<path d="M221.21 27.6V29.35H217.84C217.52 31.35 217.04 33.22 216.44 34.97H220.79V48.0701H219.19V46.72H216.57V48.3201H215V38.3201C214.58 39.1201 214.12 39.9001 213.62 40.6401L212.67 39.1401C214.42 36.2901 215.57 33.0201 216.12 29.3401H213.5V27.5901H221.22L221.21 27.6ZM219.19 45.0701V36.6201H216.57V45.0701H219.19ZM235.31 33.3H233.66V30.3301H228.39C227.89 31.9301 227.32 33.38 226.69 34.73H229.51C229.24 33.88 228.93 33.0301 228.59 32.2101L230.16 31.79C230.56 32.86 230.88 33.8401 231.13 34.7401H234.95V36.3101H231.03V38.6301H234.53V40.1801H231.03V42.5801H234.58V44.1301H231.03V46.7001H235.6V48.3H225.38V49.2001H223.68V39.6C223.13 40.3 222.58 40.9201 221.98 41.5201L220.93 40.2501C223.45 37.6001 225.35 34.3001 226.6 30.3301H223.65V33.7801H222V28.7601H227.07C227.29 27.8801 227.49 27.0101 227.67 26.1401L229.34 26.4601C229.16 27.2601 228.99 28.0401 228.82 28.7601H235.29V33.3101L235.31 33.3ZM229.34 36.3H225.89C225.71 36.6 225.54 36.8801 225.39 37.1501V38.6201H229.34V36.3ZM229.34 40.17H225.39V42.5701H229.34V40.17ZM229.34 46.6901V44.1201H225.39V46.6901H229.34Z" fill="#231815"/>
<path d="M256.78 29.17L255.86 29.5201H259.41V31.17H251.84V29.5201H255.19C254.81 28.5001 254.39 27.5201 253.89 26.5701L255.61 26.0701C256.11 27.1901 256.49 28.22 256.78 29.17ZM258.83 47.4901H254.18V48.7601H252.56V40.3401H258.83V47.4901ZM258.61 33.22V34.7701H252.74V33.22H258.61ZM258.61 36.72V38.2701H252.74V36.72H258.61ZM257.23 45.97V41.8201H254.18V45.97H257.23ZM262.6 41.1C262.18 43.9 261.55 46.3501 260.75 48.4001L259.3 47.48C260.12 45.48 260.72 43.2301 261.1 40.7801L262.6 41.11V41.1ZM261.3 28.85V27.2501H273C272.95 32.5501 272.65 35.7201 272.05 36.7701C271.45 37.8201 270.4 38.35 268.9 38.35C268.45 38.35 267.95 38.3001 267.35 38.2501L266.93 36.67C267.58 36.72 268.1 36.7501 268.53 36.7701C269.68 36.7501 270.4 36.32 270.73 35.47C271.03 34.62 271.2 32.42 271.25 28.85H268.33C267.91 30.9 267.25 32.7001 266.38 34.2001C265.28 35.9001 263.66 37.45 261.51 38.8L260.41 37.35C262.06 36.43 263.38 35.3501 264.33 34.1301C263.31 33.2101 262.06 32.35 260.58 31.55L261.55 30.35C262.93 31.12 264.12 31.95 265.17 32.85C265.82 31.65 266.27 30.33 266.55 28.85H261.3ZM265.65 48.7501C264.33 48.7501 263.68 48.03 263.68 46.6V40.23H265.33V46.2501C265.33 46.8201 265.6 47.1201 266.15 47.1201H268.62C269.02 47.1201 269.32 47.0001 269.5 46.7701C269.72 46.4401 269.88 45.5201 269.95 44.0201L271.5 44.5201C271.35 46.5201 271.08 47.7401 270.68 48.1901C270.28 48.5401 269.71 48.7401 268.93 48.7401H265.66L265.65 48.7501ZM269.7 43.05L268.28 43.67C267.63 42.12 266.93 40.77 266.16 39.6L267.61 39.1201C268.41 40.3401 269.11 41.64 269.71 43.04L269.7 43.05ZM274.77 46.42L273.3 47.0701C272.55 44.6701 271.73 42.52 270.83 40.67L272.38 40.17C273.28 42.12 274.08 44.19 274.78 46.42H274.77Z" fill="#231815"/>
<path d="M296.58 32.47V33.8901C295.71 35.3601 294.71 36.7901 293.56 38.1901H296.91V39.3901C296.51 41.3901 295.99 43.06 295.39 44.41C295.59 44.56 295.79 44.71 295.99 44.91C296.79 45.66 297.59 46.2401 298.39 46.6301C299.19 46.9601 300.29 47.1301 301.74 47.1501C303.09 47.1501 304.66 47.1801 306.41 47.1801C308.16 47.1801 310.51 47.1301 313.36 47.0601L312.96 48.7601H306.64C304.77 48.7601 303.09 48.7401 301.64 48.7101C299.94 48.6601 298.62 48.4401 297.72 48.0601C296.7 47.6101 295.77 46.9601 294.92 46.0601C294.72 45.8601 294.52 45.79 294.3 45.79C293.72 45.79 292.9 46.8901 291.83 49.0901L290.51 47.92C291.66 45.65 292.76 44.37 293.81 44.1C294.41 42.8 294.91 41.35 295.26 39.73H291.46V38.35C292.71 36.93 293.78 35.5301 294.63 34.1301H290.83V32.48H296.6L296.58 32.47ZM296.58 30.05L295.41 31.22C294.46 30.07 293.19 28.87 291.53 27.6L292.73 26.4501C294.25 27.6501 295.53 28.85 296.58 30.05ZM304.4 36.3701C304.55 35.2501 304.63 33.9701 304.68 32.5201H299.16V30.9001H306.76C307.56 29.4001 308.26 27.7801 308.86 26.0801L310.51 26.6801C309.91 28.2501 309.26 29.6501 308.54 30.9001H311.79V32.5201H306.42C306.39 33.9701 306.32 35.2701 306.17 36.3701H312.64V38.04H305.89C305.89 38.04 305.87 38.1601 305.87 38.2101C305.22 41.3801 303.22 44.0101 299.82 46.0601L298.7 44.66C301.65 42.99 303.47 40.79 304.12 38.04H298.32V36.3701H304.42H304.4ZM303.95 30.0701L302.48 30.8201C301.78 29.4201 301.03 28.1701 300.23 27.0701L301.81 26.3201C302.56 27.4401 303.28 28.7001 303.96 30.0701H303.95ZM312.97 44.6201L311.75 46.0001C309.87 44.0001 307.95 42.2801 305.95 40.8301L307.03 39.6301C309.23 41.1501 311.2 42.8301 312.98 44.6301L312.97 44.6201Z" fill="#231815"/>
<path d="M347.48 28.1H349.28V36.67H341.63V45.8401H348.68V39.0201H350.51V48.97H348.68V47.5701H332.73V48.97H330.91V39.0201H332.73V45.8401H339.78V36.67H332.13V28.1H333.93V34.92H339.78V26.2001H341.63V34.92H347.48V28.1Z" fill="#231815"/>
</svg>
