<svg width="190" height="129" viewBox="0 0 190 129" fill="none" xmlns="http://www.w3.org/2000/svg">
<path d="M33.44 45.4299H58.13C58.78 45.4299 59.88 45.6199 59.88 46.9199C59.88 48.2799 58.71 48.4099 58.13 48.4099H33.44V56.5099C33.44 57.7399 33.44 60.5899 29.94 60.5899C26.44 60.5899 26.38 57.7999 26.38 56.5099V48.4099H2.00995C1.35995 48.4099 0.199951 48.2199 0.199951 46.9199C0.199951 45.6199 1.42995 45.4299 2.00995 45.4299H26.38V39.5299H14.59C10.05 39.5299 8.16995 37.7799 8.16995 33.7599V22.4199C8.16995 17.9499 10.5 16.6499 14.59 16.6499H45.57C50.11 16.6499 51.99 18.3999 51.99 22.4199V33.7599C51.99 38.1699 49.66 39.5299 45.57 39.5299H33.45V45.4299H33.44ZM16.3999 4.7299C16.3999 3.9499 16.3999 0.649902 19.8999 0.649902C22.8199 0.649902 23.46 2.7899 23.46 4.7299V6.8699H37.2599V4.59991C37.2599 3.81991 37.26 0.649902 40.69 0.649902C43.54 0.649902 44.1199 2.78991 44.1199 4.59991V6.8699H57.99C58.64 6.8699 59.8 6.99991 59.8 8.35991C59.8 9.71991 58.57 9.84991 57.99 9.84991H44.1199V11.5999C44.1199 13.1599 43.73 15.5499 40.69 15.5499C37.65 15.5499 37.2599 13.2199 37.2599 11.5999V9.84991H23.46V11.4699C23.46 13.1599 22.94 15.5499 19.96 15.5499C16.98 15.5499 16.3999 13.2199 16.3999 11.4699V9.84991H2.13995C1.48995 9.84991 0.329956 9.65991 0.329956 8.35991C0.329956 6.99991 1.55995 6.8699 2.13995 6.8699H16.3999V4.7299ZM44.85 26.4999V22.3499C44.85 20.2099 44.33 19.6299 42.13 19.6299H17.96C15.76 19.6299 15.24 20.2099 15.24 22.3499V26.4999H44.86H44.85ZM15.2299 29.4199V33.7599C15.2299 35.8999 15.75 36.5499 17.95 36.5499H42.1199C44.3899 36.5499 44.84 35.8999 44.84 33.7599V29.4199H15.22H15.2299Z" fill="white"/>
<path d="M66.37 18.1499C67.34 18.1499 71.68 19.9599 75.44 22.1699C78.68 24.0499 79.33 24.8299 79.33 26.4499C79.33 28.6499 77.58 30.2099 75.77 30.2099C74.6 30.2099 73.89 29.8199 72.85 28.3999C70.71 25.5499 69.42 24.1899 65.66 20.8199C65.27 20.4299 65.01 20.0399 65.01 19.6499C65.01 18.6799 65.85 18.1599 66.37 18.1599V18.1499ZM74.47 54.1199C71.94 59.4299 71.23 60.1499 69.48 60.1499C67.6 60.1499 65.72 58.3999 65.72 56.2599C65.72 54.9599 66.17 54.4499 67.6 52.7599C67.92 52.3099 74.21 44.7899 79.14 35.0699C79.4 34.6199 79.85 33.9699 80.57 33.9699C81.09 33.9699 82.25 34.3599 82.25 35.5299C82.25 36.2399 78.3 46.0899 74.47 54.1299V54.1199ZM69.48 1.29993C70.19 1.29993 75.64 3.17992 80.11 5.96992C81.86 7.06992 82.18 8.03993 82.18 9.07993C82.18 11.1499 80.56 12.8399 78.68 12.8399C77.45 12.8399 76.99 12.3899 73.69 8.68993C72.65 7.51993 70.26 5.38992 68.57 3.88992C68.44 3.75992 68.05 3.23993 68.05 2.84993C68.05 1.80993 68.89 1.28992 69.48 1.28992V1.29993ZM81.08 58.1999C81.08 57.6799 81.47 57.2299 81.79 56.8999C86 53.2699 87.23 51.1299 89.05 47.8899C89.76 46.5899 90.67 45.9499 91.97 45.9499C93.78 45.9499 95.99 47.3799 95.99 49.5099C95.99 51.1299 94.05 53.0099 89.32 56.1799C86.79 57.8699 83.49 59.7399 82.52 59.7399C81.87 59.7399 81.09 59.1599 81.09 58.1899L81.08 58.1999ZM106.74 56.7099C106.74 58.9099 105.77 60.4699 103.43 60.4699C101.09 60.4699 100.06 59.0399 100.06 56.7099V44.0699C88.52 45.4999 85.74 45.8199 84.64 45.8199C83.02 45.8199 81.79 44.5899 81.79 42.7699C81.79 41.4099 82.63 39.9799 84.64 39.8499C86.45 39.7799 94.55 39.5899 96.18 39.5899C95.01 38.4199 93.07 36.1599 91.84 34.9899C91.13 34.3399 87.89 31.8099 87.24 31.2299C86.92 30.9699 86.66 30.6499 86.66 30.0599C86.66 29.1499 87.37 28.4999 88.15 28.4999C89.25 28.4999 92.75 30.1199 93.72 30.5699C94.17 29.6599 95.86 25.5799 96.51 24.9299H90.61C86.01 24.9299 84.71 23.1199 84.71 19.8099V7.75992C84.71 4.32992 86.27 2.63992 90.61 2.63992H116.14C121 2.63992 122.04 4.70992 122.04 7.75992V19.8099C122.04 23.5699 120.29 24.9299 116.14 24.9299H100.59C101.56 25.7099 101.95 26.2299 101.95 27.2599C101.95 28.7499 101.5 29.1399 97.54 32.5699C100.84 34.4499 101.3 35.3599 101.56 36.0699C104.41 32.9599 104.8 32.4399 108.43 27.6499C108.95 26.9399 109.73 25.8999 111.41 25.8999C113.35 25.8999 114.97 27.6499 114.97 29.1999C114.97 31.1399 113.61 32.4399 104.41 39.2399C109.4 38.9799 112.12 38.7899 116.2 38.3999C115.94 37.7499 114.64 34.8999 114.64 34.5099C114.64 33.5399 115.42 33.0199 116.13 33.0199C116.78 33.0199 117.43 33.5399 119.31 35.4799C121.64 37.9399 124.56 41.3099 124.56 43.3899C124.56 45.4699 122.62 46.6299 121 46.6299C118.67 46.6299 118.34 45.4599 117.24 41.5799C112.32 42.4199 111.8 42.4899 106.74 43.1999V56.6799V56.7099ZM100.32 12.0599V5.63992H94.1C91.77 5.63992 91.38 6.21992 91.38 8.35992V12.0499H100.32V12.0599ZM91.38 15.0399V19.3199C91.38 21.3899 91.77 21.9799 94.1 21.9799H100.32V15.0499H91.38V15.0399ZM115.36 12.0599V8.36992C115.36 6.22992 114.91 5.64992 112.7 5.64992H106.41V12.0699H115.35L115.36 12.0599ZM106.42 15.0399V21.9699H112.71C114.98 21.9699 115.37 21.3899 115.37 19.3099V15.0299H106.43L106.42 15.0399ZM112.19 46.4699C113.1 46.4699 119.32 50.5499 121.91 52.8899C123.21 54.1199 123.47 54.9599 123.47 55.9399C123.47 57.8199 121.72 59.3699 119.71 59.3699C118.22 59.3699 117.44 58.7199 116.6 57.0399C115.76 55.4199 113.17 51.3399 111.29 49.1299C111.03 48.8699 110.71 48.3499 110.71 47.9599C110.71 47.0499 111.49 46.4699 112.2 46.4699H112.19Z" fill="white"/>
<path d="M162.8 56C162.8 57.36 162.8 60.47 159.43 60.47C156.06 60.47 155.93 57.42 155.93 56V45.18C146.27 55.09 133.83 58.92 133.18 58.92C132.47 58.92 131.75 58.27 131.75 57.43C131.75 56.59 132.2 56.26 133.24 55.81C145.16 50.17 149.7 43.95 151.06 41.88H131.68C131.03 41.88 129.87 41.69 129.87 40.39C129.87 39.03 131.1 38.9 131.68 38.9H155.92V36.7C155.92 35.34 155.92 32.16 159.35 32.16C162.78 32.16 162.78 35.27 162.78 36.7V38.9H187.66C188.24 38.9 189.47 39.03 189.47 40.39C189.47 41.75 188.24 41.88 187.66 41.88H167.64C169.39 44.47 173.99 50.37 185.66 55.68C186.63 56.13 187.28 56.46 187.28 57.36C187.28 58.26 186.57 58.85 185.85 58.85C185.13 58.85 171.79 54.83 162.78 44.98V56H162.8ZM155.93 6.29997V4.67996C155.93 2.47996 156.77 0.599976 159.43 0.599976C162.09 0.599976 162.93 2.60996 162.93 4.67996V6.29997H181.79C186 6.29997 188.14 7.52997 188.14 11.81V14.99C188.14 16.03 188.14 19.14 184.71 19.14C181.28 19.14 181.21 15.96 181.21 14.99V12.27C181.21 9.86997 180.82 9.28996 178.29 9.28996H140.83C138.3 9.28996 137.91 9.93997 137.91 12.27V14.99C137.91 16.09 137.91 19.14 134.48 19.14C131.05 19.14 131.05 16.29 131.05 14.93V11.82C131.05 7.99998 132.67 6.30997 137.4 6.30997H155.93V6.29997ZM140.25 18.94C139.54 18.94 138.44 18.81 138.44 17.51C138.44 16.15 139.61 16.02 140.25 16.02H149.58C150.23 15.18 152.88 11.35 153.53 10.64C154.11 9.98997 154.96 9.79997 155.67 9.79997C157.74 9.79997 159.36 11.16 159.36 12.65C159.36 13.69 158.84 14.27 157.29 16.02H178.74C179.32 16.02 180.55 16.15 180.55 17.51C180.55 18.87 179.25 18.94 178.74 18.94H172.71C171.87 20.24 169.86 23.28 166.49 26C170.83 26.91 177.38 28.72 178.93 29.43C179.97 29.88 180.48 30.73 180.48 31.7C180.48 33.58 178.67 35 177.18 35C176.4 35 175.62 34.61 174.91 34.22C169.79 31.63 167.33 30.46 162.08 29.04C153.27 33.83 139.4 35.78 138.62 35.78C137.52 35.78 137 35 137 34.35C137 33.44 137.52 33.05 138.94 32.8C141.86 32.35 149.11 31.18 155.72 27.55C154.1 27.23 146.45 25.99 145.74 25.8C144.51 25.41 143.8 24.57 143.8 23.53C143.8 23.01 143.99 22.49 144.38 22.04C145.16 21.2 146.45 19.84 147.23 18.93H140.23L140.25 18.94ZM154.7 18.94C154.18 19.46 151.14 22.83 151.14 23.09C151.14 23.41 151.4 23.8 151.79 23.87C153.09 24.06 158.53 24.65 159.76 24.84C161.64 23.29 163.13 21.47 164.62 18.94H154.7Z" fill="white"/>
<path d="M15.97 88.8099V123.81H11.95V93.7099C9.73995 95.9699 6.99996 97.5299 3.70996 98.5099V94.4899C5.27996 94.0499 6.94995 93.3599 8.60995 92.3799C10.28 91.2999 11.65 90.1199 12.83 88.7999H15.97V88.8099Z" fill="white"/>
<path d="M44.5 90.96C46.36 92.68 47.34 94.83 47.34 97.38C47.34 99.24 46.9 100.81 46.02 102.09C45.04 103.46 43.67 104.49 41.85 105.13V105.23C43.66 105.67 45.23 106.7 46.51 108.27C47.88 109.94 48.57 111.9 48.57 114.15C48.57 117.24 47.49 119.74 45.33 121.6C43.07 123.51 39.94 124.49 35.92 124.49C31.9 124.49 28.71 123.51 26.51 121.6C24.35 119.74 23.27 117.24 23.27 114.15C23.27 111.9 23.96 109.93 25.33 108.27C26.6 106.7 28.12 105.67 29.99 105.23V105.13C28.13 104.49 26.75 103.46 25.82 102.09C24.94 100.82 24.5 99.25 24.5 97.38C24.5 94.83 25.43 92.67 27.34 90.96C29.4 89.05 32.24 88.12 35.92 88.12C39.6 88.12 42.44 89.05 44.5 90.96ZM29.4 109.05C27.93 110.32 27.24 112.04 27.24 114.15C27.24 116.26 27.93 117.93 29.4 119.2C30.87 120.52 33.08 121.21 35.92 121.21C38.76 121.21 40.92 120.52 42.49 119.15C43.86 117.87 44.6 116.21 44.6 114.15C44.6 112.09 43.86 110.33 42.49 109.05C40.92 107.63 38.72 106.94 35.92 106.94C33.12 106.94 30.92 107.63 29.4 109.05ZM30.09 93.31C28.86 94.39 28.28 95.81 28.28 97.53C28.28 99.25 28.82 100.77 29.9 101.84C31.17 103.11 33.18 103.8 35.93 103.8C38.68 103.8 40.64 103.11 41.96 101.84C43.04 100.76 43.58 99.29 43.58 97.53C43.58 95.77 42.94 94.39 41.77 93.31C40.35 92.03 38.39 91.4 35.94 91.4C33.49 91.4 31.48 92.04 30.11 93.31H30.09Z" fill="white"/>
<path d="M77.84 109.45V112.78H53.08V109.45H77.84Z" fill="white"/>
<path d="M103.48 90.91C105.54 92.77 106.62 95.27 106.62 98.31C106.62 101.35 105.44 104.1 103.19 106.55C101.96 107.82 99.56 109.74 95.93 112.19C91.47 115.18 88.92 117.88 88.28 120.23H106.67V123.81H83.33C83.33 120.62 84.46 117.73 86.81 115.13C88.18 113.56 90.68 111.45 94.41 108.9C97.16 106.94 98.97 105.52 99.9 104.54C101.67 102.63 102.6 100.52 102.6 98.26C102.6 96 101.96 94.49 100.69 93.31C99.42 92.13 97.6 91.54 95.35 91.54C92.95 91.54 91.08 92.33 89.81 93.99C88.44 95.56 87.7 97.91 87.65 101H83.63C83.63 97.08 84.76 93.94 86.91 91.64C89.07 89.29 91.96 88.11 95.49 88.11C98.73 88.11 101.37 89.04 103.48 90.9V90.91Z" fill="white"/>
<path d="M135.2 88.8099V92.39H118.14L116.96 104.11H117.16C118.14 102.93 119.41 102.05 120.93 101.46C122.3 100.87 123.77 100.63 125.39 100.63C128.72 100.63 131.42 101.66 133.48 103.77C135.54 105.93 136.62 108.87 136.62 112.64C136.62 116.17 135.35 119.06 132.85 121.32C130.5 123.43 127.56 124.51 124.12 124.51C121.03 124.51 118.38 123.68 116.23 122.01C113.78 120.15 112.46 117.6 112.21 114.41H116.18C116.38 116.62 117.26 118.33 118.83 119.51C120.2 120.54 122.02 121.08 124.17 121.08C126.62 121.08 128.63 120.29 130.25 118.73C131.82 117.16 132.65 115.15 132.65 112.7C132.65 109.91 131.87 107.75 130.39 106.23C128.97 104.66 126.96 103.93 124.41 103.93C122.74 103.93 121.27 104.27 119.95 105.01C118.58 105.7 117.5 106.77 116.81 108.15H112.99L114.85 88.8299H135.2V88.8099Z" fill="white"/>
<path d="M147.4 96.8V83.96H150.93V96.8H156.72V100.23H150.93V116.51C152.99 115.82 154.95 115.04 156.91 114.16V117.69C152.2 119.7 147.15 121.42 141.76 122.79L140.88 119.26C143.09 118.77 145.24 118.23 147.4 117.64V100.24H141.32V96.81H147.4V96.8ZM184.76 86.11V89.44H173.14V107.92H186.23V111.3H173.14V128.95H169.71V111.3H156.82V107.92H169.71V89.44H158.19V86.11H184.76ZM165.69 104.74L162.65 105.48C161.72 101.21 160.49 97.1 159.02 93.17L162.06 92.19C163.43 95.82 164.61 100.03 165.69 104.74ZM183.49 92.73C182.46 97.49 181.14 101.65 179.57 105.23L176.58 104.15C178.05 100.91 179.33 96.84 180.4 91.89L183.49 92.72V92.73Z" fill="white"/>
</svg>
