<svg width="169" height="12" viewBox="0 0 169 12" fill="none" xmlns="http://www.w3.org/2000/svg">
<path d="M3.35001 6.45001V5.31H3.84V6.45001H6.17001V6.89001H3.84V11.03H3.35001V7.14001C2.81001 8.20001 2.02 9.14998 0.970001 9.97998L0.619995 9.65997C1.69 8.84997 2.48001 7.92001 2.98001 6.89001H1.01999V6.45001H3.35001ZM3.22 4.65002H3.88C4.04 4.38002 4.19999 4.08998 4.32999 3.78998C4.49999 3.42998 4.65001 3.04997 4.76001 2.65997L5.23999 2.84003C5.13999 3.18003 5.00001 3.53997 4.82001 3.90997C4.70001 4.17997 4.57001 4.43001 4.45001 4.64001H6.25V5.08002H0.920013V4.64001H2.64001C2.43001 4.05001 2.18999 3.49997 1.92999 2.96997L2.28 2.70001C2.62 3.26001 2.93001 3.92001 3.20001 4.64001L3.22 4.65002ZM5.89999 2.09003V2.53998H1.14999V2.09003H5.89999ZM3.97 1.78998L3.60999 2.06C3.40999 1.65 3.15001 1.26997 2.82001 0.909973L3.17001 0.650024C3.49001 0.990024 3.75 1.36998 3.97 1.78998ZM5.82001 8.84003L5.45999 9.19C5.04999 8.66 4.56 8.12999 3.97 7.60999L4.32001 7.28998C4.82001 7.73998 5.32001 8.25003 5.82001 8.84003ZM10.53 1.34998C9.56 1.77998 8.42001 2.11001 7.14001 2.32001V4.44H11.02V4.88H9.34V11H8.81V4.88H7.14001C7.12001 6.82 6.95999 8.21999 6.67999 9.04999C6.38999 9.83999 6.00001 10.48 5.51001 11L5.12 10.64C5.56 10.21 5.91001 9.65997 6.17001 8.96997C6.46001 8.19997 6.62 6.69997 6.62 4.46997V1.91998C8.13 1.70998 9.36001 1.36997 10.32 0.909973L10.55 1.34998H10.53Z" fill="white"/>
<path d="M15.65 1.78003V2.21997H14.15V4.69H15.42V5.13H14.15V8.10999C14.68 7.92999 15.16 7.75 15.61 7.56L15.7 8C14.64 8.5 13.46 8.94001 12.17 9.32001L11.96 8.78998C12.57 8.61998 13.14 8.45002 13.67 8.27002V5.14001H12.22V4.70001H13.67V2.22998H12.08V1.78998H15.66L15.65 1.78003ZM21.41 1.25V6.45001H18.95V7.95001H21.41V8.39001H18.95V10.1H22.25V10.54H14.76V10.1H18.46V8.39001H15.99V7.95001H18.46V6.45001H16.13V1.25H21.41ZM18.47 3.66998V1.69H16.62V3.66998H18.47ZM18.47 6V4.10999H16.62V6H18.47ZM18.96 3.66998H20.93V1.69H18.96V3.66998ZM18.96 6H20.93V4.10999H18.96V6Z" fill="white"/>
<path d="M25.83 2.13V0.640015H26.32V2.13H28.17V2.57001H26.32V6.92999H25.83V3.45001C25.31 4.37001 24.61 5.19998 23.75 5.91998L23.49 5.53003C23.92 5.19003 24.36 4.71999 24.83 4.10999C25.21 3.63999 25.52 3.12002 25.77 2.58002H23.63V2.14001H25.83V2.13ZM25.35 7.69C25.08 8.48 24.64 9.28998 24.03 10.1L23.54 9.84003C24.13 9.03003 24.55 8.25001 24.81 7.51001L25.34 7.69H25.35ZM26.67 7.51001V9.62C26.67 9.89 26.75 10.04 26.92 10.09C27.03 10.16 27.95 10.19 29.67 10.19C30.09 10.19 30.32 10.12 30.39 10C30.47 9.89 30.54 9.36001 30.59 8.39001L31.12 8.73999C31.03 9.77999 30.92 10.34 30.76 10.45C30.67 10.6 30.3 10.68 29.67 10.68C27.87 10.68 26.86 10.61 26.65 10.5C26.33 10.43 26.19 10.16 26.19 9.71002V7.51001H26.68H26.67ZM28.03 4.78003L27.59 5.08002C27.33 4.52002 26.98 3.98002 26.54 3.46002L26.93 3.19C27.36 3.67 27.73 4.20003 28.02 4.78003H28.03ZM29.71 8.42999L29.39 8.82001C28.83 8.17001 28.24 7.61002 27.63 7.15002L27.9 6.78998C28.55 7.25998 29.16 7.79998 29.7 8.41998L29.71 8.42999ZM32.7 1.20001V6.78998H28.65V1.20001H32.7ZM32.22 2.88V1.64001H29.14V2.88H32.22ZM32.22 4.64001V3.32001H29.14V4.64001H32.22ZM32.22 6.34998V5.08002H29.14V6.34998H32.22ZM33.51 9.53003L33.12 9.92999C32.6 9.13999 31.97 8.35998 31.23 7.59998L31.62 7.28003C32.25 7.92003 32.88 8.68003 33.51 9.53003Z" fill="white"/>
<path d="M38.17 3.37C37.83 3.96 37.41 4.55001 36.9 5.14001V11.03H36.37V5.70001C35.81 6.24001 35.28 6.70002 34.78 7.08002L34.48 6.64001C35.09 6.21001 35.72 5.64 36.39 4.94C36.98 4.31 37.44 3.69001 37.79 3.07001L38.19 3.39001L38.17 3.37ZM37.85 0.950012C37.53 1.47001 37.11 1.99001 36.58 2.51001C35.97 3.07001 35.38 3.54997 34.82 3.90997L34.52 3.46997C35.06 3.12997 35.63 2.68 36.21 2.12C36.73 1.62 37.15 1.14002 37.46 0.650024L37.85 0.950012ZM44.82 4.12V4.60999H42.57V9.76001C42.57 10.49 42.23 10.86 41.57 10.86C41.02 10.86 40.5 10.79 40.03 10.68L39.99 10.1C40.51 10.25 41.04 10.33 41.58 10.33C41.9 10.33 42.07 10.12 42.07 9.71002V4.59998H38.36V4.10999H44.84L44.82 4.12ZM44.2 1.26001V1.73999H39V1.26001H44.2Z" fill="white"/>
<path d="M48.7001 0.900024C48.5901 1.11002 48.4901 1.30999 48.4001 1.48999C49.1001 2.08999 49.7501 2.77998 50.3401 3.53998L50.0401 3.95001C49.4301 3.15001 48.8101 2.46001 48.1801 1.89001C47.5901 2.93001 46.9301 3.93 46.1601 4.88L45.8101 4.52002C46.8001 3.30002 47.6301 2.02 48.2701 0.690002L48.7101 0.919983L48.7001 0.900024ZM49.5901 3.81V4.25H48.4801V5.75H50.0201V6.19H48.4801V9.52002C49.1701 9.36002 49.8101 9.19001 50.4201 9.01001L50.4601 9.45001C49.2401 9.88001 47.8301 10.23 46.2301 10.54L46.05 10.02C46.73 9.90002 47.3701 9.77 47.9901 9.63V6.19H46.2301V5.75H47.9901V4.25H47.0201V3.81H49.58H49.5901ZM47.5101 8.91998L47.0301 9.09998C46.8601 8.35998 46.6601 7.7 46.4101 7.12L46.7701 6.84998C47.0601 7.47998 47.3101 8.17998 47.5101 8.91998ZM50.0601 6.89001C49.9001 7.67001 49.6201 8.38001 49.2301 9.01001L48.83 8.73999C49.2 8.08999 49.4601 7.39999 49.6201 6.67999L50.0601 6.89001ZM52.0901 3.28003L51.6501 3.58002C51.3601 2.86002 50.9601 2.17002 50.4701 1.52002L50.86 1.25C51.34 1.86 51.7501 2.54003 52.0901 3.28003ZM53.2401 0.640015V3.84998H55.3V9.92999C55.3 10.52 54.9201 10.81 54.1601 10.81C53.7901 10.81 53.3601 10.74 52.8701 10.63L52.8401 10.1C53.3401 10.25 53.7801 10.33 54.1601 10.33C54.5901 10.33 54.8101 10.16 54.8101 9.84003V8.39001H51.2001V10.99H50.7101V3.84998H52.7401V0.640015H53.2201H53.2401ZM54.8201 5.87V4.28998H51.2101V5.87H54.8201ZM54.8201 7.94V6.31H51.2101V7.94H54.8201ZM55.6701 1.28998C55.3301 2.11998 54.9001 2.88003 54.3801 3.53003L53.9901 3.17999C54.4901 2.55999 54.9001 1.86001 55.2301 1.07001L55.6701 1.28003V1.28998Z" fill="white"/>
<path d="M66.81 11.03H66.33V10.38H58.22V11.03H57.73V1.03998H66.81V11.03ZM66.33 9.94V1.47998H58.22V9.94H66.33ZM63.69 7.46997V6.89001H64.16V7.46997H65.98V7.85999H64.16V8.73999C64.16 9.35999 63.92 9.65997 63.46 9.65997C63.08 9.65997 62.73 9.62998 62.4 9.53998L62.35 9.06C62.71 9.17 63.08 9.22998 63.46 9.22998C63.61 9.22998 63.69 9.06001 63.69 8.70001V7.87H58.57V7.47998H63.69V7.46997ZM61.96 2.22998V1.73999H62.45V2.22998H65.8V2.66998H62.45V3.20001H65.01V5.84998H64.46C64.96 6.13998 65.42 6.46998 65.85 6.84998L65.58 7.21002C65.38 7.03002 65.17 6.85 64.97 6.69C63.28 6.85 61.33 6.94998 59.11 6.97998L59.02 6.53998C59.9 6.53998 60.89 6.51997 61.97 6.46997V5.84003H59.5V3.19H61.97V2.65997H58.71V2.21997H61.97L61.96 2.22998ZM61.96 4.29999V3.63H59.98V4.29999H61.96ZM61.96 5.39001V4.69H59.98V5.39001H61.96ZM61.92 8.73999L61.62 9.13C61.15 8.81 60.66 8.52998 60.17 8.28998L60.43 7.94C60.97 8.17 61.48 8.43998 61.93 8.72998L61.92 8.73999ZM62.45 4.29999H64.52V3.63H62.45V4.29999ZM62.45 5.39001H64.52V4.69H62.45V5.39001ZM64.04 6.06L64.22 5.84998H62.45V6.46002C63.09 6.44002 63.77 6.38998 64.48 6.34998C64.32 6.24998 64.18 6.16001 64.04 6.07001V6.06Z" fill="white"/>
<path d="M70.4799 4.51001C70.8899 4.92001 71.2099 5.33003 71.4399 5.78003C71.6799 6.27003 71.7999 6.72997 71.7999 7.15997C71.7799 8.21997 71.3699 8.73999 70.5699 8.73999C70.3399 8.73999 70.0699 8.71997 69.7399 8.65997L69.6099 8.08002C69.9899 8.17002 70.3099 8.20001 70.5799 8.20001C71.0499 8.20001 71.2999 7.85002 71.3199 7.15002C71.3199 6.77002 71.2199 6.36 71.0299 5.94C70.8299 5.5 70.4799 5.03998 69.9599 4.53998L71.4799 1.59998H69.4299V11.02H68.95V1.15002H72.2499L70.4899 4.5L70.4799 4.51001ZM78.3599 2.75V3.19H75.2999C75.0399 3.54 74.7399 3.86999 74.3799 4.17999C74.7199 4.53999 74.9999 4.91001 75.2299 5.32001C76.0899 4.96001 76.8599 4.45998 77.5799 3.84998L77.8399 4.20001C77.4099 4.58001 76.9699 4.89998 76.5399 5.16998C76.7499 5.99998 77.0399 6.76 77.3999 7.44C77.7199 8.04 78.1499 8.63997 78.7299 9.21997L78.3699 9.65997C77.8699 9.15997 77.4499 8.55002 77.0599 7.83002C76.6999 7.16002 76.3999 6.34997 76.1499 5.40997C75.9099 5.54997 75.68 5.66 75.45 5.75C75.47 5.82 75.5099 5.88 75.5299 5.94C75.7999 6.79 75.95 7.7 75.95 8.69C75.95 9.52 75.8199 10.1 75.5699 10.43C75.3199 10.71 75.0299 10.86 74.6799 10.86C74.3599 10.86 73.9999 10.77 73.6199 10.59L73.5899 10.07C73.9899 10.27 74.3499 10.37 74.6799 10.37C74.8899 10.37 75.0799 10.26 75.2299 10.04C75.3899 9.78998 75.4699 9.34 75.4699 8.69C75.4699 8.08 75.4299 7.53998 75.3299 7.03998C74.7899 7.64998 74.2299 8.17002 73.6299 8.58002C72.9599 9.05002 72.2499 9.44999 71.5099 9.73999L71.2799 9.34998C72.0899 9.02998 72.81 8.63998 73.45 8.16998C74.09 7.70998 74.6899 7.16998 75.2299 6.53998C75.2099 6.43998 75.1699 6.34 75.1499 6.25C75.0599 6.01 74.9699 5.79002 74.8599 5.58002C74.0799 6.38002 73.1599 7.02001 72.0899 7.51001L71.9099 7.07001C72.9099 6.62001 73.8199 5.98997 74.6199 5.15997C74.4499 4.90997 74.2699 4.69002 74.0699 4.46002C73.3899 4.99002 72.75 5.36999 72.14 5.60999L71.8699 5.21997C72.4099 5.01997 72.9899 4.68999 73.5799 4.23999C74.0299 3.89999 74.4 3.55 74.7 3.19H71.6599V2.75H78.39H78.3599ZM74.3999 2.40002L73.9599 2.70001C73.6699 2.07001 73.2599 1.47002 72.7599 0.900024L73.1499 0.640015C73.6299 1.17001 74.05 1.76002 74.39 2.40002H74.3999ZM77.3099 0.859985C76.9699 1.50999 76.5399 2.10997 76.0199 2.65997L75.6299 2.35999C76.1699 1.82999 76.5899 1.26002 76.8999 0.650024L77.3099 0.859985Z" fill="white"/>
<path d="M79.67 7.58002V7.04999H82.5V7.58002H79.67Z" fill="white"/>
<path d="M92.7401 1.52002V2.04999H88.7901C88.7001 3.11999 88.5901 4.06 88.4401 4.87H93.4801V5.39001H89.4101C89.6801 6.52001 90.2101 7.51 90.9901 8.37C91.7501 9.25 92.69 9.95999 93.83 10.55L93.4401 11.04C92.2601 10.41 91.2601 9.61 90.4701 8.63C89.6501 7.68 89.0901 6.60002 88.8201 5.40002H88.3401C88.0801 6.61002 87.7501 7.51 87.3501 8.12C86.6201 9.25 85.4201 10.21 83.7501 11.01L83.3101 10.6C84.8701 9.84998 86.0301 8.92998 86.7701 7.84998C87.1501 7.28998 87.4801 6.46002 87.7301 5.40002H83.6601V4.88H87.8401C88.0001 4.07 88.1201 3.12 88.2101 2.06H84.4001V1.53003H92.7301L92.7401 1.52002Z" fill="white"/>
<path d="M96.8399 5.13L96.4899 5.57001C95.8999 4.96001 95.3099 4.42998 94.6899 3.97998L94.9899 3.63C95.6699 4.06 96.2799 4.55 96.8399 5.13ZM97.14 6.66998C96.7 8.04998 96.05 9.43 95.17 10.81L94.7199 10.51C95.5999 9.26001 96.2799 7.89002 96.7499 6.40002L97.1499 6.66998H97.14ZM97.4099 2.53003L97.0599 2.96997C96.4699 2.33997 95.8799 1.79003 95.2399 1.34003L95.5599 0.98999C96.2399 1.42999 96.8499 1.95003 97.4099 2.53003ZM104.76 1.60999H98.2399V9.84003H105.03V10.28H98.2399V11.02H97.7599V1.15002H104.76V1.59998V1.60999ZM100.62 1.82001C100.41 2.37001 100.2 2.86003 100.01 3.28003H102.43C102.17 2.87003 101.85 2.47002 101.49 2.08002L101.84 1.78003C102.17 2.12003 102.49 2.51998 102.81 2.97998L102.51 3.28003H104.66V3.71997H102.33V4.87H104.4V5.26001H102.33V6.48999H104.45V6.88H102.33V8.34003H104.89V8.78003H99.42V4.37C99.19 4.73 98.9699 5.07 98.7199 5.38L98.3699 5.12C98.7499 4.61 99.0799 4.08003 99.3599 3.53003C99.6899 2.90003 99.9499 2.28999 100.13 1.67999L100.62 1.81V1.82001ZM101.89 3.71002H99.8699V4.85999H101.89V3.71002ZM101.89 5.25H99.8699V6.47998H101.89V5.25ZM101.89 6.87H99.8699V8.33002H101.89V6.87Z" fill="white"/>
<path d="M114.38 3.58002H116.23V3.96997H114.34L114.21 5.07001H107.78L107.95 3.96997H106.06V3.58002H108.01L108.18 2.48999H114.52L114.4 3.58002H114.38ZM110.46 10.06C109.22 10.41 107.83 10.7 106.32 10.94L106.09 10.53C107.46 10.35 108.82 10.07 110.19 9.70001L110.45 10.06H110.46ZM111.53 1.51001H115.84V3.01001H115.35V1.95001H106.94V3.09003H106.46V1.51001H110.99C110.85 1.26001 110.7 1.01999 110.5 0.799988L110.89 0.5C111.17 0.82 111.39 1.15002 111.52 1.52002L111.53 1.51001ZM114.51 5.56V9.44H107.73V5.56H114.51ZM114.03 6.66998V6H108.22V6.66998H114.03ZM114.03 7.84998V7.06H108.22V7.84998H114.03ZM114.03 9V8.23999H108.22V9H114.03ZM108.43 3.96997L108.31 4.67999H110.76L110.85 3.96997H108.44H108.43ZM108.5 3.58002H110.89L110.98 2.88H108.62L108.5 3.58002ZM111.33 3.96997L111.24 4.67999H113.75L113.85 3.96997H111.32H111.33ZM111.38 3.58002H113.92L114.01 2.88H111.47L111.38 3.58002ZM116.34 10.63L116.02 11.02C114.75 10.64 113.42 10.32 112.02 10.06L112.28 9.70001C113.77 9.96001 115.12 10.26 116.34 10.62V10.63Z" fill="white"/>
<path d="M121.68 4.64001H123.2C123.61 4.23001 123.95 3.79001 124.26 3.32001L124.74 3.48999C124.47 3.90999 124.17 4.29001 123.82 4.64001H127.03V5.08002H122.67V5.96002H126.15V6.40002H122.67V7.37H127.34V7.81H123.07C124.07 8.6 125.63 9.34002 127.74 10.02L127.35 10.51C125.29 9.75001 123.73 8.92001 122.68 8.01001V11.03H122.15V8.09003C121.68 8.47003 121.1 8.85998 120.42 9.22998C119.36 9.77998 118.37 10.19 117.43 10.47L117.22 9.98999C118.08 9.75999 118.99 9.41001 119.96 8.95001C120.72 8.58001 121.34 8.20001 121.81 7.82001H117.52V7.38H122.14V6.40997H118.75V5.96997H122.14V5.09003H117.82V4.65002H121.06C120.8 4.29002 120.5 3.93003 120.16 3.59003L120.57 3.33002C120.98 3.71002 121.35 4.15002 121.69 4.65002L121.68 4.64001ZM121.66 0.640015V2.78998H123.2V0.640015H123.68V2.78998H127.42V3.22998H117.42V2.78998H121.16V0.640015H121.65H121.66ZM120.39 2.34998L119.95 2.65002C119.6 2.13002 119.13 1.62002 118.54 1.15002L118.93 0.890015C119.51 1.33001 119.99 1.81003 120.39 2.34003V2.34998ZM126.29 1.15002C125.93 1.67002 125.48 2.14999 124.93 2.60999L124.49 2.26001C125.07 1.83001 125.52 1.38002 125.86 0.900024L126.3 1.15997L126.29 1.15002Z" fill="white"/>
<path d="M130.91 10.89C130.35 10.38 129.88 9.81 129.5 9.13C128.95 8.17 128.68 7.16999 128.68 6.10999C128.68 5.04999 128.95 4.06003 129.5 3.09003C129.88 2.42003 130.35 1.84002 130.91 1.33002L131.29 1.73999C130.77 2.20999 130.33 2.74998 129.98 3.34998C129.47 4.22998 129.23 5.14999 129.23 6.10999C129.23 7.06999 129.48 8 129.98 8.88C130.33 9.5 130.77 10.03 131.29 10.5L130.91 10.88V10.89Z" fill="white"/>
<path d="M136.04 1.20001V9.88C136.04 10.34 135.77 10.58 135.24 10.58C134.88 10.58 134.47 10.53 134.01 10.46V9.92999C134.44 10.04 134.86 10.1 135.24 10.1C135.44 10.1 135.56 9.96002 135.56 9.71002V6.10999C135.06 6.57999 134.51 6.99002 133.93 7.33002L133.75 6.89001C134.44 6.48001 135.05 6.00998 135.57 5.47998V1.65002H133.68V5.08002C133.68 6.66002 133.57 7.91002 133.36 8.83002C133.16 9.74002 132.88 10.49 132.53 11.07L132.23 10.68C132.53 10.12 132.77 9.40998 132.94 8.53998C133.11 7.67998 133.2 6.52998 133.2 5.09998V1.21002H136.06L136.04 1.20001ZM135.33 4.5L135.07 4.85999C134.66 4.30999 134.26 3.83001 133.83 3.45001L134.1 3.13C134.55 3.51 134.96 3.98 135.33 4.5ZM141.68 5.56V5.85999C141.22 7.14999 140.6 8.16999 139.82 8.92999C140.56 9.60999 141.51 10.11 142.68 10.5L142.42 11.02C141.26 10.64 140.27 10.05 139.44 9.27002C138.47 10.07 137.33 10.66 136.03 11.02L135.76 10.5C137.09 10.15 138.18 9.62 139.04 8.88C138.3 8.09 137.71 7.13 137.29 6H136.68V5.56H141.66H141.68ZM140.83 1.38V3.94C140.83 4.12 140.85 4.24 140.9 4.31C140.99 4.35 141.13 4.38 141.32 4.38C141.73 4.38 142.19 4.32999 142.68 4.23999V4.72998C142.3 4.81998 141.85 4.85999 141.32 4.85999C140.79 4.85999 140.47 4.79002 140.43 4.65002C140.35 4.56002 140.32 4.41001 140.32 4.20001V1.82001H138.19C138.15 3.05001 138.01 3.91997 137.76 4.40997C137.48 4.99997 137.05 5.38 136.49 5.56L136.26 5.03003C136.76 4.85003 137.09 4.57998 137.25 4.22998C137.52 3.75998 137.67 2.81 137.67 1.38H140.84H140.83ZM139.41 8.54999C140.15 7.82999 140.71 6.98 141.07 6H137.83C138.19 6.99 138.71 7.84999 139.41 8.54999Z" fill="white"/>
<path d="M145.5 9.13C145.12 9.81 144.65 10.38 144.09 10.89L143.72 10.51C144.24 10.04 144.67 9.51001 145.03 8.89001C145.53 8.01001 145.79 7.09 145.79 6.12C145.79 5.15 145.53 4.23999 145.03 3.35999C144.67 2.75999 144.24 2.22 143.72 1.75L144.09 1.34003C144.65 1.85003 145.12 2.42998 145.5 3.09998C146.05 4.06998 146.33 5.07 146.33 6.12C146.33 7.17 146.05 8.18001 145.5 9.14001V9.13Z" fill="white"/>
<path d="M151.16 1.52002C150.64 2.69002 150.12 3.64998 149.62 4.41998C149.08 5.21998 148.48 5.97999 147.83 6.67999L147.34 6.32001C148.04 5.59001 148.64 4.82003 149.16 4.03003C149.76 3.11003 150.22 2.20998 150.56 1.34998L151.17 1.53003L151.16 1.52002ZM152.79 4.20001C152.02 6.14001 151.11 7.92998 150.04 9.59998C151.62 9.52998 153.39 9.36003 155.35 9.09003C154.88 8.44003 154.37 7.82999 153.85 7.23999L154.25 6.83002C155.37 8.04002 156.34 9.3 157.16 10.62L156.67 11.1C156.38 10.58 156.06 10.09 155.75 9.62C153.6 9.96 151.1 10.17 148.26 10.26L148.13 9.64001C148.51 9.64001 148.92 9.64 149.34 9.62C150.47 7.87 151.44 5.99002 152.23 3.96002L152.81 4.19L152.79 4.20001ZM154.25 1.25C155.25 3.64 156.4 5.29998 157.69 6.22998L157.37 6.78998C156.11 5.83998 154.93 4.16002 153.84 1.77002H151.96V1.23999H154.25V1.25Z" fill="white"/>
<path d="M168.05 1.13V10.11C168.05 10.58 167.73 10.82 167.11 10.82C166.56 10.82 165.91 10.73 165.18 10.55V10.03C165.86 10.23 166.5 10.33 167.11 10.33C167.35 10.33 167.47 10.19 167.47 9.94V1.65002H159.14V1.13H168.05ZM166.37 3.06V3.59003H159.41V3.06H166.37ZM165.14 9.09998H164.57V8.42999H160.87V9.34998H160.29V5.03003H165.14V9.09003V9.09998ZM164.57 7.90002V5.57001H160.87V7.90002H164.57Z" fill="white"/>
</svg>
