<svg width="1191" height="49" viewBox="0 0 1191 49" fill="none" xmlns="http://www.w3.org/2000/svg">
<path d="M0.510004 10.71L0.160004 9.48001H11.79L14.07 6.5C14.57 6.91 15.05 7.32001 15.52 7.73001C16.63 8.67001 17.51 9.44 18.15 10.06C18.06 10.5 17.68 10.72 17.01 10.72H0.510004V10.71ZM2.62 16.42L2.27 15.19H10.17L12.41 12.29C13.73 13.43 15.04 14.57 16.36 15.71C16.24 16.18 15.86 16.41 15.22 16.41H2.62V16.42ZM2.62 22.13L2.27 20.9H10.17L12.41 18C12.88 18.41 13.35 18.8 13.81 19.19C14.89 20.1 15.74 20.86 16.35 21.47C16.23 21.91 15.85 22.13 15.21 22.13H2.62ZM2.27 41.88V24.89L6.97 26.82H10.74L12.89 24.49L17.37 27.91C16.96 28.32 16.39 28.6 15.66 28.74V38.88C15.66 39.08 15.24 39.35 14.39 39.67C13.45 40.02 12.63 40.2 11.93 40.2H11.14V37.57H6.8V40.42C6.8 40.68 6.39 40.98 5.57 41.3C4.69 41.68 3.82 41.87 2.94 41.87H2.28L2.27 41.88ZM2.71 5.19L2.36 3.92001H9.82L12.1 0.940002C12.6 1.35 13.09 1.76001 13.59 2.17001C14.7 3.11001 15.58 3.88 16.22 4.5C16.1 4.97 15.74 5.20001 15.12 5.20001H2.7L2.71 5.19ZM6.79 36.35H11.13V28.1H6.79V36.35ZM17.15 16.51L16.8 15.24H26.32V11.47H19.52L19.17 10.28H26.32V6.64001H18.33L17.98 5.41H26.32V0.929993L32.9 1.5C32.81 2.17 32.27 2.56999 31.28 2.67999V5.39999H34.04L36.54 2.20001C37.07 2.64001 37.59 3.06 38.12 3.47C39.32 4.47 40.27 5.27999 40.97 5.92999C40.85 6.39999 40.47 6.63 39.83 6.63H31.27V10.27H33.6L35.93 7.29001C37.33 8.43001 38.72 9.59001 40.1 10.76C39.98 11.23 39.59 11.46 38.92 11.46H31.28V15.23H35.01L37.42 12.03C37.95 12.47 38.49 12.89 39.04 13.3C40.27 14.3 41.23 15.13 41.94 15.8C41.85 16.27 41.46 16.5 40.75 16.5H17.14L17.15 16.51ZM32.6 41.83C32.45 40.02 32.19 38.82 31.81 38.23C31.2 37.44 30.16 36.9 28.69 36.61V36C30.09 36.06 31.48 36.13 32.86 36.22C33.42 36.22 33.69 35.94 33.69 35.39V31.7H24.82V40.08C24.82 40.37 24.4 40.71 23.55 41.09C22.58 41.5 21.63 41.7 20.7 41.7H19.95V17.78L25.04 19.84H33.25L35.44 17.34L40.27 20.98C39.98 21.33 39.44 21.59 38.65 21.77V35.99C38.65 37.89 38.31 39.22 37.64 39.98C36.79 40.98 35.11 41.59 32.59 41.82L32.6 41.83ZM24.83 25.06H33.7V21.07H24.83V25.06ZM24.83 30.46H33.7V26.33H24.83V30.46Z" fill="white"/>
<path d="M85.39 41.3C84.01 40.71 82.83 39.84 81.84 38.67C80.55 37.24 79.38 35.61 78.33 33.8C75.23 37.25 71.53 39.92 67.23 41.79L66.88 41.26C68.17 40.38 69.48 39.31 70.83 38.06H57.36V39.73C57.36 39.96 57.02 40.24 56.35 40.56C55.53 40.94 54.59 41.13 53.54 41.13H52.75V24.63C51.58 25.71 50.32 26.63 48.98 27.4L48.41 26.96C49.73 25.38 50.96 23.42 52.1 21.08C53.24 18.71 54.15 16.24 54.82 13.66L60.61 15.77C60.37 16.36 59.8 16.63 58.9 16.6C58.4 17.57 57.77 18.62 57.01 19.76L57.98 20.15H60.7C61.25 18.07 61.71 15.98 62.06 13.87L68.03 15.32C67.83 15.93 67.27 16.24 66.36 16.24C64.98 17.62 63.46 18.92 61.8 20.15H66.45L68.69 17.25C69.19 17.63 69.68 18.03 70.18 18.44C71.32 19.32 72.21 20.06 72.86 20.68C72.77 21.15 72.38 21.38 71.67 21.38H65.26V25.37H66.27L68.42 22.52C68.89 22.9 69.36 23.3 69.83 23.71C70.85 24.62 71.66 25.36 72.24 25.95C72.12 26.42 71.74 26.65 71.1 26.65H65.26V30.95H66.36L68.47 28.1C69.76 29.24 71.05 30.38 72.33 31.52C72.21 31.99 71.82 32.22 71.15 32.22H65.27V36.83H66.85L69.18 33.85C70.26 34.7 71.33 35.56 72.38 36.44C73.96 34.74 75.41 32.78 76.73 30.56C74.71 26 73.39 20.29 72.78 13.44H49.04L48.69 12.21H58.61V7.29001H51.02L50.67 6.06H58.61V0.709991L65.19 1.23999C65.13 1.90999 64.62 2.32 63.65 2.47V6.07001H65.54L67.95 2.91C68.48 3.32 69 3.73999 69.53 4.17999C70.7 5.14999 71.62 5.95 72.29 6.59C72.17 7.06 71.78 7.29001 71.11 7.29001H63.65V12.21H72.69C72.43 9.01999 72.29 5.16 72.29 0.619995L78.96 1.32001C78.9 1.99001 78.39 2.39999 77.42 2.54999C77.33 5.91999 77.39 9.12999 77.59 12.21H81.63L84.09 9.17999C83.62 9.14999 83.11 8.95 82.55 8.56C82.37 7.57 81.96 6.49999 81.32 5.35999C80.73 4.33999 80.06 3.43999 79.3 2.67999L79.65 2.37C82.25 2.63 84.19 3.27999 85.44 4.29999C86.46 5.14999 86.9 6.09999 86.76 7.14999C86.64 8.11999 86.12 8.75999 85.18 9.07999C86.88 10.37 88.43 11.58 89.83 12.72C89.71 13.19 89.29 13.42 88.56 13.42H77.68C78 17.58 78.68 21.22 79.7 24.35C80.75 21.57 81.57 18.6 82.16 15.44L88.57 17.24C88.37 17.83 87.79 18.1 86.86 18.07C85.57 22.25 83.88 25.98 81.77 29.26C82.79 31.07 83.95 32.58 85.24 33.78C85.5 34.13 85.72 34.31 85.9 34.31C86.1 34.28 86.31 34.08 86.51 33.7C87.53 32.03 88.41 30.28 89.14 28.43L89.67 28.52L88.57 36.07C89.92 38.79 90.19 40.47 89.4 41.12C88.35 41.91 87.02 41.97 85.41 41.3H85.39ZM57.35 25.37H60.9V21.38H57.35V25.37ZM57.35 30.94H60.9V26.64H57.35V30.94ZM57.35 36.82H60.9V32.21H57.35V36.82Z" fill="white"/>
<path d="M99.09 41.91V1.48999L104.31 3.67999H130.6L133.01 0.959991L137.71 4.82001C137.36 5.23001 136.76 5.53999 135.91 5.73999V39.93C135.85 40.16 135.38 40.47 134.51 40.85C133.51 41.29 132.61 41.51 131.79 41.51H131.04V38.79H103.87V40.06C103.87 40.41 103.48 40.81 102.69 41.25C101.81 41.69 100.89 41.91 99.92 41.91H99.09ZM103.87 37.52H131.04V4.91H103.87V37.52ZM105.27 17.94L104.92 16.67H115.1V13.73H112.73V14.26C112.73 14.47 112.35 14.71 111.59 15.01C110.74 15.36 109.91 15.54 109.09 15.54H108.48V6.14999L112.96 7.95001H121.56L123.49 5.84L127.7 8.95999C127.38 9.33999 126.91 9.57 126.3 9.66V14C126.27 14.18 125.83 14.4 124.98 14.66C124.1 14.92 123.34 15.06 122.7 15.06H121.95V13.74H119.49V16.68H124.41L126.56 14.09C127.03 14.44 127.5 14.79 127.96 15.14C129.04 15.99 129.91 16.69 130.55 17.25C130.46 17.72 130.07 17.95 129.37 17.95H105.27V17.94ZM107.03 36.46V18.46L111.37 20.22H123.4L125.33 18.2L129.32 21.27C129 21.59 128.52 21.81 127.87 21.93V34.61C127.84 34.79 127.43 35.02 126.64 35.31C125.82 35.6 125.09 35.75 124.45 35.75H123.79V33.73H111.11V35.13C111.11 35.36 110.74 35.64 110.01 35.96C109.22 36.28 108.43 36.44 107.64 36.44H107.03V36.46ZM111.11 32.47H123.79V21.45H111.11V32.47ZM112.73 12.5H121.95V9.17001H112.73V12.5ZM112.9 31.37V22.42L116.06 23.78H118.69L120.14 22.33L123.08 24.61C122.9 24.87 122.54 25.06 121.98 25.18V30.18C121.95 30.33 121.64 30.52 121.04 30.77C120.44 31.02 119.92 31.14 119.48 31.14H119V29.65H115.88V30.44C115.88 30.59 115.6 30.76 115.05 30.97C114.43 31.23 113.86 31.37 113.34 31.37H112.9ZM115.88 28.38H119V25.05H115.88V28.38Z" fill="white"/>
<path d="M150.04 41.82V18.82C148.49 20.58 146.79 22.2 144.95 23.69L144.47 23.34C146.25 20.56 147.92 17.17 149.47 13.16C151.05 8.98 152.26 4.80999 153.11 0.649994L160.22 2.89001C160.04 3.50001 159.46 3.81 158.46 3.81C157.26 7.14 155.9 10.07 154.38 12.59L156.49 13.38C156.32 13.82 155.85 14.1 155.09 14.21V40.37C155.06 40.6 154.62 40.9 153.77 41.25C152.8 41.63 151.87 41.82 150.96 41.82H150.04ZM168.74 41.91V29.97C165.73 33.72 161.63 36.82 156.45 39.27L156.05 38.74C158.3 36.93 160.35 34.64 162.19 31.89C163.89 29.37 165.26 26.67 166.32 23.77H156.53L156.18 22.5H168.73V16.36H165.48V17.81C165.48 18.07 165.01 18.41 164.08 18.82C163.08 19.23 162.09 19.43 161.09 19.43H160.39V1.60999L165.74 3.72H176.8L179.21 1.04001L184.34 4.89999C183.93 5.42999 183.3 5.76 182.45 5.91V17.1C182.42 17.28 181.91 17.51 180.91 17.8C179.83 18.12 178.91 18.28 178.14 18.28H177.26V16.35H173.88V22.49H178.09L180.99 18.8C181.61 19.3 182.23 19.78 182.88 20.25C184.28 21.39 185.38 22.33 186.17 23.06C186.05 23.53 185.64 23.76 184.94 23.76H174.36C175.68 25.98 177.53 28.02 179.93 29.86C182.1 31.56 184.42 32.9 186.91 33.9L186.82 34.38C184.8 34.85 183.45 36.35 182.78 38.9C178.74 35.8 175.77 31.13 173.87 24.9V40.39C173.87 40.62 173.49 40.92 172.73 41.27C171.79 41.68 170.77 41.88 169.66 41.88H168.69L168.74 41.91ZM165.49 15.14H177.3V5H165.49V15.14Z" fill="white"/>
<path d="M199.42 41.91V20.67L204.82 22.82H223.52L225.63 20.54C224.99 20.6 224.47 20.63 224.09 20.63C224.09 19.02 223.86 17.95 223.39 17.43C222.83 16.73 221.82 16.23 220.36 15.94V15.33C222.41 15.48 223.78 15.55 224.49 15.55C225.05 15.55 225.48 15.43 225.81 15.2C226.75 14.5 227.39 11.24 227.74 5.41H222.91C222.56 9.27 221.58 12.33 219.97 14.58C217.83 17.59 214.19 19.98 209.04 21.73L208.6 21.16C212.26 19.05 214.76 16.55 216.1 13.66C217.04 11.64 217.56 8.89 217.68 5.41H213.6L213.47 4.97C212.94 5.32 212.08 5.29 210.88 4.88C208.33 5.47 205.36 5.94999 201.97 6.32999V14.58C202.64 14.37 203.7 14.08 205.13 13.7C206.36 13.38 207.28 13.13 207.89 12.95C207.28 11.25 206.44 9.62999 205.39 8.07999L205.83 7.82001C208.46 8.67001 210.42 9.80001 211.71 11.2C212.79 12.4 213.28 13.61 213.16 14.84C213.07 15.98 212.57 16.76 211.67 17.17C210.73 17.58 209.75 17.36 208.73 16.51C208.67 15.75 208.54 15 208.34 14.27C205.53 16.17 201.84 18.43 197.28 21.03C197.13 21.62 196.78 22.01 196.23 22.22L193.33 16.73L193.37 16.69C194.89 16.37 196.21 16.06 197.32 15.77V2.56L202.54 4.57999C205.12 3.16999 207.21 1.84 208.82 0.589996L213.38 4.76001L213.2 4.14999H227.38L229.88 1.73999L234.31 5.42999C233.93 5.80999 233.34 6.05999 232.55 6.17999C232.32 10.19 231.94 13.19 231.41 15.18C230.88 17.2 230.11 18.57 229.08 19.3C228.29 19.92 227.34 20.31 226.23 20.49L230.84 24C230.46 24.5 229.89 24.82 229.13 24.97V40.33C229.07 40.53 228.56 40.8 227.59 41.12C226.54 41.44 225.61 41.6 224.82 41.6H223.94V38.7H204.45V40.28C204.45 40.57 204 40.92 203.09 41.33C202.09 41.74 201.11 41.94 200.15 41.94H199.4L199.42 41.91ZM204.47 30.02H211.62V24.05H204.47V30.02ZM204.47 37.44H211.62V31.3H204.47V37.44ZM216.67 30.02H223.96V24.05H216.67V30.02ZM216.67 37.44H223.96V31.3H216.67V37.44Z" fill="white"/>
<path d="M247.78 27.65V15.27C246.05 17.11 244.23 18.72 242.29 20.1L241.81 19.75C243.42 17.35 244.96 14.48 246.42 11.15C247.97 7.60999 249.19 4.1 250.06 0.619995L257.08 3.12C256.87 3.73 256.29 4.03 255.33 4C254.39 5.96 253.33 7.85999 252.13 9.70999L254.28 10.5C254.13 10.91 253.69 11.17 252.96 11.29V26.3C252.9 26.53 252.43 26.81 251.55 27.13C250.59 27.48 249.63 27.66 248.7 27.66H247.78V27.65ZM244.05 39.02C243.14 38.78 242.56 38.26 242.3 37.44C242.06 36.68 242.14 35.98 242.52 35.33C242.87 34.74 243.43 34.28 244.19 33.93C245.3 33.46 246.28 32.7 247.13 31.65C248.1 30.48 248.62 29.21 248.71 27.83L249.28 27.87C250.13 30.5 250.22 32.84 249.54 34.89C248.98 36.65 248 37.9 246.6 38.66C245.78 39.13 244.93 39.24 244.05 39.01V39.02ZM258.62 40.91C256.25 40.91 254.7 40.63 253.97 40.08C253.24 39.52 252.87 38.38 252.87 36.66V27.05L259.19 27.58C259.1 28.19 258.65 28.56 257.83 28.68V35.57C257.83 35.89 257.93 36.1 258.14 36.18C258.34 36.3 258.83 36.36 259.59 36.36H264.46C266.68 36.36 268 36.35 268.41 36.32C268.97 36.29 269.39 36.1 269.68 35.75C270.12 35.14 270.78 33.58 271.65 31.1H272.13L272.26 35.84C272.93 36.1 273.4 36.39 273.67 36.7C273.93 37.01 274.06 37.4 274.06 37.86C274.06 38.97 273.39 39.75 272.04 40.19C270.55 40.69 267.84 40.94 263.92 40.94H258.61L258.62 40.91ZM255.11 16.2L254.58 15.85C255.75 13.98 256.82 11.71 257.78 9.04999C258.8 6.32999 259.58 3.56001 260.11 0.76001L267.04 2.95001C266.83 3.54001 266.26 3.82999 265.33 3.82999C264.89 4.73999 264.48 5.53999 264.1 6.23999H275.95L278.63 3.51999L283.28 7.95001C282.99 8.24001 282.42 8.42999 281.57 8.51999C279.73 10.16 277.61 11.58 275.21 12.78L274.86 12.52C275.36 11.12 275.81 9.43 276.22 7.47H263.36C261.05 11.19 258.3 14.1 255.11 16.2ZM265.51 26.73C265.36 24.92 265.09 23.73 264.68 23.17C264.04 22.35 262.98 21.81 261.52 21.55V20.98C262.98 21.07 264.45 21.16 265.91 21.24C266.41 21.24 266.66 21.02 266.66 20.58V14.04C266.31 14.27 265.85 14.38 265.3 14.35C263.05 18.36 259.99 21.26 256.13 23.04L255.65 22.65C256.7 21.3 257.67 19.64 258.55 17.65C259.46 15.6 260.16 13.48 260.66 11.29L266.67 13.44V7.87L273.12 8.44C273.03 9.05 272.55 9.42001 271.67 9.54001V20.82C271.67 22.75 271.33 24.11 270.66 24.9C269.78 25.9 268.07 26.51 265.52 26.74L265.51 26.73ZM263.4 32.83C263.11 31.6 262.51 30.31 261.6 28.97C260.78 27.71 259.86 26.64 258.84 25.77L259.19 25.42C262.03 25.71 264.19 26.42 265.69 27.53C266.95 28.47 267.59 29.53 267.62 30.73C267.68 31.81 267.27 32.6 266.39 33.1C265.48 33.63 264.49 33.54 263.41 32.84L263.4 32.83ZM277.88 38.14C277.5 36.44 276.68 34.66 275.42 32.79C274.25 31.03 272.92 29.54 271.43 28.31L271.78 28C275.26 28.59 277.97 29.65 279.9 31.2C281.48 32.46 282.34 33.85 282.49 35.37C282.64 36.78 282.24 37.8 281.31 38.44C280.28 39.11 279.14 39.01 277.89 38.13L277.88 38.14ZM277.13 22.21C276.9 20.6 276.28 18.82 275.29 16.86C274.44 15.16 273.43 13.57 272.26 12.08L272.7 11.82C275.8 12.82 278.14 14.15 279.72 15.81C281.04 17.21 281.71 18.65 281.74 20.11C281.74 21.43 281.27 22.33 280.34 22.83C279.34 23.36 278.28 23.15 277.14 22.22L277.13 22.21Z" fill="white"/>
<path d="M292.2 39.19V7.10999L297.03 9.22H297.07C297.48 6.29 297.8 3.5 298.04 0.839996L305.19 2.51001C305.02 3.21001 304.41 3.56 303.39 3.56C301.69 5.73 300.13 7.61 298.69 9.22H301.76L304.13 6.63L308.83 10.32C308.48 10.73 307.88 11.04 307.03 11.24V36.43C307 36.63 306.53 36.91 305.63 37.26C304.63 37.64 303.76 37.83 303 37.83H302.21V34.36H296.86V37.48C296.86 37.8 296.47 38.15 295.68 38.53C294.8 38.97 293.89 39.19 292.96 39.19H292.21H292.2ZM296.85 20.84H302.2V10.44H296.85V20.84ZM296.85 33.13H302.2V22.03H296.85V33.13ZM318.44 41.51C318.44 39.9 318.12 38.79 317.47 38.17C316.65 37.35 315.11 36.71 312.86 36.24V35.67C316.08 35.93 318.23 36.06 319.31 36.06C320.07 36.06 320.67 35.84 321.11 35.4C322.92 33.88 324.12 25.51 324.71 10.3H314.79C312.68 13.61 310.27 16.26 307.55 18.24L307.02 17.89C308.31 15.7 309.48 13.11 310.53 10.12C311.64 6.99 312.46 3.83999 312.99 0.679993L319.88 2.73999C319.62 3.34999 319.03 3.65 318.13 3.62C317.46 5.38 316.61 7.16999 315.58 9.01999H324.27L327.03 6.12L331.68 10.33C331.27 10.74 330.6 11 329.66 11.12C329.34 19.81 328.84 26.31 328.17 30.61C327.47 35.06 326.46 37.94 325.14 39.26C324.29 40.08 323.33 40.66 322.24 41.02C321.22 41.34 319.94 41.5 318.42 41.5L318.44 41.51ZM315.02 25.71C314.9 22.81 313.73 19.8 311.51 16.67L311.91 16.36C314.81 17.3 316.96 18.55 318.36 20.13C319.53 21.45 320.04 22.78 319.9 24.12C319.75 25.35 319.18 26.15 318.19 26.53C317.17 26.94 316.11 26.66 315.03 25.7L315.02 25.71Z" fill="white"/>
<path d="M340.92 14.22C340.72 12.29 339.78 10.27 338.11 8.16L338.55 7.89999C339.84 8.18999 340.95 8.57001 341.89 9.04001C342.48 7.02001 343.13 4.20999 343.86 0.609985L350.22 2.67001C350.01 3.26001 349.44 3.54999 348.51 3.54999C346.75 5.94999 344.94 8.03 343.07 9.78C344.18 10.66 344.74 11.62 344.74 12.68C344.74 13.65 344.33 14.32 343.51 14.7C342.69 15.08 341.83 14.92 340.92 14.22ZM344.52 41.91V28C344.34 28.06 344.18 28.09 344.04 28.09C342.78 32.6 341.06 36.01 338.86 38.32L338.2 37.97C339.31 34.55 339.96 30.54 340.13 25.94L344.52 26.82V22.74C344.08 22.89 343.38 23.11 342.41 23.4C341.82 23.61 341.39 23.75 341.09 23.84C340.85 24.34 340.45 24.65 339.86 24.76L338.19 19.93C338.72 19.93 339.86 19.92 341.61 19.89C342.08 19.86 342.43 19.85 342.66 19.85C345.06 15.29 347.09 10.78 348.76 6.32999L354.82 8.70001C354.56 9.29001 353.97 9.51999 353.06 9.39999C350.51 12.97 347.62 16.42 344.37 19.76C346.36 19.7 348.38 19.61 350.43 19.5C350.11 18.21 349.67 16.94 349.11 15.68L349.64 15.46C351.72 16.46 353.21 17.63 354.12 18.97C354.85 20.08 355.1 21.15 354.87 22.17C354.67 23.13 354.15 23.74 353.33 23.97C352.48 24.23 351.66 23.96 350.87 23.14C350.9 22.47 350.84 21.65 350.69 20.68L349.02 21.25V40.61C349.02 40.81 348.68 41.08 348.01 41.4C347.19 41.75 346.28 41.93 345.29 41.93H344.5L344.52 41.91ZM357.77 41.78V32.39C356.28 35.61 354.17 38.24 351.45 40.29L351.01 39.94C352.53 37.57 353.64 34.85 354.35 31.78C354.06 32.54 353.56 32.99 352.86 33.14C352.07 33.32 351.34 33.04 350.67 32.31C350.82 30.38 350.44 28.16 349.53 25.64L350.01 25.46C351.68 26.31 352.91 27.29 353.7 28.4C354.34 29.34 354.62 30.24 354.53 31.12C355.26 27.76 355.63 23.38 355.63 18V8.12L360.98 10.05H371.95L374.19 7.64001L378.84 11.11C378.52 11.52 377.96 11.81 377.17 11.99V19.36C377.14 19.54 376.69 19.78 375.81 20.11C374.81 20.46 373.95 20.64 373.22 20.64H372.39V18.8H360.23C360.23 19.88 360.19 21.04 360.1 22.27L361.81 22.97H373.57L375.33 20.95L379.46 23.98C379.14 24.36 378.65 24.61 378.01 24.73V36.76C378.01 38.43 377.76 39.6 377.26 40.27C376.65 41.12 375.42 41.63 373.57 41.81C373.51 40.29 373.37 39.29 373.13 38.83C372.87 38.3 372.46 37.94 371.9 37.73V40.41C371.87 40.59 371.62 40.78 371.15 40.98C370.56 41.27 369.92 41.42 369.22 41.42H368.69V31.72H366.76V40.54C366.73 40.69 366.48 40.86 366.01 41.07C365.4 41.33 364.74 41.46 364.04 41.46H363.51V31.72H361.54V40.59C361.54 40.82 361.2 41.07 360.53 41.34C359.83 41.66 359.1 41.82 358.34 41.82H357.77V41.78ZM353.91 5.57001L353.56 4.34H372.04L374.76 0.869995C376.37 2.19 377.98 3.51999 379.59 4.85999C379.47 5.32999 379.06 5.56 378.36 5.56H353.91V5.57001ZM360.23 17.55H372.39V11.27H360.23V17.55ZM361.55 30.45H363.52V24.17H361.55V30.45ZM366.77 30.45H368.7V24.17H366.77V30.45ZM371.9 30.45H373.96V24.17H371.9V30.45ZM373.35 36.95C373.76 36.95 373.97 36.73 373.97 36.29V31.68H371.91V36.9C372.09 36.9 372.38 36.92 372.79 36.94H373.36L373.35 36.95Z" fill="white"/>
<path d="M393.01 41.82C393.01 40.33 392.79 39.35 392.35 38.88C391.82 38.27 390.83 37.8 389.37 37.48V36.82C391.07 37 392.44 37.08 393.49 37.08C394.07 37.08 394.53 36.96 394.85 36.73C395.82 35.94 396.49 32.4 396.87 26.11H393.14C392.96 26.81 392.76 27.6 392.52 28.48C392.05 28.8 391.39 28.99 390.55 29.05C389.7 29.11 388.79 28.99 387.83 28.7C388.5 26.86 389.21 23.99 389.94 20.1H386.96L386.61 18.87H397.49L399.64 15.89C398.88 16.07 398.29 16.15 397.88 16.15H397.13V14.18H392.79V15.67C392.79 15.9 392.41 16.18 391.65 16.5C390.8 16.85 389.97 17.03 389.15 17.03H388.54V1.79999L393.02 3.64001H396.71L398.82 1.31L403.34 4.73001C402.93 5.20001 402.33 5.50999 401.54 5.64999V15.04C401.48 15.27 400.94 15.52 399.92 15.79C400.01 15.88 400.26 16.1 400.67 16.45C402.19 17.77 403.27 18.75 403.92 19.39C403.8 19.86 403.41 20.09 402.73 20.09H394.52C394.43 20.47 394.3 21.09 394.12 21.93C393.83 23.25 393.61 24.23 393.46 24.87H396.53L398.81 22.59L402.98 26.06C402.66 26.44 402.09 26.69 401.27 26.81C401.06 30.96 400.7 34.09 400.17 36.18C399.64 38.27 398.87 39.7 397.84 40.46C396.64 41.37 395.03 41.82 393.01 41.82ZM392.79 12.94H397.13V4.85999H392.79V12.94ZM400.6 41.82L400.12 41.38C401.93 38.63 403.18 35.25 403.85 31.24C404.29 28.49 404.51 24.88 404.51 20.4V8.23999L409.82 10.21H412.76V0.640015L418.86 1.17001C418.8 1.81001 418.32 2.21001 417.41 2.35001V5.82001H420.31L422.68 2.62C423.21 3.06 423.73 3.48001 424.26 3.89001C425.43 4.89001 426.35 5.71001 427.02 6.35001C426.9 6.82001 426.49 7.04999 425.79 7.04999H417.41V10.21H421.93L424.08 7.97L428.03 11.7C427.77 11.93 427.21 12.1 426.36 12.18C425.19 13.09 423.84 13.97 422.32 14.81C422.79 15.1 423.45 15.59 424.29 16.26C424.23 16.79 423.91 17.08 423.32 17.14L416.78 17.75V19.73C416.78 19.99 416.85 20.17 416.98 20.26C417.11 20.35 417.4 20.39 417.84 20.39H420.25C421.42 20.39 422.14 20.38 422.4 20.35C422.81 20.35 423.12 20.26 423.32 20.09C423.61 19.71 424.02 18.86 424.55 17.55H425.03L425.21 20.09C426.12 20.44 426.57 20.95 426.57 21.63C426.57 22.48 426.09 23.06 425.12 23.39C424.15 23.71 422.37 23.87 419.77 23.87H416.65C414.98 23.87 413.89 23.64 413.36 23.17C412.89 22.73 412.66 21.85 412.66 20.54V18.13L409.06 18.48V20.41C409.06 24.95 408.64 28.63 407.79 31.47C406.5 35.77 404.1 39.22 400.59 41.83L400.6 41.82ZM405.78 41.82L405.43 41.29C409.47 37.98 411.34 32.75 411.05 25.58L417.15 26.55C417 27.22 416.46 27.6 415.53 27.69C415.15 30.85 414.33 33.47 413.07 35.55C411.46 38.27 409.03 40.36 405.78 41.83V41.82ZM409.07 17.2L412.67 16.85V12.07L418.07 12.6C418.01 13.19 417.59 13.54 416.8 13.65V16.46L419.35 16.24L420.93 13.87L421.63 14.35C421.81 13.5 422 12.52 422.2 11.41H409.08V17.2H409.07ZM420.83 41.3C419.37 41.3 418.42 41.04 417.98 40.51C417.6 40.04 417.41 39.11 417.41 37.7V25.41L423.03 25.89C422.94 26.5 422.52 26.89 421.76 27.03V36.55C421.76 36.78 421.8 36.94 421.87 37.03C421.94 37.12 422.1 37.16 422.33 37.16H424.08C424.34 37.16 424.56 37.01 424.74 36.72C424.94 36.34 425.43 34.77 426.19 32.02H426.67L426.85 36.93C427.32 37.14 427.64 37.38 427.81 37.68C427.93 37.92 427.99 38.25 427.99 38.69C427.99 40.42 426.25 41.28 422.77 41.28H420.84L420.83 41.3Z" fill="white"/>
<path d="M435.45 48.05L434.88 46.78C436.72 45.79 438.14 44.76 439.14 43.71C440.25 42.54 441.04 41.14 441.51 39.5L439.49 38.27C438 37.39 437.25 36.25 437.25 34.85C437.25 33.86 437.57 33.03 438.22 32.37C438.86 31.71 439.7 31.38 440.72 31.38C441.89 31.38 442.9 31.79 443.75 32.61C444.19 33.63 444.41 34.8 444.41 36.12C444.41 38.9 443.46 41.43 441.56 43.71C439.89 45.7 437.86 47.15 435.46 48.06L435.45 48.05Z" fill="white"/>
<path d="M456.43 38.53L453.62 32.61C455.35 32.29 457.33 31.85 459.59 31.29L459.15 3.16L466.04 3.64001C465.98 4.34001 465.45 4.77 464.46 4.91L464.85 29.88C468.45 28.91 472.11 27.86 475.82 26.72L475.95 27.25C470.8 30.62 464.67 33.98 457.56 37.34C457.3 37.95 456.92 38.35 456.42 38.52L456.43 38.53ZM463.76 41.87L463.37 41.17C469.95 38.19 474.88 34.81 478.16 31.03C481.06 27.69 482.99 23.6 483.95 18.74C484.62 15.43 485.02 10.28 485.14 3.29001L492.51 3.95001C492.36 4.74001 491.81 5.17999 490.84 5.26999C490.58 11.12 490.18 15.47 489.66 18.31C488.87 22.58 487.51 26.14 485.58 28.98C488.71 30.15 491.12 31.63 492.82 33.41C494.25 34.9 495.03 36.41 495.15 37.93C495.24 39.31 494.81 40.29 493.88 40.87C492.91 41.45 491.77 41.34 490.46 40.52C489.41 37.71 487.36 34.42 484.32 30.64C480.31 35.47 473.46 39.21 463.78 41.88L463.76 41.87ZM474.25 18.83C473.52 15.82 471.66 12.38 468.68 8.51999L469.08 8.26001C472.41 9.20001 474.96 10.5 476.72 12.17C478.18 13.55 478.96 14.98 479.05 16.47C479.11 17.82 478.66 18.77 477.69 19.32C476.67 19.91 475.52 19.74 474.27 18.84L474.25 18.83Z" fill="white"/>
<path d="M507.3 41.87V18.61C505.63 20.54 503.89 22.22 502.08 23.66L501.55 23.31C503.39 20.5 505.1 17.11 506.68 13.13C508.35 8.98 509.61 4.81 510.46 0.619995L517.53 2.76999C517.38 3.40999 516.81 3.72 515.82 3.69C514.53 7.06 513.07 10.1 511.43 12.82L513.84 13.7C513.69 14.14 513.24 14.42 512.48 14.53V40.34C512.42 40.6 511.97 40.91 511.12 41.26C510.15 41.67 509.2 41.87 508.27 41.87H507.31H507.3ZM512.61 41.96L512.3 41.48C517.95 39.37 521.74 36.7 523.67 33.45C522.62 31.99 521.74 30.3 521.04 28.4C519.99 30.04 518.96 31.5 517.97 32.79C518.17 33.23 518.07 33.59 517.66 33.89L515.51 30.51C517.09 29.78 518.8 28.75 520.64 27.44L521.17 25.55L522.84 26.38L521.44 27.78C522.23 29.07 523.31 30.24 524.69 31.29C525.33 29.51 525.73 27.31 525.87 24.71H521.09V25.02C521.09 25.28 520.64 25.61 519.73 25.99C518.73 26.4 517.77 26.6 516.83 26.6H516.13V8.47L521.35 10.53H525.91V5.82999H516.17L515.82 4.60001H535.57L538.51 0.779999C540.27 2.21 542.02 3.66 543.78 5.12C543.66 5.59 543.24 5.82001 542.51 5.82001H531.05V10.52H535.75L538.12 7.92999L543.08 11.66C542.73 12.13 542.14 12.45 541.32 12.63V25.09C541.29 25.3 540.78 25.54 539.78 25.84C538.76 26.19 537.85 26.37 537.06 26.37H536.18V24.7H531C530.79 28.33 530 31.25 528.63 33.48C532.81 35.21 537.99 36.03 544.17 35.94L544.13 36.47C543.1 36.79 542.24 37.41 541.54 38.31C540.81 39.25 540.34 40.36 540.14 41.65C534.02 40.77 529.4 38.97 526.27 36.25C523.4 38.8 518.85 40.7 512.62 41.96H512.61ZM521.08 16.94H525.91V11.76H521.08V16.94ZM521.08 23.48H525.91V18.17H521.08V23.48ZM531.04 16.94H536.17V11.76H531.04V16.94ZM531.04 23.48H536.17V18.17H531.04V23.48Z" fill="white"/>
<path d="M555.89 41.87V21.86C554.1 23.41 552.31 24.76 550.49 25.9L550.1 25.5C551.94 23.28 553.79 20.53 555.63 17.25C557.3 14.27 558.6 11.54 559.54 9.09L565.86 12.47C565.66 12.97 565.1 13.17 564.19 13.09C562.9 14.79 561.5 16.41 559.98 17.96L562.26 18.84C562.08 19.25 561.63 19.51 560.9 19.63V40.17C560.87 40.46 560.45 40.81 559.63 41.22C558.72 41.66 557.79 41.88 556.82 41.88H555.9L555.89 41.87ZM550.97 12.82L550.57 12.38C552.15 10.83 553.74 8.9 555.35 6.59C556.81 4.45 557.97 2.48001 558.82 0.670013L564.66 4.14001C564.4 4.64001 563.84 4.81001 562.99 4.67001C561.44 6.16001 559.67 7.61001 557.68 9.01001C555.43 10.56 553.19 11.83 550.97 12.83V12.82ZM588.41 41.83C583.76 40.43 580.07 38.52 577.35 36.12C573.14 38.84 568.05 40.71 562.08 41.74L561.82 41.17C567.17 39.3 571.53 36.72 574.9 33.45C573.76 31.96 572.79 30.25 572 28.32C569.37 30.98 566.24 33.12 562.61 34.73L562.13 34.25C563.91 32.73 565.6 30.83 567.18 28.54C568.85 26.14 570.22 23.6 571.31 20.9C570.72 21.02 569.83 21.18 568.63 21.38C567.75 21.55 567.08 21.69 566.61 21.77C566.38 22.3 565.95 22.62 565.34 22.74L563.63 17.12C564.74 17.15 567.21 17.14 571.05 17.08H572.06C573.87 15.18 575.64 13.03 577.37 10.63C579.01 8.35 580.31 6.29999 581.28 4.48999L587.07 8.04001C586.78 8.51001 586.21 8.66999 585.36 8.51999C582.2 11.68 578.61 14.52 574.61 17.03C577.01 16.97 580.26 16.88 584.35 16.77C583.68 15.63 582.73 14.3 581.5 12.78L581.94 12.52C584.9 13.34 587.16 14.47 588.74 15.9C590.03 17.1 590.72 18.36 590.8 19.67C590.86 20.87 590.46 21.72 589.61 22.22C588.7 22.75 587.71 22.61 586.63 21.82C586.34 20.62 585.83 19.36 585.09 18.05C582.75 18.61 579.3 19.34 574.73 20.24L578.37 21.34C578.17 21.93 577.59 22.2 576.66 22.17C576.16 23.05 575.65 23.85 575.12 24.58H580.21L583.2 21.77L588.03 26.07C587.88 26.3 587.68 26.46 587.42 26.55C587.22 26.61 586.83 26.67 586.28 26.73C584.82 29.33 582.94 31.65 580.66 33.66C583.88 35.04 587.8 35.99 592.42 36.51V36.99C590.31 37.58 588.98 39.18 588.43 41.82L588.41 41.83ZM570.15 14.22C569.48 12.61 567.82 10.21 565.19 7.01999C565.1 6.92999 565.04 6.85999 565.01 6.79999L565.36 6.48999C567.44 6.80999 569.21 7.34001 570.67 8.07001C571.69 5.99001 572.67 3.51999 573.61 0.649994L580.02 3.41C579.76 4.02 579.16 4.27 578.22 4.16C576.46 6 574.45 7.60999 572.16 8.98999C573.36 9.92999 574 10.96 574.09 12.11C574.18 13.13 573.81 13.88 572.99 14.35C572.17 14.85 571.22 14.8 570.14 14.22H570.15ZM576.65 31.51C578.14 29.76 579.33 27.87 580.2 25.85H574.14C573.67 26.46 573.19 27.03 572.69 27.56C573.71 29.02 575.03 30.34 576.64 31.51H576.65Z" fill="white"/>
<path d="M601.44 14.22C601.29 12.29 600.37 10.27 598.67 8.16L599.07 7.89999C600.42 8.18999 601.54 8.57001 602.45 9.04001C603.03 6.93001 603.68 4.11999 604.38 0.609985L610.79 2.67001C610.55 3.26001 609.97 3.54999 609.03 3.54999C607.22 6.03999 605.42 8.11 603.63 9.78C604.74 10.66 605.3 11.62 605.3 12.68C605.27 13.65 604.86 14.32 604.07 14.7C603.22 15.08 602.34 14.92 601.44 14.22ZM634.4 40.9C632.94 38.91 630.67 37.36 627.6 36.25L627.82 35.72C629.4 35.78 630.78 35.87 631.95 35.98V34.53H621.55V35.32C621.55 35.58 621.11 35.89 620.23 36.24C619.27 36.65 618.31 36.85 617.38 36.85H616.68V21.49C616.39 21.58 616.09 21.62 615.8 21.62C615.86 22.79 615.44 23.6 614.55 24.06C613.66 24.51 612.74 24.3 611.81 23.42C611.81 22.57 611.66 21.61 611.37 20.52L609.57 21.13V40.57C609.57 40.77 609.23 41.04 608.56 41.36C607.74 41.71 606.83 41.89 605.84 41.89H605.01V28.15C604.83 28.21 604.67 28.24 604.53 28.24C603.27 32.75 601.55 36.15 599.35 38.47L598.69 38.12C599.77 34.73 600.42 30.72 600.62 26.09L605.01 26.97V22.67L601.63 23.81C601.39 24.34 601 24.64 600.44 24.73L598.73 19.95C599.11 19.95 599.8 19.94 600.79 19.91C601.73 19.85 602.46 19.82 602.98 19.82C605.26 15.37 607.27 10.78 608.99 6.04001L615.09 8.19C614.83 8.8 614.24 9.05 613.33 8.94C610.99 12.39 608.03 15.99 604.46 19.74C604.75 19.74 605.21 19.73 605.82 19.7C608.07 19.58 609.8 19.5 611 19.44C610.62 18.24 610.14 17.1 609.55 16.02L610.03 15.8C612.14 16.71 613.67 17.76 614.64 18.96V10.01L619.25 11.85H633.91L635.89 9.79001L640.15 12.86C639.8 13.21 639.35 13.44 638.79 13.56V20.36C638.76 20.51 638.42 20.69 637.78 20.91C637.14 21.13 636.48 21.3 635.81 21.41L638.36 23.3C638.04 23.68 637.55 23.93 636.91 24.05V34.76C636.88 34.97 636.4 35.21 635.46 35.51C634.46 35.86 633.59 36.04 632.83 36.04H632.39C635.32 36.39 637.38 37.02 638.58 37.93C639.58 38.66 639.87 39.45 639.46 40.3C639.11 41.06 638.41 41.54 637.35 41.75C636.21 41.95 635.23 41.68 634.41 40.92L634.4 40.9ZM611.58 33.79C611.61 31.42 611.04 28.79 609.87 25.89L610.4 25.67C612.45 26.75 613.9 28 614.74 29.4C615.47 30.57 615.74 31.68 615.53 32.74C615.3 33.71 614.78 34.32 613.99 34.58C613.17 34.84 612.37 34.58 611.58 33.79ZM612.85 41.91L612.45 41.34C614.32 40.58 616.22 39.57 618.16 38.31C620.03 37.08 621.5 35.91 622.55 34.8L627.38 38.18C627.06 38.59 626.5 38.69 625.71 38.49C624.19 39.31 622.25 40.03 619.89 40.64C617.53 41.25 615.19 41.68 612.85 41.91ZM616.76 9.64999L616.41 8.42001H624.27V5.64999H614.44L614.09 4.42001H624.27V0.820007L630.63 1.35001C630.57 1.96001 630.12 2.34999 629.27 2.48999V4.42001H633.13L635.63 1.35001C636.16 1.76001 636.7 2.16999 637.25 2.57999C638.48 3.54999 639.44 4.34001 640.15 4.95001C640.03 5.42001 639.64 5.64999 638.97 5.64999H634.8C636.26 6.72999 637.62 7.83 638.88 8.94C638.79 9.41 638.4 9.64001 637.69 9.64001H616.76V9.64999ZM621.76 22.2H631.55L633.79 19.87L634.27 20.22V19.69H619V20.35C619 20.53 618.8 20.7 618.39 20.88L621.77 22.2H621.76ZM619 18.43H634.27V16.94C633.71 17.06 632.85 17.12 631.68 17.12H630.14C629.09 17.12 628.39 16.93 628.03 16.55C627.74 16.23 627.59 15.58 627.59 14.62V13.08H625.79C625.59 14.31 625.03 15.27 624.12 15.98C623.07 16.83 621.38 17.49 619.07 17.95L618.98 17.86V18.43H619ZM619 17.16C620.17 16.63 621.02 16.02 621.55 15.32C621.96 14.73 622.21 13.99 622.3 13.08H619.01V17.16H619ZM621.55 25.85H631.95V23.44H621.55V25.85ZM621.55 29.54H631.95V27.13H621.55V29.54ZM621.55 33.31H631.95V30.81H621.55V33.31ZM629.27 8.42999H632.21L634.45 5.66H629.27V8.42999ZM631.25 14.66H632.83C633.12 14.66 633.31 14.65 633.4 14.62C633.69 14.62 633.94 14.58 634.15 14.49H634.28V13.09H630.77V14.14C630.77 14.49 630.93 14.67 631.25 14.67V14.66Z" fill="white"/>
<path d="M647.66 41.82L647.18 41.21C652.04 37.67 655.69 33.65 658.15 29.14C660.23 25.39 661.59 21.04 662.23 16.06C662.61 13.1 662.82 8.60001 662.85 2.54001V1.35999L670.09 2.06C670 2.76 669.46 3.17001 668.47 3.29001C668.97 12.27 670.55 19.13 673.21 23.87C676.25 29.28 681.36 33.31 688.53 35.94L688.44 36.47C685.78 36.97 684.15 38.68 683.57 41.6C678.36 38.82 674.54 34.8 672.11 29.53C670.03 25.08 668.7 19.04 668.12 11.4C667.65 18.13 666.2 23.62 663.77 27.86C660.55 33.57 655.18 38.22 647.66 41.82Z" fill="white"/>
<path d="M695.72 41.82L695.46 41.34C698.21 40.4 700.92 39.07 703.58 37.35C706.04 35.77 707.92 34.22 709.24 32.7L716.39 35.73C716.1 36.32 715.26 36.56 713.89 36.48C711.67 37.77 709.02 38.88 705.95 39.82C702.61 40.84 699.21 41.52 695.72 41.84V41.82ZM700.94 34.75V12.67L702.52 13.28V1.29999L707.92 3.35999H723.94L726.27 0.809998L731.32 4.54001C730.97 4.98001 730.37 5.28999 729.52 5.45999V11.47C729.49 11.62 728.98 11.84 727.98 12.13C726.93 12.45 726.02 12.61 725.26 12.61H724.38V11.43H707.61V11.96C707.61 12.19 707.14 12.49 706.21 12.84C705.16 13.25 704.16 13.45 703.23 13.45H702.92L706.48 14.85H725.66L728.12 12.17L733.12 16.03C732.77 16.5 732.2 16.81 731.41 16.95V32.36C731.38 32.54 730.85 32.78 729.83 33.11C728.75 33.46 727.8 33.64 726.98 33.64H726.1V31.97H706.13V33.02C706.13 33.31 705.66 33.66 704.73 34.07C703.73 34.51 702.73 34.73 701.7 34.73H700.95L700.94 34.75ZM706.12 20H726.09V16.14H706.12V20ZM706.12 25.27H726.09V21.23H706.12V25.27ZM706.12 30.71H726.09V26.54H706.12V30.71ZM707.61 10.21H724.38V4.64001H707.61V10.21ZM734.6 40.78C734.13 41.7 733.22 42.09 731.88 41.94C730.39 40.68 728.32 39.29 725.69 37.77C723.11 36.28 720.77 35.11 718.67 34.26L718.93 33.73C722.97 33.52 726.36 33.86 729.11 34.74C731.39 35.47 733.03 36.47 734.03 37.72C734.88 38.83 735.07 39.85 734.6 40.77V40.78Z" fill="white"/>
<path d="M747.99 41.87V14.75H743.78L743.43 13.48H747.99V0.709991L754.62 1.37C754.47 2.04 753.93 2.45001 753 2.60001V13.48H753.66L755.85 10.06C756.32 10.53 756.79 11 757.25 11.47C758.33 12.52 759.15 13.39 759.71 14.06C759.62 14.53 759.26 14.76 758.61 14.76H752.99V40.13C752.99 40.42 752.55 40.79 751.67 41.23C750.7 41.67 749.8 41.89 748.95 41.89H747.99V41.87ZM761.9 41.56C761.9 40.21 761.71 39.32 761.33 38.88C760.98 38.41 760.22 38.03 759.05 37.74V37.04C760.34 37.16 761.39 37.22 762.21 37.22C762.74 37.22 763.12 37.1 763.35 36.87C764.08 36.17 764.54 32.15 764.71 24.8H762.47C762.12 28.17 761.43 31.05 760.41 33.45C759.06 36.61 757.02 39.27 754.27 41.44L753.7 40.83C755.34 38.58 756.54 35.97 757.3 33.02C757.92 30.68 758.3 27.94 758.44 24.81H755.24L754.85 23.58H758.49C758.55 22.44 758.58 20.79 758.58 18.62L764.24 19.1C764.15 19.71 763.67 20.1 762.79 20.24C762.76 20.94 762.69 22.05 762.57 23.58H764.32L766.43 21.47L768.98 23.58H772.89C772.95 21.3 772.98 19.62 772.98 18.53L778.86 19.01C778.77 19.65 778.27 20.03 777.37 20.15C777.34 20.82 777.27 21.88 777.15 23.31V23.57H779.3L781.49 21.42L785.57 24.71C785.25 25.09 784.68 25.34 783.86 25.46C783.74 30.29 783.49 33.76 783.11 35.88C782.73 38 782.09 39.44 781.18 40.2C780.07 41.11 778.59 41.56 776.75 41.56C776.75 40.1 776.56 39.15 776.18 38.71C775.74 38.18 774.88 37.76 773.59 37.44V36.78C774.99 36.9 776.15 36.95 777.06 36.95C777.61 36.95 778.01 36.83 778.24 36.6C779.03 35.9 779.51 31.96 779.69 24.79H777.06C776.68 28.24 775.96 31.15 774.91 33.52C773.48 36.68 771.3 39.34 768.37 41.51L767.8 40.94C769.53 38.66 770.8 36.02 771.62 33.04C772.26 30.7 772.67 27.95 772.85 24.79H770.17C769.91 25.05 769.39 25.26 768.63 25.4C768.51 30.37 768.28 33.9 767.93 35.98C767.58 38.06 766.98 39.48 766.13 40.24C765.08 41.12 763.67 41.56 761.92 41.56H761.9ZM756.28 18.87L755.97 18.34C761.09 15.82 764.35 12.15 765.76 7.32001H758.34L757.95 6.09H766.11C766.43 4.6 766.62 2.77999 766.68 0.649994L773.26 1.48001C773.11 2.15001 772.57 2.53 771.64 2.62C771.46 3.91 771.23 5.06 770.94 6.09H776.21L778.49 3.89001L782.61 7.31C782.26 7.66 781.7 7.88 780.94 7.97C780.71 10.46 780.36 12.4 779.89 13.81C779.36 15.24 778.65 16.25 777.74 16.84C776.6 17.54 775.03 17.89 773.04 17.89C773.04 16.49 772.79 15.54 772.29 15.04C771.68 14.43 770.59 13.96 769.04 13.64V13.07C771.32 13.22 772.84 13.29 773.6 13.29C774.24 13.29 774.68 13.2 774.92 13.03C775.65 12.44 776.18 10.54 776.5 7.32001H770.49C768.5 12.85 763.76 16.7 756.27 18.86L756.28 18.87Z" fill="white"/>
<path d="M793.63 38.97L791.26 32.78C791.7 32.75 792.5 32.63 793.67 32.43C794.23 32.37 794.65 32.31 794.94 32.25V2.32001L800.03 4.60001H804.81L807.14 2.10001L811.7 5.73999C811.35 6.17999 810.75 6.49 809.9 6.66V29.53L813.32 28.87L813.36 29.44C808.94 31.84 802.77 34.63 794.84 37.82C794.61 38.43 794.2 38.81 793.61 38.96L793.63 38.97ZM799.47 13.43H805.26V5.88H799.47V13.43ZM799.47 22.34H805.26V14.66H799.47V22.34ZM799.47 31.51C800.05 31.42 800.95 31.26 802.15 31.03C803.53 30.77 804.56 30.58 805.27 30.46V23.57H799.48V31.51H799.47ZM804.52 41.87L804.08 41.21C808.67 37.87 811.88 33.81 813.69 29.01C815.15 25.18 815.97 20.01 816.15 13.52H810.93L810.54 12.29H816.2C816.23 10.74 816.23 8.34 816.2 5.09V1.10001L822.96 1.76001C822.87 2.46001 822.34 2.89 821.38 3.03C821.38 3.73 821.36 4.76001 821.34 6.10001C821.31 8.91001 821.28 10.97 821.25 12.29H826.12L828.75 9.60999L833.27 13.52C832.89 13.96 832.25 14.24 831.34 14.35C831.14 22.54 830.78 28.44 830.29 32.04C829.79 35.84 828.96 38.33 827.79 39.5C826.36 40.93 824.38 41.64 821.87 41.61C821.87 39.91 821.61 38.79 821.08 38.23C820.41 37.47 819.09 36.87 817.13 36.43V35.82C817.28 35.82 817.51 35.83 817.83 35.86C820.38 36.07 821.93 36.17 822.48 36.17C823.15 36.17 823.68 35.98 824.06 35.6C824.79 34.93 825.36 32.73 825.77 29.02C826.12 25.71 826.38 20.55 826.56 13.53H821.16C820.98 18.18 820.5 22 819.71 24.99C818.71 28.68 817.09 31.84 814.84 34.47C812.35 37.37 808.92 39.84 804.53 41.89L804.52 41.87Z" fill="white"/>
<path d="M846.21 27.65V15.27C844.48 17.11 842.66 18.72 840.72 20.1L840.24 19.75C841.85 17.35 843.39 14.48 844.85 11.15C846.4 7.60999 847.62 4.1 848.49 0.619995L855.51 3.12C855.31 3.73 854.72 4.03 853.76 4C852.82 5.96 851.76 7.85999 850.56 9.70999L852.71 10.5C852.56 10.91 852.12 11.17 851.39 11.29V26.3C851.33 26.53 850.86 26.81 849.98 27.13C849.02 27.48 848.06 27.66 847.13 27.66H846.21V27.65ZM842.48 39.02C841.57 38.78 840.99 38.26 840.73 37.44C840.49 36.68 840.57 35.98 840.95 35.33C841.3 34.74 841.86 34.28 842.62 33.93C843.73 33.46 844.71 32.7 845.56 31.65C846.53 30.48 847.05 29.21 847.14 27.83L847.71 27.87C848.56 30.5 848.65 32.84 847.97 34.89C847.41 36.65 846.43 37.9 845.03 38.66C844.21 39.13 843.36 39.24 842.48 39.01V39.02ZM857.05 40.91C854.68 40.91 853.13 40.63 852.4 40.08C851.67 39.52 851.3 38.38 851.3 36.66V27.05L857.62 27.58C857.53 28.19 857.08 28.56 856.26 28.68V35.57C856.26 35.89 856.36 36.1 856.57 36.18C856.77 36.3 857.26 36.36 858.02 36.36H862.89C865.11 36.36 866.43 36.35 866.84 36.32C867.4 36.29 867.82 36.1 868.11 35.75C868.55 35.14 869.21 33.58 870.08 31.1H870.56L870.69 35.84C871.36 36.1 871.83 36.39 872.1 36.7C872.36 37.01 872.49 37.4 872.49 37.86C872.49 38.97 871.82 39.75 870.47 40.19C868.98 40.69 866.27 40.94 862.35 40.94H857.04L857.05 40.91ZM853.54 16.2L853.01 15.85C854.18 13.98 855.25 11.71 856.21 9.04999C857.23 6.32999 858.01 3.56001 858.54 0.76001L865.47 2.95001C865.26 3.54001 864.69 3.82999 863.76 3.82999C863.32 4.73999 862.91 5.53999 862.53 6.23999H874.38L877.06 3.51999L881.71 7.95001C881.42 8.24001 880.85 8.42999 880 8.51999C878.16 10.16 876.04 11.58 873.64 12.78L873.29 12.52C873.79 11.12 874.24 9.43 874.65 7.47H861.79C859.48 11.19 856.73 14.1 853.54 16.2ZM863.94 26.73C863.79 24.92 863.52 23.73 863.11 23.17C862.47 22.35 861.41 21.81 859.95 21.55V20.98C861.41 21.07 862.88 21.16 864.34 21.24C864.84 21.24 865.09 21.02 865.09 20.58V14.04C864.74 14.27 864.28 14.38 863.73 14.35C861.48 18.36 858.42 21.26 854.56 23.04L854.08 22.65C855.13 21.3 856.1 19.64 856.98 17.65C857.89 15.6 858.59 13.48 859.09 11.29L865.1 13.44V7.87L871.55 8.44C871.46 9.05 870.98 9.42001 870.1 9.54001V20.82C870.1 22.75 869.76 24.11 869.09 24.9C868.21 25.9 866.5 26.51 863.95 26.74L863.94 26.73ZM861.83 32.83C861.54 31.6 860.94 30.31 860.03 28.97C859.21 27.71 858.29 26.64 857.27 25.77L857.62 25.42C860.46 25.71 862.62 26.42 864.12 27.53C865.38 28.47 866.02 29.53 866.05 30.73C866.11 31.81 865.7 32.6 864.82 33.1C863.91 33.63 862.92 33.54 861.84 32.84L861.83 32.83ZM876.31 38.14C875.93 36.44 875.11 34.66 873.85 32.79C872.68 31.03 871.35 29.54 869.86 28.31L870.21 28C873.69 28.59 876.4 29.65 878.33 31.2C879.91 32.46 880.77 33.85 880.92 35.37C881.07 36.78 880.67 37.8 879.74 38.44C878.71 39.11 877.57 39.01 876.32 38.13L876.31 38.14ZM875.56 22.21C875.33 20.6 874.71 18.82 873.72 16.86C872.87 15.16 871.86 13.57 870.69 12.08L871.13 11.82C874.23 12.82 876.57 14.15 878.15 15.81C879.47 17.21 880.14 18.65 880.17 20.11C880.17 21.43 879.7 22.33 878.77 22.83C877.77 23.36 876.71 23.15 875.57 22.22L875.56 22.21Z" fill="white"/>
<path d="M894.8 41.87V23.92C893.07 26.7 890.94 29.25 888.39 31.56L887.82 31.08C890.8 26.46 892.94 20.37 894.23 12.82H889.18L888.83 11.55H894.8V0.75L901.43 1.41C901.28 2.11 900.74 2.53999 899.81 2.67999V11.55H900.34L902.58 8.17001C903.05 8.64001 903.52 9.09 903.98 9.53C905.06 10.58 905.88 11.45 906.44 12.12C906.35 12.59 905.97 12.82 905.3 12.82H899.81V17.91C902.12 18.64 903.83 19.61 904.95 20.81C905.86 21.81 906.25 22.81 906.13 23.84C905.98 24.78 905.52 25.41 904.73 25.73C903.88 26.05 903.02 25.83 902.14 25.07C901.97 23.34 901.19 21.3 899.81 18.93V40.39C899.81 40.65 899.39 40.96 898.54 41.31C897.6 41.69 896.7 41.88 895.82 41.88H894.81L894.8 41.87ZM925.13 41.12C924.57 38.66 923.11 36.03 920.74 33.22C915.97 37.26 909.84 40.17 902.35 41.95L902.09 41.34C907.01 39.2 911.09 36.69 914.34 33.79C918.09 30.48 921.16 26.37 923.56 21.46L929.88 24.71C929.62 25.18 928.96 25.35 927.91 25.24C926.21 27.7 924.25 29.99 922.03 32.13C924.69 32.89 926.71 33.96 928.09 35.33C929.23 36.5 929.77 37.73 929.71 39.02C929.68 40.19 929.21 41.01 928.31 41.48C927.34 42.01 926.29 41.89 925.15 41.13L925.13 41.12ZM904.24 32.34L903.89 31.73C911.26 27.4 916.95 21.11 920.96 12.86L927.06 16.06C926.77 16.56 926.17 16.73 925.26 16.59C919.99 23.93 912.99 29.19 904.24 32.35V32.34ZM910.12 22.42C909.65 21.13 908.83 19.74 907.66 18.25C906.58 16.85 905.44 15.65 904.24 14.65L904.59 14.34C907.05 14.57 909.08 15.1 910.69 15.92C911.51 14.08 912.27 11.97 912.97 9.60001H904.76L904.41 8.37H914.11V1.04001L920.56 1.57001C920.47 2.18001 920 2.55999 919.16 2.70999V8.37H922.67L925.3 4.73001C925.88 5.20001 926.46 5.67999 927.01 6.17999C928.3 7.28999 929.32 8.19999 930.08 8.89999C929.96 9.36999 929.57 9.60001 928.89 9.60001H914.85L919.68 11.36C919.42 11.97 918.83 12.24 917.93 12.15C916.14 14.02 914.23 15.62 912.18 16.93C913.38 17.87 914.02 18.93 914.11 20.13C914.17 21.18 913.8 21.97 913.01 22.5C912.19 23.06 911.22 23.03 910.11 22.41L910.12 22.42Z" fill="white"/>
<path d="M939.35 41.21L936.89 35.24C937.97 35.18 940.36 34.99 944.04 34.67C944.83 34.58 945.43 34.52 945.84 34.5V28.57H939.52L939.17 27.3H945.84V21.77H938.47L938.12 20.54H949.75C950.34 18.26 950.85 15.71 951.29 12.9H942.03C944.02 13.69 945.41 14.67 946.2 15.84C946.87 16.84 947.05 17.81 946.73 18.78C946.44 19.66 945.87 20.2 945.02 20.4C944.11 20.63 943.25 20.34 942.43 19.52C942.61 17.41 942.11 15.2 940.94 12.89H937.08L936.73 11.62H943.49V0.690002L948.58 1.22C948.49 1.72 948.1 2.02001 947.39 2.14001V11.62H949.41V0.690002L954.59 1.22C954.5 1.78 954.06 2.12999 953.27 2.26999V11.62H955.46L957.79 8.64001C958.32 9.05001 958.83 9.46 959.33 9.87C960.5 10.81 961.42 11.58 962.09 12.2C961.97 12.67 961.58 12.9 960.91 12.9H952.83L957.53 14C957.38 14.61 956.84 14.92 955.91 14.92C954.48 16.76 952.78 18.64 950.82 20.54H953.58L955.82 17.73C957.2 18.84 958.56 19.97 959.9 21.11C959.78 21.55 959.39 21.77 958.72 21.77H950.86V27.3H952.31L954.68 24.23C956.11 25.43 957.55 26.64 958.98 27.87C958.86 28.34 958.47 28.57 957.8 28.57H950.87V34.01C952.8 33.81 955.84 33.47 960 33L960.09 33.62C954.94 35.61 948.46 37.79 940.65 40.16C940.36 40.72 939.93 41.07 939.38 41.21H939.35ZM939.17 9.70001C939.2 8.53001 939.01 7.24 938.6 5.84C938.22 4.58 937.72 3.43 937.11 2.37L937.59 2.10999C939.78 2.98999 941.36 4.06999 942.33 5.35999C943.12 6.43999 943.41 7.52999 943.21 8.60999C943.03 9.57999 942.54 10.21 941.72 10.5C940.84 10.79 939.99 10.53 939.17 9.70999V9.70001ZM953.83 10.49L953.26 10.18C954.17 7.74999 955.07 4.99999 955.98 1.92999L961.9 4.34C961.64 4.93 961.07 5.17 960.19 5.09C957.76 7.46 955.64 9.25999 953.83 10.49ZM967.13 41.87C966.98 40.11 966.63 38.94 966.08 38.36C965.32 37.51 964.05 36.94 962.26 36.65V36.04C964.1 36.13 965.93 36.23 967.75 36.35C968.39 36.35 968.71 36.07 968.71 35.52V14.45H959.62L959.27 13.18H968.71V1.20001L975.21 1.85999C975.06 2.52999 974.54 2.94 973.63 3.09V13.1L975.6 9.89999C976.04 10.34 976.48 10.79 976.92 11.26C977.91 12.28 978.67 13.12 979.2 13.76C979.08 14.23 978.7 14.46 978.06 14.46H973.63V35.92C973.63 37.85 973.26 39.23 972.53 40.04C971.62 41.04 969.82 41.65 967.13 41.88V41.87ZM962.48 27.17C962.65 24.21 961.97 21.05 960.42 17.69L960.86 17.47C963.38 18.64 965.19 20.06 966.3 21.73C967.24 23.11 967.59 24.47 967.35 25.81C967.09 27.04 966.47 27.83 965.51 28.18C964.49 28.53 963.48 28.19 962.48 27.17Z" fill="white"/>
<path d="M989.91 41.87C989.85 40.23 989.59 39.08 989.12 38.4C988.56 37.64 987.42 37.1 985.7 36.78V36.21C987.25 36.27 988.79 36.34 990.31 36.43C990.87 36.43 991.14 36.18 991.14 35.68V18.43H985.35L984.95 17.2H998.47L1001.01 14.61L1004.61 18.08V8.64001L1009.79 10.75H1011.41C1011.53 9.43 1011.64 7.76 1011.76 5.75H1003.86L1004.08 5.97C1003.87 6.23 1003.29 6.41 1002.33 6.5C1000.84 7.85 998.58 9.3 995.57 10.84C996.68 11.81 997.27 12.86 997.33 14C997.36 15.05 996.96 15.83 996.15 16.33C995.3 16.86 994.34 16.8 993.25 16.15C992.87 14.83 992.09 13.44 990.92 11.98C989.87 10.63 988.7 9.49 987.41 8.56L987.76 8.25C990.42 8.46 992.56 9.01001 994.17 9.92001C995.17 8.49001 996.04 7.02 996.8 5.53H986.09L985.69 4.26001H996.88L999.56 1.63L1002.54 4.48001H1018.74L1021.59 0.839996C1022.21 1.34 1022.8 1.82001 1023.39 2.29001C1024.77 3.43001 1025.85 4.34999 1026.64 5.04999C1026.55 5.51999 1026.16 5.75 1025.45 5.75H1017.37C1015.73 7.83 1014.21 9.5 1012.81 10.75H1018.12L1020.36 8.29001L1024.97 11.84C1024.71 12.19 1024.21 12.45 1023.48 12.63V32.03C1023.45 32.24 1022.97 32.5 1022.03 32.82C1021.03 33.17 1020.13 33.35 1019.31 33.35H1018.48V31.64H1009.57V32.34C1009.57 32.43 1009.48 32.55 1009.31 32.69L1014.8 36.11C1014.6 36.46 1014.13 36.55 1013.4 36.37C1011.94 37.48 1009.85 38.56 1007.12 39.62C1004.49 40.64 1001.91 41.39 999.4 41.86L999.09 41.29C1000.9 40.29 1002.76 39.01 1004.64 37.43C1006.53 35.85 1007.98 34.36 1009.01 32.95C1007.96 33.62 1006.76 33.96 1005.41 33.96H1004.62V19.3C1004.33 19.36 1004.03 19.39 1003.74 19.39C1001.87 22.14 999.97 24.48 998.03 26.41L997.59 26.1C998.06 23.97 998.48 21.4 998.86 18.42H995.96V35.76C995.96 37.66 995.61 39.04 994.91 39.88C994.03 40.99 992.37 41.65 989.91 41.86V41.87ZM1009.57 17.25H1018.48V11.98H1009.57V17.25ZM1009.57 23.79H1018.48V18.48H1009.57V23.79ZM1009.57 30.37H1018.48V25.02H1009.57V30.37ZM1024.56 41.25C1023.78 41.95 1022.78 42.02 1021.55 41.47C1020.91 40.12 1019.85 38.65 1018.39 37.04C1017.1 35.64 1015.77 34.39 1014.4 33.31L1014.75 32.96C1017.97 33.19 1020.53 33.9 1022.43 35.07C1024.01 36.01 1024.96 37.13 1025.28 38.45C1025.57 39.62 1025.33 40.56 1024.56 41.26V41.25Z" fill="white"/>
<path d="M1040.56 41.82V27.6C1040.33 27.66 1040.12 27.69 1039.95 27.69C1038.4 32.23 1036.35 35.69 1033.81 38.09L1033.15 37.74C1034.5 34.29 1035.39 30.15 1035.83 25.32L1040.57 26.46V22.2C1039.75 22.46 1038.43 22.86 1036.62 23.38C1036.33 23.47 1036.11 23.53 1035.96 23.56C1035.64 24.17 1035.21 24.5 1034.69 24.53L1033.29 19.66C1034.31 19.66 1036.14 19.59 1038.78 19.44C1041.35 15.2 1043.49 10.79 1045.19 6.23001L1051.47 8.60001C1051.21 9.19001 1050.62 9.41999 1049.71 9.29999C1047.13 12.81 1044.03 16.16 1040.41 19.35C1041.76 19.29 1043.98 19.18 1047.08 19C1046.61 17.86 1045.97 16.6 1045.15 15.23L1045.59 15.01C1047.64 15.71 1049.23 16.59 1050.37 17.64C1051.39 15.47 1052.32 12.89 1053.16 9.89001C1053.99 6.89001 1054.61 3.86999 1055.03 0.829987L1061.74 2.89001C1061.48 3.50001 1060.91 3.81 1060.03 3.81C1059.24 6.06 1058.32 8.18001 1057.27 10.17H1067.19L1070 7.26999L1074.74 11.4C1074.36 11.87 1073.7 12.16 1072.77 12.28C1072.51 20.71 1072.11 26.91 1071.58 30.89C1070.97 35.34 1070.03 38.2 1068.77 39.49C1067.92 40.31 1066.98 40.9 1065.94 41.27C1064.9 41.64 1063.61 41.82 1062.06 41.82C1062.06 39.98 1061.71 38.75 1061.01 38.13C1060.19 37.31 1058.49 36.62 1055.92 36.07V35.5C1056.01 35.5 1056.15 35.52 1056.36 35.54C1060.02 35.8 1062.23 35.94 1062.99 35.94C1063.75 35.94 1064.31 35.74 1064.74 35.32C1066.23 34.03 1067.21 26.06 1067.68 11.4H1056.58C1054.97 14.12 1053.14 16.42 1051.09 18.29C1052.11 19.43 1052.58 20.6 1052.49 21.8C1052.4 22.88 1051.95 23.61 1051.13 23.99C1050.22 24.37 1049.3 24.17 1048.37 23.38C1048.25 22.33 1047.96 21.19 1047.49 19.96L1045.3 20.71V40.5C1045.3 40.7 1044.96 40.95 1044.29 41.25C1043.44 41.63 1042.49 41.82 1041.44 41.82H1040.61H1040.56ZM1037.71 14.83C1037.51 13.72 1037.01 12.5 1036.22 11.19C1035.55 10.05 1034.76 9.01001 1033.85 8.07001L1034.24 7.76001C1035.79 8.02001 1037.05 8.38999 1038.01 8.85999C1038.77 6.54999 1039.5 3.80999 1040.2 0.649994L1046.74 2.79999C1046.53 3.46999 1045.96 3.76999 1045.03 3.67999C1043.42 5.89999 1041.56 7.88001 1039.46 9.60001C1040.81 10.51 1041.54 11.55 1041.65 12.72C1041.74 13.8 1041.37 14.59 1040.55 15.09C1039.7 15.62 1038.75 15.53 1037.7 14.83H1037.71ZM1047.94 33.48C1047.85 30.96 1047.05 28.17 1045.53 25.1L1046.01 24.88C1048.38 25.88 1050.11 27.1 1051.19 28.57C1052.1 29.77 1052.46 30.97 1052.29 32.17C1052.12 33.25 1051.59 33.95 1050.71 34.28C1049.77 34.63 1048.85 34.37 1047.94 33.49V33.48ZM1058.47 26.59C1058.32 23.81 1057.2 20.62 1055.09 17.02L1055.53 16.8C1058.25 17.88 1060.27 19.23 1061.59 20.84C1062.67 22.19 1063.16 23.53 1063.04 24.88C1062.92 26.11 1062.41 26.93 1061.5 27.34C1060.5 27.78 1059.5 27.53 1058.47 26.59Z" fill="white"/>
<path d="M1084.49 18.47L1081.9 12.9C1084.94 12.55 1089.92 11.76 1096.82 10.53L1096.91 11.01C1093.4 13.18 1089.64 15.3 1085.63 17.37C1085.42 17.9 1085.04 18.26 1084.49 18.47ZM1083.22 41.86L1083.04 41.29C1085.79 40.47 1088.54 39.33 1091.29 37.87C1093.98 36.44 1096.06 35.03 1097.52 33.66L1103.09 37.35C1102.65 37.88 1101.8 37.99 1100.54 37.7C1098.55 38.75 1095.95 39.66 1092.73 40.42C1089.6 41.15 1086.42 41.63 1083.21 41.87L1083.22 41.86ZM1089.63 8.5C1089.25 7.39 1088.58 6.18999 1087.61 4.89999C1086.73 3.75999 1085.78 2.79 1084.76 2L1085.11 1.64999C1087.98 1.67999 1090.2 2.18001 1091.78 3.14001C1093.1 3.93001 1093.8 4.93 1093.89 6.13C1094.01 7.18 1093.63 7.99001 1092.75 8.54001C1091.84 9.16001 1090.8 9.14 1089.63 8.5ZM1089.63 35.93V15.3L1095.03 17.41H1110.22L1112.55 14.91L1117.42 18.6C1117.07 19.01 1116.54 19.27 1115.84 19.39V33.57C1115.81 33.78 1115.3 34.02 1114.3 34.32C1113.25 34.67 1112.32 34.85 1111.53 34.85H1110.65V33.14H1094.72V34.33C1094.72 34.59 1094.27 34.93 1093.36 35.34C1092.36 35.75 1091.38 35.96 1090.42 35.96H1089.63V35.93ZM1119.21 18.07C1115.99 17.28 1113.51 15.9 1111.75 13.94C1110.32 12.36 1109.31 10.25 1108.72 7.62C1107.81 10.17 1106.12 12.17 1103.63 13.63C1101.32 15.01 1098.13 16.01 1094.06 16.66L1093.93 16.09C1097.06 15.04 1099.42 13.76 1101.02 12.27C1102.61 10.78 1103.65 8.88 1104.11 6.56H1101.17C1098.98 8.4 1096.69 9.75001 1094.32 10.6L1093.97 10.25C1095.23 9.17 1096.37 7.73001 1097.39 5.95001C1098.38 4.22001 1099.12 2.44001 1099.58 0.600006L1106.25 2.09C1106.07 2.53 1105.53 2.73001 1104.63 2.70001C1103.96 3.67001 1103.24 4.53001 1102.48 5.29001H1115.3L1117.71 2.82999L1121.97 6.91C1121.65 7.23 1121.08 7.41 1120.26 7.44C1118.36 8.82 1116.25 9.91001 1113.94 10.73L1113.5 10.51C1114.05 9.49001 1114.66 8.17 1115.3 6.56H1109.38C1110.02 8.46 1111.37 9.95001 1113.42 11.04C1115.55 12.18 1118.69 13 1122.81 13.5L1122.77 14.07C1121.6 14.3 1120.75 14.7 1120.22 15.26C1119.63 15.87 1119.3 16.81 1119.21 18.07ZM1094.72 22.2H1110.65V18.69H1094.72V22.2ZM1094.72 26.98H1110.65V23.43H1094.72V26.98ZM1094.72 31.9H1110.65V28.26H1094.72V31.9ZM1115.04 40.98C1112.23 38.67 1108.47 36.85 1103.76 35.54L1103.89 34.97C1108.45 35.03 1112.14 35.38 1114.95 36.02C1117.29 36.58 1118.9 37.29 1119.78 38.17C1120.51 38.93 1120.66 39.68 1120.22 40.41C1119.81 41.08 1119.08 41.51 1118.03 41.68C1116.92 41.86 1115.92 41.62 1115.05 40.98H1115.04Z" fill="white"/>
<path d="M1137.55 41.87V27.52C1135.56 30.42 1133.09 33.01 1130.13 35.29L1129.65 34.76C1132.52 30.93 1134.65 25.72 1136.06 19.14H1130.05L1129.7 17.87H1137.56V0.75L1143.88 1.35999C1143.79 2.05999 1143.25 2.49 1142.26 2.63V17.86H1143.71L1146.08 14.7C1146.61 15.14 1147.15 15.56 1147.7 15.97C1148.9 16.97 1149.85 17.78 1150.55 18.43C1150.43 18.9 1150.04 19.13 1149.37 19.13H1142.26V21.46C1144.98 22.02 1147.03 22.92 1148.4 24.18C1149.54 25.2 1150.1 26.3 1150.07 27.47C1150.04 28.55 1149.6 29.31 1148.75 29.75C1147.84 30.22 1146.88 30.07 1145.85 29.31C1145.53 26.97 1144.33 24.57 1142.25 22.11V40.19C1142.25 40.48 1141.84 40.83 1141.02 41.24C1140.14 41.65 1139.29 41.85 1138.47 41.85H1137.55V41.87ZM1131.98 13.74C1132.04 11.28 1131.41 8.30001 1130.09 4.79001L1130.57 4.62C1132.76 5.82 1134.34 7.21001 1135.31 8.79001C1136.13 10.11 1136.42 11.35 1136.19 12.52C1135.99 13.63 1135.44 14.33 1134.57 14.63C1133.69 14.92 1132.83 14.63 1131.98 13.75V13.74ZM1143.96 14.88L1143.26 14.57C1143.82 12.11 1144.42 8.75001 1145.06 4.48001L1150.9 6.23001C1150.7 6.85001 1150.14 7.17001 1149.23 7.20001C1147.39 10.24 1145.63 12.8 1143.96 14.88ZM1160.59 41.83V29.45L1149.13 31.78L1148.56 30.64L1160.59 28.23V0.709991L1167.13 1.37C1167.04 2.07 1166.53 2.50001 1165.59 2.64001V27.22L1165.72 27.18L1167.61 23.36C1169.1 24.38 1170.59 25.41 1172.09 26.43C1172.09 26.93 1171.77 27.23 1171.12 27.35L1165.59 28.45V40.08C1165.59 40.37 1165.15 40.74 1164.27 41.18C1163.33 41.62 1162.43 41.84 1161.55 41.84H1160.58L1160.59 41.83ZM1154.36 22.47C1154.1 21.27 1153.5 20 1152.56 18.65C1151.71 17.39 1150.74 16.31 1149.66 15.4L1150.01 15.09C1152.79 15.38 1154.94 16.09 1156.46 17.2C1157.69 18.14 1158.35 19.19 1158.44 20.36C1158.5 21.44 1158.12 22.23 1157.3 22.73C1156.42 23.26 1155.44 23.17 1154.36 22.47ZM1154.58 12.11C1154.35 10.94 1153.82 9.65 1153 8.25C1152.27 7.02 1151.43 5.89 1150.5 4.87L1150.85 4.60999C1153.57 5.07999 1155.63 5.90001 1157.04 7.07001C1158.21 8.04001 1158.79 9.09999 1158.79 10.27C1158.79 11.35 1158.35 12.11 1157.47 12.55C1156.59 13.02 1155.63 12.87 1154.57 12.11H1154.58Z" fill="white"/>
<path d="M1184.38 41.6C1182.68 41.6 1181.22 40.99 1179.99 39.76C1178.76 38.53 1178.15 37.07 1178.15 35.37C1178.15 33.67 1178.76 32.22 1179.97 31C1181.18 29.79 1182.65 29.18 1184.38 29.18C1186.11 29.18 1187.57 29.78 1188.77 30.98C1189.97 32.18 1190.57 33.64 1190.57 35.37C1190.57 37.1 1189.96 38.57 1188.75 39.78C1187.54 40.99 1186.08 41.6 1184.38 41.6ZM1184.38 40.02C1185.64 40.02 1186.72 39.57 1187.63 38.66C1188.54 37.75 1188.99 36.66 1188.99 35.37C1188.99 34.08 1188.54 32.99 1187.65 32.1C1186.76 31.21 1185.67 30.76 1184.38 30.76C1183.09 30.76 1182 31.21 1181.09 32.1C1180.18 32.99 1179.73 34.08 1179.73 35.37C1179.73 36.66 1180.18 37.76 1181.09 38.66C1182 39.57 1183.09 40.02 1184.38 40.02Z" fill="white"/>
</svg>
