<svg width="421" height="53" viewBox="0 0 421 53" fill="none" xmlns="http://www.w3.org/2000/svg">
<path d="M8.21002 34.54V18.88C6.02002 21.21 3.71002 23.25 1.27002 24.99L0.660034 24.55C2.70003 21.51 4.64002 17.88 6.49002 13.66C8.45002 9.17997 9.99004 4.74002 11.1 0.330017L19.99 3.5C19.73 4.28 18.99 4.64999 17.77 4.60999C16.58 7.08999 15.23 9.50002 13.72 11.83L16.44 12.83C16.25 13.35 15.7 13.68 14.77 13.83V32.83C14.7 33.13 14.1 33.48 12.99 33.89C11.77 34.33 10.56 34.56 9.38004 34.56H8.21002V34.54ZM3.49002 48.93C2.34002 48.63 1.60002 47.97 1.27002 46.93C0.97002 45.97 1.07002 45.08 1.55002 44.26C1.99002 43.52 2.70003 42.93 3.66003 42.48C5.07003 41.89 6.31004 40.93 7.38004 39.59C8.60004 38.11 9.27004 36.5 9.38004 34.76L10.1 34.82C11.17 38.15 11.28 41.12 10.43 43.71C9.73002 45.93 8.49002 47.52 6.71002 48.49C5.67002 49.08 4.60002 49.23 3.49002 48.93ZM21.93 51.32C18.93 51.32 16.97 50.97 16.04 50.26C15.11 49.56 14.65 48.11 14.65 45.93V33.77L22.65 34.44C22.54 35.22 21.96 35.68 20.93 35.83V44.55C20.93 44.96 21.06 45.22 21.32 45.33C21.58 45.48 22.19 45.55 23.15 45.55H29.32C32.13 45.55 33.8 45.53 34.32 45.5C35.02 45.46 35.56 45.22 35.93 44.78C36.49 44 37.32 42.04 38.43 38.89H39.04L39.21 44.89C40.06 45.22 40.65 45.58 40.99 45.97C41.32 46.36 41.49 46.85 41.49 47.44C41.49 48.85 40.64 49.83 38.94 50.38C37.05 51.01 33.63 51.32 28.66 51.32H21.94H21.93ZM17.49 20.05L16.82 19.61C18.3 17.24 19.65 14.37 20.87 11C22.17 7.56 23.15 4.06 23.81 0.5L32.59 3.28003C32.33 4.02003 31.61 4.39001 30.42 4.39001C29.86 5.54001 29.35 6.56001 28.87 7.45001H43.87L47.26 4.01001L53.15 9.62C52.78 9.99 52.06 10.23 50.98 10.34C48.65 12.41 45.96 14.21 42.93 15.73L42.49 15.4C43.12 13.62 43.69 11.49 44.21 9.01001H27.94C25.01 13.71 21.53 17.4 17.5 20.06L17.49 20.05ZM30.66 33.38C30.47 31.08 30.12 29.59 29.6 28.88C28.79 27.84 27.45 27.16 25.6 26.82V26.1C27.45 26.21 29.3 26.32 31.15 26.43C31.78 26.43 32.09 26.15 32.09 25.6V17.32C31.65 17.62 31.07 17.75 30.37 17.71C27.52 22.78 23.65 26.45 18.76 28.71L18.15 28.21C19.48 26.51 20.7 24.4 21.82 21.88C22.97 19.29 23.86 16.6 24.49 13.83L32.1 16.55V9.5L40.27 10.22C40.16 11 39.55 11.46 38.44 11.61V25.89C38.44 28.33 38.01 30.06 37.16 31.06C36.05 32.32 33.88 33.1 30.66 33.39V33.38ZM27.99 41.1C27.62 39.55 26.86 37.92 25.71 36.21C24.67 34.62 23.51 33.27 22.21 32.16L22.65 31.72C26.24 32.09 28.98 32.98 30.87 34.39C32.46 35.58 33.28 36.93 33.31 38.44C33.38 39.81 32.87 40.81 31.75 41.44C30.6 42.11 29.34 42 27.97 41.11L27.99 41.1ZM46.32 47.82C45.84 45.67 44.8 43.41 43.21 41.04C41.73 38.82 40.04 36.93 38.16 35.37L38.6 34.98C43.01 35.72 46.43 37.07 48.88 39.04C50.88 40.63 51.97 42.39 52.16 44.32C52.34 46.1 51.84 47.39 50.66 48.21C49.36 49.06 47.92 48.93 46.33 47.82H46.32ZM45.38 27.66C45.08 25.62 44.3 23.37 43.05 20.88C41.97 18.73 40.7 16.71 39.22 14.83L39.78 14.5C43.7 15.76 46.67 17.44 48.67 19.55C50.34 21.33 51.19 23.14 51.23 24.99C51.23 26.66 50.64 27.8 49.45 28.43C48.19 29.1 46.84 28.84 45.4 27.65L45.38 27.66Z" fill="white"/>
<path d="M64.42 49.15V8.54999L70.53 11.22H70.59C71.11 7.51997 71.51 3.97999 71.81 0.609985L80.86 2.71997C80.64 3.60997 79.88 4.04999 78.58 4.04999C76.43 6.78999 74.45 9.17997 72.64 11.22H76.53L79.53 7.94L85.47 12.61C85.03 13.13 84.27 13.52 83.19 13.78V45.66C83.15 45.92 82.56 46.27 81.41 46.72C80.15 47.2 79.04 47.44 78.08 47.44H77.08V43.05H70.3V46.99C70.3 47.4 69.8 47.84 68.8 48.32C67.69 48.88 66.54 49.15 65.36 49.15H64.42ZM70.31 25.93H77.09V12.77H70.31V25.93ZM70.31 41.48H77.09V27.43H70.31V41.48ZM97.64 52.09C97.64 50.05 97.23 48.65 96.42 47.87C95.38 46.83 93.44 46.02 90.59 45.43V44.71C94.66 45.04 97.39 45.21 98.76 45.21C99.72 45.21 100.48 44.93 101.04 44.38C103.34 42.46 104.85 31.86 105.6 12.61H93.05C90.38 16.8 87.33 20.15 83.88 22.66L83.21 22.22C84.84 19.44 86.32 16.17 87.65 12.39C89.06 8.43001 90.09 4.45001 90.76 0.450012L99.48 3.06C99.15 3.84 98.41 4.20998 97.26 4.16998C96.41 6.38998 95.33 8.67 94.04 11H105.04L108.54 7.33002L114.43 12.66C113.91 13.18 113.06 13.51 111.88 13.66C111.47 24.66 110.84 32.88 109.99 38.32C109.1 43.95 107.82 47.6 106.16 49.26C105.09 50.3 103.86 51.04 102.49 51.48C101.19 51.89 99.58 52.09 97.66 52.09H97.64ZM93.31 32.09C93.16 28.42 91.68 24.61 88.87 20.65L89.37 20.26C93.04 21.45 95.76 23.04 97.54 25.04C99.02 26.71 99.67 28.39 99.48 30.09C99.29 31.65 98.57 32.66 97.31 33.14C96.01 33.66 94.68 33.31 93.31 32.09Z" fill="white"/>
<path d="M128.96 52.54C128.88 50.47 128.55 49 127.96 48.15C127.26 47.19 125.81 46.5 123.63 46.09V45.37C125.59 45.44 127.54 45.54 129.46 45.65C130.16 45.65 130.51 45.34 130.51 44.71V22.88H123.18L122.68 21.32H139.79L143.01 18.04L147.56 22.43V10.49L154.11 13.16H156.16C156.31 11.49 156.46 9.38002 156.6 6.83002H146.6L146.88 7.10999C146.62 7.43999 145.88 7.67003 144.66 7.78003C142.77 9.48003 139.92 11.32 136.11 13.28C137.52 14.5 138.26 15.83 138.33 17.28C138.37 18.61 137.87 19.59 136.83 20.22C135.75 20.89 134.53 20.81 133.16 20C132.68 18.33 131.7 16.58 130.22 14.72C128.89 13.02 127.41 11.57 125.78 10.39L126.22 10C129.59 10.26 132.29 10.96 134.33 12.11C135.59 10.3 136.7 8.44 137.66 6.56H124.11L123.61 4.95001H137.77L141.16 1.62L144.94 5.22998H165.44L169.05 0.619995C169.83 1.25 170.59 1.86001 171.33 2.45001C173.07 3.89001 174.44 5.06001 175.44 5.95001C175.33 6.54001 174.83 6.84003 173.94 6.84003H163.72C161.65 9.47003 159.72 11.58 157.94 13.17H164.66L167.49 10.06L173.32 14.56C172.99 15 172.36 15.34 171.43 15.56V40.11C171.39 40.37 170.78 40.7 169.6 41.11C168.34 41.55 167.19 41.78 166.16 41.78H165.1V39.61H153.82V40.5C153.82 40.61 153.71 40.76 153.49 40.94L160.43 45.27C160.17 45.71 159.58 45.83 158.65 45.6C156.8 47.01 154.15 48.38 150.71 49.71C147.38 51.01 144.12 51.95 140.93 52.54L140.54 51.82C142.84 50.56 145.18 48.93 147.57 46.93C149.96 44.93 151.8 43.04 153.1 41.26C151.77 42.11 150.25 42.54 148.55 42.54H147.55V23.99C147.18 24.07 146.81 24.1 146.44 24.1C144.07 27.58 141.66 30.54 139.22 32.99L138.67 32.6C139.26 29.9 139.8 26.66 140.28 22.88H136.61V44.82C136.61 47.23 136.17 48.97 135.28 50.04C134.17 51.45 132.06 52.28 128.95 52.54H128.96ZM153.84 21.38H165.12V14.71H153.84V21.38ZM153.84 29.66H165.12V22.94H153.84V29.66ZM153.84 37.99H165.12V31.21H153.84V37.99ZM172.81 51.77C171.83 52.66 170.56 52.75 169 52.05C168.19 50.35 166.85 48.48 165 46.44C163.37 44.66 161.69 43.09 159.95 41.72L160.39 41.28C164.46 41.58 167.7 42.47 170.11 43.95C172.11 45.14 173.31 46.56 173.72 48.23C174.09 49.71 173.78 50.9 172.8 51.78L172.81 51.77Z" fill="white"/>
<path d="M193.06 52.48V34.48C192.76 34.55 192.5 34.59 192.28 34.59C190.32 40.33 187.73 44.72 184.5 47.75L183.67 47.31C185.37 42.94 186.5 37.7 187.06 31.59L193.06 33.03V27.64C192.02 27.97 190.36 28.47 188.06 29.14C187.69 29.25 187.41 29.33 187.23 29.36C186.82 30.14 186.29 30.55 185.62 30.58L183.84 24.41C185.14 24.41 187.45 24.32 190.78 24.13C194.04 18.76 196.74 13.19 198.89 7.40997L206.83 10.41C206.5 11.15 205.76 11.45 204.61 11.3C201.35 15.74 197.43 19.98 192.83 24.02C194.53 23.95 197.35 23.8 201.27 23.58C200.68 22.14 199.86 20.54 198.83 18.8L199.38 18.52C201.97 19.41 203.99 20.52 205.43 21.85C206.73 19.11 207.9 15.84 208.96 12.05C210.02 8.24999 210.8 4.43002 211.32 0.580017L219.82 3.19C219.49 3.97 218.76 4.35999 217.65 4.35999C216.65 7.20999 215.48 9.89997 214.15 12.41H226.7L230.25 8.73999L236.25 13.96C235.77 14.55 234.94 14.92 233.75 15.07C233.42 25.74 232.92 33.59 232.25 38.62C231.47 44.25 230.29 47.88 228.7 49.51C227.62 50.55 226.43 51.3 225.12 51.76C223.8 52.22 222.17 52.45 220.2 52.45C220.2 50.12 219.76 48.56 218.87 47.79C217.83 46.75 215.68 45.88 212.43 45.18V44.46C212.54 44.46 212.73 44.48 212.99 44.52C217.62 44.85 220.41 45.02 221.38 45.02C222.35 45.02 223.05 44.76 223.6 44.24C225.49 42.61 226.73 32.52 227.32 13.97H213.27C211.23 17.41 208.92 20.32 206.33 22.69C207.63 24.13 208.22 25.62 208.11 27.13C208 28.5 207.42 29.43 206.39 29.91C205.24 30.39 204.08 30.13 202.89 29.13C202.74 27.8 202.37 26.35 201.78 24.8L199 25.74V50.79C199 51.05 198.57 51.36 197.72 51.73C196.65 52.21 195.44 52.45 194.11 52.45H193.05L193.06 52.48ZM189.45 18.32C189.19 16.91 188.56 15.38 187.56 13.71C186.71 12.27 185.71 10.95 184.56 9.77002L185.06 9.38C187.02 9.71 188.61 10.18 189.84 10.77C190.8 7.85002 191.73 4.38 192.62 0.380005L200.9 3.09998C200.64 3.94998 199.92 4.32002 198.73 4.21002C196.69 7.02002 194.34 9.52002 191.68 11.71C193.38 12.86 194.31 14.17 194.46 15.65C194.57 17.02 194.11 18.02 193.07 18.65C192 19.32 190.79 19.21 189.46 18.32H189.45ZM202.39 41.93C202.28 38.75 201.26 35.21 199.34 31.32L199.95 31.04C202.95 32.3 205.13 33.85 206.5 35.71C207.65 37.23 208.11 38.75 207.89 40.26C207.67 41.63 207 42.52 205.89 42.93C204.7 43.37 203.54 43.04 202.39 41.93ZM215.72 33.21C215.53 29.69 214.11 25.66 211.44 21.1L212 20.82C215.44 22.19 218 23.89 219.67 25.93C221.04 27.63 221.65 29.34 221.5 31.04C221.35 32.6 220.7 33.63 219.56 34.15C218.3 34.71 217.02 34.39 215.73 33.21H215.72Z" fill="white"/>
<path d="M248.27 17.54C248.01 15.1 246.83 12.54 244.72 9.87L245.28 9.53998C246.91 9.90998 248.32 10.39 249.5 10.98C250.24 8.41998 251.07 4.87 252 0.309998L260.05 2.91998C259.79 3.65998 259.07 4.03003 257.88 4.03003C255.66 7.07003 253.36 9.69998 250.99 11.92C252.4 13.03 253.1 14.25 253.1 15.59C253.1 16.81 252.58 17.66 251.54 18.14C250.5 18.62 249.41 18.42 248.26 17.53L248.27 17.54ZM252.82 52.59V34.98C252.6 35.06 252.39 35.09 252.21 35.09C250.62 40.79 248.43 45.11 245.66 48.03L244.83 47.59C246.24 43.26 247.05 38.18 247.27 32.37L252.82 33.48V28.31C252.26 28.5 251.38 28.77 250.15 29.14C249.41 29.4 248.85 29.58 248.48 29.7C248.18 30.33 247.66 30.72 246.92 30.87L244.81 24.76C245.48 24.76 246.92 24.74 249.14 24.7C249.73 24.66 250.18 24.64 250.47 24.64C253.51 18.86 256.08 13.16 258.19 7.53003L265.86 10.53C265.53 11.27 264.78 11.57 263.64 11.42C260.42 15.94 256.75 20.31 252.64 24.53C255.16 24.46 257.71 24.35 260.31 24.2C259.9 22.57 259.35 20.96 258.64 19.37L259.31 19.09C261.94 20.35 263.83 21.83 264.98 23.53C265.9 24.94 266.22 26.29 265.92 27.59C265.66 28.81 265.01 29.57 263.98 29.87C262.91 30.2 261.87 29.85 260.87 28.81C260.91 27.96 260.83 26.92 260.65 25.7L258.54 26.42V50.92C258.54 51.18 258.11 51.51 257.26 51.92C256.22 52.36 255.08 52.59 253.82 52.59H252.82ZM269.6 52.42V40.53C267.71 44.6 265.05 47.94 261.6 50.53L261.04 50.09C262.96 47.09 264.37 43.65 265.26 39.76C264.89 40.72 264.26 41.3 263.37 41.48C262.37 41.7 261.44 41.35 260.59 40.43C260.78 37.99 260.29 35.17 259.15 31.99L259.76 31.77C261.87 32.84 263.43 34.08 264.43 35.49C265.24 36.68 265.6 37.82 265.49 38.93C266.41 34.67 266.88 29.14 266.88 22.32V9.82001L273.66 12.26H287.55L290.38 9.21002L296.27 13.6C295.86 14.12 295.16 14.49 294.16 14.71V24.04C294.12 24.26 293.55 24.58 292.44 24.98C291.18 25.42 290.09 25.65 289.16 25.65H288.1V23.32H272.71C272.71 24.69 272.65 26.15 272.54 27.71L274.71 28.6H289.6L291.82 26.05L297.04 29.88C296.63 30.36 296.02 30.68 295.21 30.82V46.04C295.21 48.15 294.89 49.63 294.27 50.48C293.49 51.55 291.94 52.2 289.6 52.42C289.53 50.49 289.34 49.24 289.04 48.64C288.71 47.97 288.19 47.51 287.49 47.25V50.64C287.45 50.86 287.14 51.1 286.55 51.36C285.81 51.73 284.99 51.92 284.11 51.92H283.44V39.64H281V50.8C280.96 50.98 280.65 51.21 280.06 51.47C279.28 51.8 278.45 51.97 277.56 51.97H276.89V39.64H274.39V50.86C274.39 51.16 273.96 51.47 273.11 51.8C272.22 52.21 271.3 52.41 270.33 52.41H269.61L269.6 52.42ZM264.71 6.59003L264.27 5.03998H287.65L291.09 0.650024C293.13 2.32002 295.16 4.00001 297.2 5.70001C297.05 6.29001 296.53 6.59003 295.65 6.59003H264.71ZM272.71 21.75H288.1V13.81H272.71V21.75ZM274.38 38.08H276.88V30.14H274.38V38.08ZM280.99 38.08H283.43V30.14H280.99V38.08ZM287.49 38.08H290.1V30.14H287.49V38.08ZM289.32 46.3C289.84 46.3 290.1 46.02 290.1 45.47V39.64H287.49V46.25C287.71 46.25 288.08 46.27 288.6 46.31H289.32V46.3Z" fill="white"/>
<path d="M314.21 52.48C314.21 50.59 313.93 49.35 313.38 48.76C312.71 47.98 311.45 47.39 309.6 46.98V46.15C311.75 46.37 313.49 46.48 314.82 46.48C315.56 46.48 316.13 46.33 316.54 46.04C317.76 45.04 318.61 40.56 319.1 32.6H314.38C314.16 33.49 313.9 34.49 313.6 35.6C313.01 36.01 312.17 36.25 311.1 36.32C310.03 36.39 308.88 36.25 307.66 35.88C308.51 33.55 309.4 29.92 310.33 24.99H306.55L306.11 23.44H319.89L322.61 19.66C321.65 19.88 320.91 19.99 320.39 19.99H319.45V17.49H313.95V19.38C313.95 19.68 313.47 20.03 312.51 20.43C311.44 20.87 310.38 21.1 309.34 21.1H308.56V1.83002L314.23 4.15997H318.89L321.56 1.21997L327.28 5.54999C326.76 6.13999 326 6.52997 325 6.71997V18.61C324.93 18.91 324.24 19.22 322.95 19.55C323.06 19.66 323.37 19.94 323.89 20.38C325.82 22.05 327.19 23.29 328 24.1C327.85 24.69 327.35 24.99 326.5 24.99H316.11C316 25.47 315.83 26.25 315.61 27.32C315.24 28.99 314.96 30.23 314.78 31.04H318.67L321.56 28.15L326.84 32.54C326.43 33.02 325.71 33.34 324.67 33.48C324.41 38.74 323.95 42.69 323.28 45.34C322.61 47.99 321.63 49.79 320.34 50.76C318.82 51.91 316.79 52.48 314.23 52.48H314.21ZM313.93 15.93H319.43V5.71002H313.93V15.93ZM323.82 52.48L323.21 51.93C325.51 48.45 327.08 44.17 327.93 39.1C328.48 35.62 328.76 31.05 328.76 25.38V9.98999L335.48 12.49H339.2V0.380005L346.92 1.04999C346.85 1.86999 346.23 2.36999 345.09 2.54999V6.94H348.76L351.76 2.88C352.43 3.44 353.09 3.96999 353.76 4.48999C355.24 5.74999 356.41 6.78998 357.26 7.59998C357.11 8.18998 356.59 8.48999 355.7 8.48999H345.09V12.49H350.81L353.53 9.65997L358.53 14.38C358.2 14.68 357.49 14.88 356.42 14.99C354.94 16.14 353.23 17.25 351.31 18.32C351.9 18.69 352.73 19.3 353.81 20.15C353.74 20.82 353.33 21.19 352.59 21.26L344.31 22.04V24.54C344.31 24.87 344.39 25.1 344.56 25.21C344.73 25.32 345.09 25.38 345.64 25.38H348.69C350.17 25.38 351.08 25.36 351.41 25.33C351.93 25.33 352.32 25.22 352.58 25C352.95 24.52 353.47 23.45 354.13 21.78H354.74L354.96 25C356.11 25.44 356.68 26.09 356.68 26.94C356.68 28.01 356.07 28.75 354.85 29.16C353.63 29.57 351.37 29.77 348.07 29.77H344.13C342.02 29.77 340.63 29.47 339.96 28.88C339.37 28.32 339.07 27.21 339.07 25.55V22.5L334.52 22.94V25.38C334.52 31.12 333.98 35.79 332.91 39.38C331.28 44.82 328.24 49.19 323.8 52.49L323.82 52.48ZM330.37 52.48L329.93 51.81C335.04 47.62 337.41 41 337.04 31.92L344.76 33.14C344.57 33.99 343.89 34.47 342.7 34.58C342.22 38.58 341.18 41.89 339.59 44.52C337.55 47.96 334.48 50.61 330.37 52.46V52.48ZM334.54 21.32L339.09 20.88V14.83L345.92 15.5C345.85 16.24 345.31 16.69 344.31 16.83V20.38L347.53 20.1L349.53 17.1L350.42 17.71C350.64 16.64 350.88 15.4 351.14 13.99H334.53V21.32H334.54ZM349.43 51.82C347.58 51.82 346.37 51.49 345.82 50.82C345.34 50.23 345.1 49.04 345.1 47.27V31.72L352.21 32.33C352.1 33.11 351.56 33.59 350.6 33.77V45.82C350.6 46.12 350.65 46.32 350.74 46.43C350.83 46.54 351.03 46.6 351.32 46.6H353.54C353.87 46.6 354.15 46.42 354.37 46.04C354.63 45.56 355.24 43.58 356.2 40.1H356.81L357.03 46.32C357.62 46.58 358.03 46.89 358.25 47.26C358.4 47.56 358.47 47.98 358.47 48.54C358.47 50.72 356.27 51.82 351.86 51.82H349.42H349.43Z" fill="white"/>
<path d="M405.8 52.65C405.8 50.69 405.48 49.34 404.86 48.6C404.08 47.75 402.66 47.08 400.58 46.6V45.82C402.73 46.08 404.73 46.21 406.58 46.21C407.36 46.21 407.99 46.04 408.47 45.71C409.99 44.49 411.08 40.25 411.75 32.99H379.14C375.55 36.58 371.57 39.6 367.2 42.04L366.64 41.54C374.45 35.17 380.81 26.15 385.69 14.49H371.3L370.8 12.88H386.35C388.02 8.58 389.35 4.28999 390.35 -0.0100098L398.85 2.53998C398.63 3.23998 397.89 3.59998 396.63 3.59998C395.56 6.78998 394.32 9.88 392.91 12.88H400.85L403.24 10.32L408.68 14.43C408.31 14.84 407.66 15.1 406.74 15.21L405.13 22.04H406.02L408.35 19.48L413.68 23.53C413.31 23.94 412.68 24.2 411.79 24.31L410.46 31.36H411.29L414.4 28.36L420.07 33.03C419.48 33.55 418.72 33.84 417.79 33.92C417.01 43.21 415.25 48.84 412.51 50.81C410.81 52.03 408.57 52.64 405.79 52.64L405.8 52.65ZM372.56 50.87C371.5 50.61 370.79 49.98 370.42 48.98C369.86 47.17 370.61 45.72 372.64 44.65C373.9 44.02 374.95 42.98 375.81 41.54C376.77 39.95 377.2 38.26 377.09 36.49L377.87 36.43C379.28 39.8 379.67 42.82 379.04 45.48C378.49 47.77 377.37 49.4 375.71 50.37C374.67 50.96 373.63 51.13 372.57 50.87H372.56ZM378.92 10.38C378.73 8.83 378.2 7.18 377.31 5.44C376.53 3.85 375.61 2.41997 374.53 1.15997L374.97 0.830017C378.49 1.39002 381.14 2.42 382.91 3.94C384.35 5.2 385.02 6.58999 384.91 8.10999C384.8 9.51999 384.15 10.5 382.97 11.05C381.67 11.64 380.32 11.42 378.92 10.38ZM380.7 31.38H404.81L406.31 23.6H386.92C384.85 26.6 382.77 29.19 380.7 31.38ZM382.92 47.32C383.88 43.88 383.99 40.28 383.25 36.54L383.92 36.37C386.36 38.11 387.99 40 388.81 42.04C389.51 43.74 389.55 45.32 388.92 46.76C388.36 48.09 387.49 48.85 386.31 49.04C385.01 49.22 383.88 48.65 382.92 47.32ZM387.92 22.05H399.25L400.97 14.5H392.14C390.88 17.09 389.47 19.61 387.92 22.05ZM393.31 45.21C393.31 42.29 392.29 39.27 390.26 36.16L390.82 35.88C393.82 36.77 396.02 37.99 397.43 39.55C398.58 40.88 399.04 42.23 398.82 43.6C398.6 44.86 397.93 45.69 396.82 46.1C395.67 46.54 394.5 46.25 393.32 45.21H393.31ZM402.7 42.21C402.44 41.03 401.85 39.75 400.92 38.38C400.07 37.12 399.12 36.08 398.09 35.27L398.53 34.88C401.53 34.99 403.82 35.58 405.42 36.66C406.75 37.55 407.44 38.62 407.47 39.88C407.51 41.03 407.04 41.88 406.08 42.43C405.04 43.02 403.91 42.95 402.69 42.21H402.7Z" fill="white"/>
</svg>
